<svg width="123" height="149" viewBox="0 0 123 149" fill="none" xmlns="http://www.w3.org/2000/svg">
<path d="M61.4616 0L104.973 43.6541C113.578 52.2816 119.439 63.2758 121.815 75.2458C124.192 87.2159 122.976 99.6242 118.322 110.901C113.669 122.178 105.786 131.817 95.6717 138.599C85.5573 145.38 73.6653 149 61.5 149C49.3347 149 37.4427 145.38 27.3283 138.599C17.2138 131.817 9.33118 122.178 4.67758 110.901C0.0239759 99.6242 -1.19157 87.2159 1.18468 75.2458C3.56094 63.2758 9.42225 52.2816 18.0272 43.6541L61.4616 0Z" fill="#FE1F1A"/>
<path d="M81 43H67.3636C61.336 43 55.5552 45.1071 51.293 48.8579C47.0308 52.6086 44.6364 57.6957 44.6364 63V75H31V91H44.6364V123H62.8182V91H76.4545L81 75H62.8182V63C62.8182 61.9391 63.2971 60.9217 64.1495 60.1716C65.002 59.4214 66.1581 59 67.3636 59H81V43Z" stroke="white" stroke-width="5" stroke-linecap="round" stroke-linejoin="round"/>
</svg>
