<svg width="123" height="149" viewBox="0 0 123 149" fill="none" xmlns="http://www.w3.org/2000/svg">
<path d="M61.4616 0L104.973 43.6541C113.578 52.2816 119.439 63.2758 121.815 75.2458C124.192 87.2159 122.976 99.6242 118.322 110.901C113.669 122.178 105.786 131.817 95.6717 138.599C85.5573 145.38 73.6653 149 61.5 149C49.3347 149 37.4427 145.38 27.3283 138.599C17.2138 131.817 9.33118 122.178 4.67758 110.901C0.0239759 99.6242 -1.19157 87.2159 1.18468 75.2458C3.56094 63.2758 9.42225 52.2816 18.0272 43.6541L61.4616 0Z" fill="#FE1F1A"/>
<path d="M79.5 48H44.5C34.835 48 27 55.835 27 65.5V100.5C27 110.165 34.835 118 44.5 118H79.5C89.165 118 97 110.165 97 100.5V65.5C97 55.835 89.165 48 79.5 48Z" stroke="white" stroke-width="5" stroke-linecap="round" stroke-linejoin="round"/>
<path d="M75.9999 80.7961C76.4319 83.7089 75.9344 86.6838 74.5781 89.2976C73.2219 91.9114 71.076 94.031 68.4456 95.3549C65.8153 96.6788 62.8345 97.1396 59.9272 96.6718C57.0199 96.204 54.3341 94.8313 52.2519 92.7491C50.1697 90.6669 48.797 87.9811 48.3292 85.0738C47.8614 82.1665 48.3222 79.1857 49.6461 76.5554C50.97 73.925 53.0896 71.7791 55.7034 70.4229C58.3172 69.0667 61.2921 68.5691 64.205 69.0011C67.1762 69.4417 69.9269 70.8262 72.0509 72.9501C74.1748 75.0741 75.5594 77.8248 75.9999 80.7961Z" stroke="white" stroke-width="5" stroke-linecap="round" stroke-linejoin="round"/>
<path d="M81.25 63.75H81.285" stroke="white" stroke-width="5" stroke-linecap="round" stroke-linejoin="round"/>
</svg>
