<svg width="123" height="149" viewBox="0 0 123 149" fill="none" xmlns="http://www.w3.org/2000/svg">
<path d="M61.4616 0L104.973 43.6541C113.578 52.2816 119.439 63.2758 121.815 75.2458C124.192 87.2159 122.976 99.6242 118.322 110.901C113.669 122.178 105.786 131.817 95.6717 138.599C85.5573 145.38 73.6653 149 61.5 149C49.3347 149 37.4427 145.38 27.3283 138.599C17.2138 131.817 9.33118 122.178 4.67758 110.901C0.0239759 99.6242 -1.19157 87.2159 1.18468 75.2458C3.56094 63.2758 9.42225 52.2816 18.0272 43.6541L61.4616 0Z" fill="#FE1F1A"/>
<path d="M76 70.1055C81.5695 70.1055 86.911 72.4344 90.8492 76.58C94.7875 80.7255 97 86.3481 97 92.2107V118H83V92.2107C83 90.2565 82.2625 88.3823 80.9497 87.0005C79.637 85.6186 77.8565 84.8423 76 84.8423C74.1435 84.8423 72.363 85.6186 71.0503 87.0005C69.7375 88.3823 69 90.2565 69 92.2107V118H55V92.2107C55 86.3481 57.2125 80.7255 61.1508 76.58C65.089 72.4344 70.4305 70.1055 76 70.1055V70.1055Z" stroke="white" stroke-width="5" stroke-linecap="round" stroke-linejoin="round"/>
<path d="M41 73.791H27V118.002H41V73.791Z" stroke="white" stroke-width="5" stroke-linecap="round" stroke-linejoin="round"/>
<path d="M34 62.7368C37.866 62.7368 41 59.4379 41 55.3684C41 51.299 37.866 48 34 48C30.134 48 27 51.299 27 55.3684C27 59.4379 30.134 62.7368 34 62.7368Z" stroke="white" stroke-width="5" stroke-linecap="round" stroke-linejoin="round"/>
</svg>
