<svg width="352" height="284" viewBox="0 0 352 284" fill="none" xmlns="http://www.w3.org/2000/svg">
<g id="undraw_Savings_re_eq4w 1" clip-path="url(#clip0)">
<rect id="Rectangle 148" width="352" height="284" fill="white"/>
<path id="Vector" d="M200.528 251.249C198.094 247.838 194.799 245.342 190.657 244.408C187.045 243.594 183.33 243.733 179.659 243.761L133.231 244.119C129.255 244.15 125.443 247.597 125.627 251.728C125.811 255.825 128.969 259.37 133.231 259.338C146.831 259.233 160.431 259.128 174.031 259.023C177.237 258.998 180.446 258.94 183.652 258.951C184.372 258.953 185.089 258.991 185.808 258.999C185.983 259.001 186.109 259 186.197 258.996C186.22 259.003 186.238 259.009 186.267 259.017C186.643 259.12 187.028 259.191 187.405 259.289C187.273 259.293 187.65 259.528 187.839 259.608C187.865 259.659 187.921 259.75 188.013 259.891C188.143 260.134 188.525 260.87 188.541 260.847C189.116 262.302 189.59 263.794 189.961 265.314C190.844 268.665 191.038 269.366 191.166 272.51C191.326 276.482 194.548 280.309 198.769 280.119C202.751 279.941 206.546 276.77 206.373 272.51C206.083 265.332 204.824 257.268 200.528 251.249Z" fill="#E6E6E6"/>
<path id="Vector_2" d="M135.96 268.419C135.088 263.131 134.233 257.839 133.344 252.554C132.442 247.192 130.6 242.283 126.43 238.764C125.316 237.824 124.161 236.946 123.001 236.071C122.593 235.763 122.186 235.455 121.783 235.141C121.759 235.122 121.743 235.11 121.722 235.094C121.678 235.056 121.625 235.01 121.553 234.95C119.816 233.478 118.136 231.941 116.537 230.307C115.117 228.855 113.758 227.342 112.462 225.767C112.138 225.374 111.818 224.977 111.503 224.577C111.448 224.508 111.156 224.13 110.963 223.883C110.784 223.636 110.457 223.19 110.402 223.112C110.033 222.59 109.671 222.064 109.315 221.532C106.893 217.901 104.796 214.063 103.048 210.064C102.875 209.667 102.706 209.268 102.54 208.867C102.496 208.744 102.439 208.587 102.363 208.377C102.01 207.408 101.659 206.44 101.337 205.459C100.653 203.376 100.064 201.261 99.5718 199.117C99.3284 198.057 99.1093 196.993 98.9144 195.923C98.814 195.373 98.72 194.822 98.6325 194.269C98.6181 194.177 98.5327 193.581 98.4824 193.245C98.4452 192.906 98.3761 192.307 98.3668 192.214C98.3111 191.658 98.2617 191.1 98.2185 190.542C98.1213 189.287 98.0556 188.029 98.0213 186.769C97.9628 184.53 98.0029 182.292 98.1415 180.053C98.2204 178.796 98.3327 177.541 98.471 176.289C98.4794 176.212 98.4859 176.151 98.4919 176.096C98.5003 176.04 98.51 175.976 98.5216 175.897C98.6239 175.205 98.7316 174.514 98.8521 173.825C99.3081 171.21 99.9013 168.62 100.629 166.067C100.974 164.86 101.348 163.662 101.752 162.474C101.932 161.947 102.118 161.421 102.309 160.898C102.297 160.932 102.871 159.464 102.879 159.415C105.158 154.027 108.885 149.115 108.89 142.995C108.893 138.851 105.39 134.882 101.286 135.073C99.2399 135.15 97.3035 136.019 95.885 137.497C94.4665 138.975 93.6768 140.946 93.6822 142.995C93.6822 143.088 93.6817 143.167 93.6815 143.244C93.6432 143.373 93.6112 143.481 93.5824 143.576C93.138 144.543 92.5936 145.461 92.1058 146.403C90.7702 148.982 89.6301 151.646 88.5471 154.349C86.7742 158.751 85.4171 163.309 84.4936 167.964C82.4864 178.163 82.3306 188.641 84.0337 198.895C86.9819 216.878 96.7044 234.092 110.221 245.663C111.394 246.667 112.596 247.637 113.808 248.588C114.31 248.981 114.816 249.367 115.325 249.751C115.566 249.932 116.562 250.718 116.123 250.338C117.066 251.142 117.462 251.547 117.704 252.14C117.739 252.277 117.787 252.462 117.852 252.716C118.022 253.384 118.184 254.051 118.319 254.729C119.495 260.65 120.313 266.671 121.296 272.631C121.971 276.726 127.009 279.391 130.65 278.164C134.887 276.735 136.684 272.807 135.96 268.419Z" fill="#E6E6E6"/>
<path id="Vector_3" d="M201.297 283.779C198.104 283.787 195.037 282.528 192.771 280.276C190.504 278.025 189.223 274.966 189.207 271.771V263.091C180.126 264.108 149.029 263.872 140.115 262.439V271.424C140.091 274.617 138.806 277.671 136.542 279.92C134.277 282.17 131.215 283.432 128.024 283.432C124.834 283.432 121.772 282.17 119.507 279.92C117.242 277.671 115.958 274.617 115.934 271.424V253.784C103.861 247.072 93.7963 237.258 86.7787 225.354C79.7612 213.45 76.0451 199.888 76.0139 186.068C76.0139 162.37 86.7462 140.263 105.459 125.416C117.626 115.73 132.409 109.905 147.909 108.689C150.013 108.524 152.13 108.44 154.201 108.44C161.497 108.44 194.415 109.568 202.674 111.946L221.507 93.2455C221.784 92.9669 222.138 92.7771 222.523 92.7003C222.908 92.6235 223.307 92.6632 223.669 92.8143C224.035 92.9597 224.347 93.2122 224.567 93.5387C224.786 93.8652 224.901 94.2504 224.898 94.6437V97.617L228.565 93.9826C228.841 93.7037 229.194 93.5136 229.579 93.4366C229.964 93.3597 230.363 93.3994 230.725 93.5507C231.091 93.696 231.404 93.9486 231.624 94.2752C231.843 94.6018 231.959 94.9872 231.955 95.3808V128.606C241.405 137.132 248.608 147.858 252.925 159.835C257.241 171.812 258.539 184.67 256.703 197.269C254.866 209.867 249.953 221.818 242.397 232.063C234.841 242.307 224.877 250.527 213.387 255.996V271.771C213.372 274.966 212.09 278.025 209.823 280.276C207.557 282.528 204.491 283.787 201.297 283.779V283.779ZM190.158 262.012V271.771C190.181 274.711 191.366 277.524 193.452 279.595C195.539 281.665 198.358 282.828 201.297 282.828C204.236 282.828 207.056 281.665 209.142 279.595C211.229 277.524 212.413 274.711 212.437 271.771V255.396L212.708 255.267C225.6 249.145 236.545 239.567 244.326 227.597C254.242 212.322 258.366 194 255.951 175.946C253.537 157.893 244.743 141.3 231.163 129.173L231.005 129.031V95.3807C231.008 95.1763 230.949 94.9757 230.835 94.806C230.721 94.6363 230.557 94.5057 230.367 94.4317C230.178 94.3507 229.968 94.3288 229.766 94.3689C229.564 94.4091 229.379 94.5094 229.235 94.6567L223.947 99.8977V94.6437C223.951 94.4392 223.891 94.2386 223.777 94.069C223.663 93.8993 223.5 93.7686 223.31 93.6946C223.12 93.6137 222.91 93.5921 222.708 93.6325C222.505 93.673 222.32 93.7736 222.176 93.9213L202.94 113.022L202.667 112.936C194.989 110.531 161.552 109.391 154.201 109.391C152.154 109.391 150.063 109.474 147.984 109.637C132.672 110.838 118.069 116.593 106.05 126.161C87.5655 140.827 76.9643 162.662 76.9643 186.068C76.9959 199.766 80.6921 213.206 87.6691 224.992C94.6461 236.777 104.649 246.479 116.639 253.088L116.885 253.224V271.424C116.909 274.364 118.094 277.176 120.18 279.246C122.266 281.317 125.086 282.478 128.024 282.478C130.963 282.478 133.782 281.317 135.869 279.246C137.955 277.176 139.14 274.364 139.164 271.424V261.301L139.727 261.407C147.738 262.915 181.469 263.153 189.62 262.083L190.158 262.012Z" fill="#981A17"/>
<path id="Vector_4" d="M136.869 56.6486L84.2402 72.4757C82.5663 72.9811 81.1613 74.1308 80.3339 75.6722C79.5066 77.2136 79.3245 79.0206 79.8276 80.6962C80.3308 82.3719 81.4781 83.7792 83.0175 84.6088C84.5569 85.4385 86.3625 85.6228 88.0375 85.1211L134.093 71.2677L135.058 70.9776C135.253 66.0024 136.602 61.1409 138.998 56.777C138.697 56.6417 138.376 56.558 138.047 56.5297C137.65 56.4913 137.25 56.5317 136.869 56.6486Z" fill="#FFB8B8"/>
<path id="Vector_5" d="M87.1274 88.496C86.4288 88.4943 85.7484 88.2729 85.1823 87.8632C84.6162 87.4535 84.1931 86.8761 83.9728 86.2126L80.6819 76.2751C80.5444 75.8601 80.49 75.4221 80.5217 74.986C80.5535 74.55 80.6707 74.1244 80.8668 73.7338C81.0629 73.3431 81.334 72.9949 81.6646 72.709C81.9951 72.4232 82.3787 72.2053 82.7935 72.0678L125.628 57.8624C126.042 57.7249 126.48 57.6704 126.916 57.7021C127.351 57.7338 127.777 57.8511 128.167 58.0473C128.557 58.2434 128.905 58.5146 129.191 58.8454C129.477 59.1761 129.695 59.5599 129.832 59.9749L133.123 69.9124C133.397 70.7298 133.342 71.6217 132.97 72.3993C132.598 73.1768 131.938 73.779 131.13 74.0781C131.091 74.093 131.051 74.107 131.01 74.1201L88.1771 88.3251C87.8386 88.438 87.4842 88.4957 87.1274 88.496Z" fill="#FE1F1A"/>
<path id="Vector_6" d="M167.346 39C158.701 39.0033 150.396 42.3728 144.19 48.3953C137.983 54.4178 134.362 62.6206 134.093 71.2676C134.084 71.6052 134.079 71.9477 134.079 72.2901C134.079 78.8742 136.03 85.3105 139.685 90.785C143.341 96.2596 148.536 100.526 154.615 103.046C160.694 105.566 167.383 106.225 173.836 104.94C180.289 103.656 186.217 100.485 190.869 95.8297C195.522 91.174 198.69 85.2423 199.974 78.7846C201.257 72.327 200.598 65.6335 198.081 59.5505C195.563 53.4676 191.299 48.2684 185.828 44.6104C180.357 40.9524 173.925 39 167.346 39V39ZM167.346 104.629C158.778 104.62 150.563 101.21 144.505 95.1473C138.446 89.0845 135.038 80.8641 135.029 72.2901C135.029 71.8478 135.039 71.4103 135.058 70.9775C135.315 64.6428 137.428 58.5235 141.133 53.3806C144.837 48.2376 149.971 44.2979 155.896 42.0514C161.82 39.8048 168.274 39.3505 174.454 40.7449C180.635 42.1393 186.269 45.3209 190.657 49.8942C195.045 54.4674 197.993 60.2305 199.134 66.4667C200.275 72.703 199.559 79.1373 197.075 84.9697C194.591 90.802 190.449 95.7751 185.163 99.2704C179.877 102.766 173.681 104.629 167.346 104.629V104.629Z" fill="#981A17"/>
<path id="Vector_7" d="M195.385 72.2911C195.385 79.7327 192.431 86.8696 187.173 92.1316C181.914 97.3937 174.782 100.35 167.346 100.35C159.909 100.35 152.777 97.3937 147.519 92.1316C142.261 86.8696 139.307 79.7327 139.307 72.2911C139.307 71.4018 139.349 70.5267 139.43 69.6612C140.106 62.4792 143.52 55.8336 148.963 51.1042C154.406 46.3747 161.461 43.9249 168.661 44.2633C175.862 44.6018 182.656 47.7025 187.632 52.9216C192.609 58.1408 195.385 65.0774 195.385 72.2911V72.2911Z" fill="#E6E6E6"/>
<path id="Vector_8" d="M88.6548 128.772C87.9202 128.77 87.2064 128.527 86.6243 128.078C86.0421 127.63 85.6241 127.002 85.435 126.291L83.6433 119.505C83.419 118.652 83.542 117.745 83.9853 116.982C84.4285 116.22 85.1558 115.664 86.0077 115.438L142.533 100.491C143.386 100.268 144.293 100.393 145.054 100.837C145.816 101.281 146.371 102.009 146.597 102.862L148.115 108.611L147.831 108.633C133.334 109.761 119.463 115.021 107.859 123.79L107.777 123.83L89.4988 128.662C89.2234 128.735 88.9397 128.772 88.6548 128.772V128.772Z" fill="#FE1F1A"/>
<path id="tail" d="M79.293 162.293C72.6623 161.312 66.3207 158.913 60.7005 155.258C57.9162 153.448 55.3386 151.339 53.014 148.967C50.7196 146.625 48.5246 143.963 47.3882 140.845C46.2948 137.959 46.3511 134.763 47.5456 131.918C48.7238 129.091 50.9744 126.846 53.8039 125.676C56.6505 124.54 60.0896 124.419 62.8599 125.663C64.18 126.242 65.3223 127.162 66.1696 128.329C66.5635 128.867 66.8551 129.473 67.0299 130.116C67.1922 130.699 67.207 131.314 67.0729 131.904C66.9104 132.493 66.624 133.041 66.2327 133.51C65.8414 133.98 65.3543 134.36 64.8041 134.625C63.5933 135.247 62.2813 135.648 60.9299 135.808C59.5707 135.993 57.6181 136.162 56.5254 135.07C56.3004 134.854 56.1235 134.593 56.0061 134.304C55.924 134.083 55.8959 133.845 55.9242 133.611C55.9083 133.714 55.9901 133.386 55.9855 133.399C55.9682 133.448 55.8933 133.566 55.9997 133.384C56.033 133.325 56.07 133.267 56.1105 133.212C56.0744 133.258 55.9951 133.336 56.1367 133.203C56.2538 133.074 56.4042 132.981 56.5712 132.934C56.637 132.915 56.7037 132.9 56.7697 132.882C56.9373 132.836 56.6026 132.884 56.7741 132.879C56.8403 132.877 56.9073 132.878 56.9732 132.875C57.1415 132.868 56.8073 132.829 56.9685 132.87C57.0311 132.886 57.0931 132.901 57.1548 132.921C57.2888 132.963 57.0598 132.822 57.1507 132.927C57.2571 133.051 57.0389 132.807 57.1599 132.927C57.2201 132.986 57.2769 133.049 57.3299 133.114C57.5397 133.322 57.8227 133.438 58.1176 133.438C58.4125 133.438 58.6955 133.322 58.9053 133.114C59.108 132.902 59.2211 132.62 59.2211 132.326C59.2211 132.032 59.108 131.75 58.9053 131.538C57.8068 130.175 55.6371 130.512 54.5258 131.664C53.1087 133.132 53.6699 135.46 55.0484 136.742C56.6089 138.193 58.8191 138.293 60.8265 138.05C62.523 137.887 64.1763 137.42 65.7069 136.67C67.2277 135.922 68.4172 134.636 69.045 133.061C69.3284 132.221 69.4302 131.329 69.3437 130.447C69.2571 129.564 68.9842 128.709 68.5429 127.94C66.7706 124.606 63.1007 122.896 59.4732 122.6C57.6056 122.454 55.7276 122.679 53.9477 123.264C52.1678 123.849 50.5215 124.781 49.104 126.006C46.3719 128.468 44.6895 131.886 44.4047 135.553C44.0881 139.356 45.5625 143.049 47.712 146.118C49.9624 149.236 52.6478 152.015 55.6863 154.371C61.6266 159.117 68.5945 162.405 76.0324 163.973C76.9171 164.156 77.8066 164.312 78.7008 164.443C78.9853 164.512 79.2854 164.469 79.54 164.325C79.7946 164.18 79.9845 163.944 80.0711 163.664C80.1475 163.379 80.1086 163.075 79.963 162.819C79.8174 162.562 79.5768 162.373 79.293 162.293L79.293 162.293Z" fill="#981A17"/>
<path id="Vector_9" d="M185.455 113.843C175.74 113.706 166.056 113.953 156.402 114.584C153.102 114.799 150.247 115.966 150.247 117.928C150.247 119.568 153.08 121.489 156.402 121.272C166.051 120.642 175.735 120.395 185.455 120.532C193.379 120.644 193.375 113.955 185.455 113.843Z" fill="#CCCCCC"/>
<path id="Vector_10" d="M171.096 120.201C170.046 120.201 145.383 120.162 145.383 116.753C145.383 113.344 170.046 113.305 171.096 113.305C172.146 113.305 196.81 113.344 196.81 116.753C196.81 120.162 172.146 120.201 171.096 120.201ZM146.347 116.753C147.022 117.786 156.088 119.25 171.096 119.25C186.105 119.25 195.17 117.786 195.845 116.753C195.17 115.719 186.105 114.256 171.096 114.256C156.088 114.256 147.022 115.719 146.347 116.753V116.753Z" fill="#981A17"/>
<path id="Vector_11" d="M249.347 209.824C254.806 209.672 261.601 209.482 266.836 205.656C268.395 204.469 269.676 202.956 270.589 201.223C271.502 199.489 272.025 197.577 272.121 195.619C272.228 192.597 271.137 189.959 269.049 188.194C266.315 185.882 262.322 185.34 258.02 186.605L262.477 154.005L259.205 153.557L253.964 191.882L256.697 190.627C259.865 189.173 264.214 188.433 266.917 190.718C267.58 191.315 268.097 192.058 268.427 192.888C268.758 193.718 268.892 194.613 268.82 195.503C268.74 196.96 268.347 198.382 267.669 199.673C266.99 200.965 266.042 202.095 264.888 202.986C260.814 205.964 255.398 206.348 249.255 206.52L249.347 209.824Z" fill="#981A17"/>
<path id="Vector_12" d="M240.299 156.816H222.51V160.122H240.299V156.816Z" fill="#981A17"/>
<path id="Vector_13" d="M96.7048 143.973C95.9129 143.97 95.1479 143.686 94.5466 143.17C93.9454 142.655 93.5473 141.942 93.4237 141.159L92.3378 134.224C92.2022 133.352 92.4179 132.462 92.9375 131.749C93.4571 131.035 94.2383 130.557 95.1095 130.42L152.866 121.364C153.738 121.228 154.628 121.444 155.34 121.964C156.053 122.484 156.53 123.266 156.668 124.137L157.754 131.072C157.889 131.944 157.674 132.835 157.154 133.548C156.634 134.261 155.853 134.739 154.982 134.877L97.2252 143.932C97.053 143.959 96.879 143.973 96.7048 143.973Z" fill="#FE1F1A"/>
<path id="Vector_14" d="M72.802 62.7056C86.1879 62.7056 97.0393 51.8467 97.0393 38.4515C97.0393 25.0562 86.1879 14.1973 72.802 14.1973C59.4161 14.1973 48.5646 25.0562 48.5646 38.4515C48.5646 51.8467 59.4161 62.7056 72.802 62.7056Z" fill="#FFB8B8"/>
<path id="Vector_15" d="M86.5248 44.7276C87.2994 44.4565 88.0071 44.0225 88.6001 43.4549C88.9925 43.0502 89.2917 42.5646 89.4768 42.032C89.6619 41.4994 89.7284 40.9328 89.6717 40.3718C89.6387 39.9719 89.5138 39.5851 89.3067 39.2416C89.0996 38.8981 88.8159 38.6071 88.4778 38.3915C87.6007 37.8517 86.4416 37.872 85.2714 38.4149L85.1363 28.9473L84.186 28.9608L84.3447 40.091L85.0682 39.6162C85.9071 39.0665 87.1126 38.6678 87.9798 39.2017C88.1943 39.343 88.3734 39.5319 88.503 39.7538C88.6326 39.9756 88.7094 40.2244 88.7273 40.4807C88.7673 40.8987 88.7169 41.3203 88.5794 41.717C88.4419 42.1137 88.2207 42.4761 87.9307 42.7795C86.9004 43.8025 85.3754 44.1453 83.6349 44.4588L83.8033 45.3948C84.7286 45.2542 85.6394 45.0309 86.5248 44.7276V44.7276Z" fill="#FE1F1A"/>
<path id="Vector_16" d="M94.9234 28.2837L89.8619 29.0508L90.0042 29.9911L95.0657 29.224L94.9234 28.2837Z" fill="#FE1F1A"/>
<path id="Vector_17" d="M78.9472 30.7036L73.8858 31.4707L74.0281 32.411L79.0895 31.6439L78.9472 30.7036Z" fill="#FE1F1A"/>
<path id="Vector_18" d="M88.8192 143.55C87.9475 143.548 87.0971 143.281 86.381 142.783C85.665 142.286 85.1173 141.582 84.8108 140.766L68.0998 95.9815C66.0573 90.489 66.2754 84.41 68.7062 79.0782C71.1371 73.7465 75.5822 69.5974 81.0664 67.5412L94.6543 62.4639C95.1798 62.2662 95.739 62.1745 96.3 62.194C96.861 62.2135 97.4126 62.3438 97.9231 62.5774C98.4323 62.8051 98.891 63.132 99.2726 63.5392C99.6541 63.9463 99.9507 64.4254 100.145 64.9486L131.101 123.436C131.302 123.964 131.396 124.526 131.379 125.09C131.363 125.654 131.234 126.209 131.002 126.724C130.77 127.238 130.438 127.702 130.027 128.087C129.615 128.473 129.131 128.773 128.602 128.971L90.3139 143.278C89.8359 143.458 89.3297 143.55 88.8192 143.55Z" fill="#FE1F1A"/>
<path id="Vector_19" d="M90.5317 64.0035L121.246 105.105L100.463 64.4349C100.291 63.9603 100.028 63.5243 99.6879 63.1516C99.3478 62.779 98.9377 62.477 98.481 62.263C98.0243 62.049 97.5299 61.9271 97.0261 61.9043C96.5223 61.8815 96.0189 61.9583 95.5448 62.1302L90.5317 64.0035Z" fill="#E6E6E6"/>
<path id="Vector_20" d="M139.164 95.2168L84.3235 91.6818C83.4591 91.6261 82.6141 91.4006 81.8368 91.0181C81.0594 90.6356 80.365 90.1036 79.7932 89.4525C79.2213 88.8015 78.7832 88.0441 78.5038 87.2236C78.2245 86.4031 78.1093 85.5356 78.165 84.6705C78.2207 83.8055 78.4461 82.9599 78.8283 82.1821C79.2106 81.4042 79.7421 80.7093 80.3927 80.1371C81.0434 79.5648 81.8002 79.1264 82.6202 78.8468C83.4401 78.5673 84.307 78.4521 85.1714 78.5078L140.012 82.0425C140.417 82.0686 140.813 82.1742 141.177 82.3533C141.541 82.5324 141.866 82.7815 142.134 83.0864C142.402 83.3913 142.607 83.746 142.738 84.1303C142.868 84.5145 142.922 84.9208 142.896 85.3259L142.446 92.3307C142.393 93.1488 142.017 93.9125 141.402 94.4538C140.787 94.995 139.982 95.2695 139.164 95.2168Z" fill="#FFB8B8"/>
<path id="Vector_21" d="M124.51 97.4839C124.438 97.4839 124.365 97.4816 124.292 97.4769H124.292L79.26 94.5743C78.824 94.5462 78.3979 94.4325 78.0058 94.2396C77.6138 94.0467 77.2635 93.7785 76.9751 93.4501C76.6867 93.1218 76.4657 92.7398 76.3248 92.326C76.1839 91.9122 76.1259 91.4746 76.154 91.0384L76.924 79.0738C76.9521 78.6376 77.0658 78.2111 77.2586 77.8188C77.4514 77.4265 77.7195 77.076 78.0477 76.7874C78.3759 76.4988 78.7576 76.2777 79.1712 76.1368C79.5847 75.9958 80.022 75.9377 80.4579 75.9659L125.49 78.8683C126.37 78.926 127.191 79.3307 127.774 79.9936C128.356 80.6565 128.652 81.5234 128.596 82.4042L127.826 94.369C127.783 95.0101 127.557 95.6253 127.174 96.1408C126.791 96.6563 126.267 97.0502 125.665 97.2751C125.296 97.4135 124.905 97.4842 124.51 97.4839V97.4839Z" fill="#FE1F1A"/>
<path id="Vector_22" d="M72.5241 22.3236C75.7126 19.5794 80.0912 22.0343 83.7478 21.6045C87.2461 21.1934 90.0084 18.0532 90.7141 14.7171C91.5374 10.825 89.5186 6.92572 86.5431 4.49908C83.2841 1.8413 78.962 1.07832 74.8662 1.57003C70.1719 2.13358 65.8788 4.32328 62.0266 6.97183C58.3083 9.44914 54.8889 12.3487 51.8366 15.6126C49.1034 18.6333 46.7877 22.2338 46.0483 26.2986C45.3763 29.9926 45.8894 34.0861 48.0716 37.2154C49.2288 38.8193 50.7795 40.0978 52.5742 40.9274C54.4454 41.8469 56.4415 42.5042 58.2543 43.5438C60.9954 45.1158 63.6595 48.3751 62.8009 51.7669C62.6168 52.5079 62.2535 53.1922 61.743 53.7596C61.1296 54.441 60.0232 53.5406 60.6382 52.8574C61.7184 51.6575 61.6758 50.0573 61.1002 48.6247C60.4157 47.0104 59.2036 45.6766 57.6625 44.8419C55.7649 43.7561 53.6698 43.086 51.7249 42.0971C49.8632 41.1937 48.2473 39.8536 47.0145 38.1908C44.6867 34.9536 43.9904 30.7405 44.5183 26.8431C45.0896 22.6256 47.2551 18.793 49.9696 15.5814C52.9238 12.0862 56.5527 9.1276 60.2598 6.46972C64.2376 3.61778 68.6323 1.20666 73.4953 0.334603C77.7108 -0.421338 82.2801 0.044067 85.9663 2.34291C89.4072 4.48874 92.0458 8.17998 92.3082 12.3046C92.4024 14.1813 91.9952 16.0492 91.1285 17.7161C90.2617 19.383 88.9668 20.7887 87.3769 21.7885C85.7456 22.7654 83.8489 23.2051 81.9544 23.0456C79.9291 22.9158 77.9019 22.2952 75.8637 22.4675C74.9414 22.5236 74.0624 22.8789 73.3601 23.4798C72.6634 24.0794 71.8332 22.9183 72.5241 22.3236V22.3236Z" fill="#FE1F1A"/>
<path id="Vector_23" d="M351.434 284H0.565874C0.416082 283.999 0.272577 283.939 0.166811 283.833C0.0610448 283.727 0.00164795 283.583 0.00164795 283.433C0.00164795 283.284 0.0610448 283.14 0.166811 283.034C0.272577 282.927 0.416082 282.868 0.565874 282.867H351.434C351.584 282.867 351.728 282.927 351.834 283.033C351.94 283.139 352 283.283 352 283.433C352 283.584 351.94 283.728 351.834 283.834C351.728 283.94 351.584 284 351.434 284V284Z" fill="#981A17"/>
<path id="rupee" d="M173.404 67.0556C173.699 67.0556 173.939 66.856 173.939 66.6097V65.1236C173.939 64.8774 173.699 64.6777 173.404 64.6777H160.216C159.921 64.6777 159.681 64.8774 159.681 65.1236V66.7862C159.681 67.0324 159.921 67.232 160.216 67.232H164.015C165.232 67.232 166.166 67.602 166.732 68.2445H160.216C159.921 68.2445 159.681 68.4442 159.681 68.6904V70.1765C159.681 70.4228 159.921 70.6224 160.216 70.6224H167.289C167.012 71.9631 165.821 72.8008 163.958 72.8008H160.216C159.921 72.8008 159.681 73.0004 159.681 73.2467V75.2163C159.681 75.3407 159.744 75.4595 159.853 75.5439L167.207 81.2045C167.306 81.2805 167.435 81.3228 167.57 81.3228H171.248C171.735 81.3228 171.968 80.8246 171.611 80.5493L164.888 75.3746C168.297 75.2877 170.731 73.3908 171.051 70.6224H173.404C173.699 70.6224 173.939 70.4228 173.939 70.1765V68.6904C173.939 68.4442 173.699 68.2445 173.404 68.2445H170.789C170.634 67.8157 170.42 67.418 170.154 67.0556H173.404Z" fill="#981A17"/>
</g>
<defs>
<clipPath id="clip0">
<rect width="352" height="284" fill="white"/>
</clipPath>
</defs>
</svg>
