<svg width="402" height="290" viewBox="0 0 402 290" fill="none" xmlns="http://www.w3.org/2000/svg">
<g id="undraw_doctor_kw5l 1" clip-path="url(#clip0)">
<rect id="Rectangle 149" width="402" height="290" fill="white"/>
<path id="Vector" opacity="0.1" d="M233.569 51.1436C207.797 50.2469 183.232 41.9175 159.811 32.8062C136.39 23.695 113.176 13.5982 88.0075 8.77019C71.8258 5.66147 53.3197 5.22425 40.284 13.9094C27.7369 22.2648 23.6841 36.6894 21.5041 50.0728C19.8644 60.1437 18.9132 70.7408 23.3954 80.1707C26.5155 86.7142 32.0525 92.2165 35.8833 98.4858C49.2077 120.299 39.7881 147.199 25.3459 168.515C18.5727 178.52 10.715 188.038 5.48893 198.676C0.26281 209.314 -2.15778 221.501 2.41692 232.35C6.95091 243.095 17.7511 251.18 29.4543 256.86C53.2235 268.387 81.2306 271.685 108.542 273.574C168.997 277.713 229.779 275.92 290.394 274.126C312.827 273.46 335.36 272.789 357.426 269.31C369.681 267.379 382.335 264.319 391.233 256.93C402.526 247.549 405.327 231.668 397.758 219.904C385.063 200.177 349.965 195.275 341.089 174.103C336.207 162.45 341.222 149.467 348.321 138.658C363.544 115.474 389.068 95.1325 390.412 68.6288C391.337 50.4248 379.067 32.1986 360.095 23.5838C340.212 14.5467 312.638 15.6879 297.97 30.6238C282.865 46.0118 256.32 51.9328 233.569 51.1436Z" fill="#FE1F1A"/>
<path id="stem-1" d="M89.662 268.647C89.662 268.647 69.3053 253.241 65.4598 233.644C63.9003 225.413 59.7173 217.91 53.5381 212.261C50.5822 209.603 47.3895 207.222 44.0001 205.146" stroke="#535461" stroke-width="2" stroke-miterlimit="10"/>
<path id="leaf15" d="M41.5092 192.799C43.2932 195.215 44.1001 205.453 44.1001 205.453C44.1001 205.453 34.562 201.692 32.7743 199.28C31.9159 198.12 31.5528 196.667 31.7648 195.239C31.9769 193.812 32.7467 192.527 33.9051 191.667C35.0634 190.808 36.5153 190.445 37.9413 190.657C39.3674 190.869 40.6508 191.64 41.5092 192.799V192.799Z" fill="#FE1F1A"/>
<path id="leaf14" d="M58.6161 200.832C58.8012 203.829 53.9267 212.863 53.9267 212.863C53.9267 212.863 47.9566 204.511 47.7679 201.513C47.6961 200.084 48.1896 198.684 49.1416 197.617C50.0936 196.55 51.4274 195.901 52.8538 195.811C54.2803 195.722 55.6846 196.198 56.7625 197.138C57.8404 198.078 58.505 199.405 58.6124 200.832H58.6161Z" fill="#FE1F1A"/>
<path id="leaf13" d="M75.1975 223.924C73.8503 226.607 65.0821 231.942 65.0821 231.942C65.0821 231.942 64.1457 221.716 65.493 219.033C66.1562 217.772 67.2876 216.821 68.6438 216.386C69.9999 215.951 71.4724 216.067 72.7443 216.708C74.0163 217.349 74.986 218.464 75.4448 219.814C75.9036 221.163 75.8148 222.639 75.1975 223.924V223.924Z" fill="#FE1F1A"/>
<path id="leaf12" d="M83.8176 244.213C82.9404 247.085 75.2012 253.825 75.2012 253.825C75.2012 253.825 72.5474 243.906 73.4246 241.03C73.8462 239.651 74.7981 238.495 76.0707 237.818C77.3434 237.141 78.8326 236.998 80.2108 237.42C81.589 237.842 82.7433 238.795 83.4197 240.069C84.0961 241.343 84.2392 242.834 83.8176 244.213V244.213Z" fill="#FE1F1A"/>
<path id="leaf11" d="M45.1029 220.126C48.0639 220.526 57.4243 216.294 57.4243 216.294C57.4243 216.294 49.5259 209.744 46.5501 209.343C45.1218 209.151 43.6758 209.535 42.5302 210.41C41.3846 211.285 40.6331 212.58 40.4412 214.01C40.2493 215.44 40.6327 216.888 41.5069 218.034C42.3811 219.181 43.6747 219.934 45.1029 220.126V220.126Z" fill="#FE1F1A"/>
<path id="leaf10" d="M55.485 243.732C58.4459 243.224 66.0963 236.388 66.0963 236.388C66.0963 236.388 56.599 232.505 53.6417 233.013C52.9337 233.129 52.2557 233.384 51.6468 233.764C51.0379 234.144 50.5102 234.641 50.0941 235.226C49.678 235.811 49.3819 236.473 49.2227 237.173C49.0635 237.874 49.0445 238.599 49.1667 239.307C49.2888 240.014 49.5499 240.691 49.9346 241.297C50.3194 241.903 50.8203 242.427 51.4084 242.839C51.9965 243.25 52.6602 243.541 53.3611 243.694C54.0621 243.848 54.7864 243.86 55.4924 243.732H55.485Z" fill="#FE1F1A"/>
<path id="leaf9" d="M68.7168 265.293C71.7184 265.293 80.4163 259.85 80.4163 259.85C80.4163 259.85 71.7147 254.414 68.713 254.414C67.272 254.414 65.89 254.987 64.8711 256.007C63.8521 257.027 63.2797 258.411 63.2797 259.853C63.2797 261.296 63.8521 262.68 64.8711 263.7C65.89 264.72 67.272 265.293 68.713 265.293H68.7168Z" fill="#FE1F1A"/>
<path id="stem-3" d="M287.418 135.393C287.418 135.393 299.965 113.143 318.878 106.733C326.82 104.092 333.693 98.9452 338.465 92.0635C340.703 88.7735 342.635 85.2846 344.235 81.6406" stroke="#535461" stroke-width="2" stroke-miterlimit="10"/>
<path id="Vector_2" d="M310.835 126.353C307.874 125.864 300.191 119.065 300.191 119.065C300.191 119.065 309.662 115.115 312.619 115.604C314.043 115.839 315.315 116.63 316.156 117.803C316.997 118.976 317.337 120.436 317.103 121.861C316.869 123.286 316.079 124.559 314.907 125.401C313.735 126.243 312.277 126.584 310.854 126.35L310.835 126.353Z" fill="#FE1F1A"/>
<path id="Vector_3" d="M307.545 98.1739C308.441 101.042 316.228 107.73 316.228 107.73C316.228 107.73 318.819 97.7922 317.916 94.9244C317.447 93.5956 316.482 92.5007 315.224 91.8701C313.965 91.2395 312.511 91.1224 311.168 91.5436C309.825 91.9647 308.697 92.8912 308.023 94.1279C307.349 95.3646 307.18 96.8151 307.552 98.1739H307.545Z" fill="#FE1F1A"/>
<path id="Vector_4" d="M287.977 114.17C288.376 117.134 294.92 125.052 294.92 125.052C294.92 125.052 299.143 115.696 298.744 112.721C298.664 112 298.442 111.302 298.089 110.669C297.736 110.035 297.261 109.479 296.69 109.032C296.12 108.585 295.465 108.257 294.766 108.067C294.067 107.877 293.337 107.829 292.619 107.925C291.901 108.022 291.21 108.261 290.585 108.63C289.961 108.998 289.417 109.487 288.984 110.069C288.552 110.651 288.24 111.313 288.067 112.017C287.894 112.722 287.863 113.453 287.977 114.17V114.17Z" fill="#FE1F1A"/>
<g id="leaf8">
<path id="Vector_5" d="M356.108 77.5667C353.954 79.6564 343.928 81.8203 343.928 81.8203C343.928 81.8203 346.389 71.8532 348.543 69.7597C349.583 68.7851 350.963 68.2583 352.387 68.2926C353.811 68.3269 355.165 68.9195 356.156 69.943C357.148 70.9664 357.699 72.3388 357.69 73.7647C357.681 75.1905 357.113 76.5558 356.108 77.5667Z" fill="#FE1F1A"/>
<path id="Vector_6" opacity="0.25" d="M356.108 77.5667C353.954 79.6564 343.928 81.8203 343.928 81.8203C343.928 81.8203 346.389 71.8532 348.543 69.7597C349.583 68.7851 350.963 68.2583 352.387 68.2926C353.811 68.3269 355.165 68.9195 356.156 69.943C357.148 70.9664 357.699 72.3388 357.69 73.7647C357.681 75.1905 357.113 76.5558 356.108 77.5667Z" fill="black"/>
</g>
<g id="leaf7">
<path id="Vector_7" d="M350.438 95.5838C347.477 96.1692 337.902 92.5306 337.902 92.5306C337.902 92.5306 345.379 85.4906 348.321 84.9163C349.028 84.7593 349.758 84.7453 350.471 84.8749C351.183 85.0045 351.862 85.2752 352.468 85.6711C353.074 86.067 353.595 86.5802 354 87.1804C354.405 87.7806 354.687 88.4559 354.828 89.1665C354.969 89.8771 354.966 90.6087 354.821 91.3185C354.676 92.0282 354.39 92.7017 353.982 93.2995C353.573 93.8973 353.049 94.4073 352.44 94.7995C351.832 95.1918 351.151 95.4584 350.438 95.5838V95.5838Z" fill="#FE1F1A"/>
<path id="Vector_8" opacity="0.25" d="M350.438 95.5838C347.477 96.1692 337.902 92.5306 337.902 92.5306C337.902 92.5306 345.379 85.4906 348.321 84.9163C349.028 84.7593 349.758 84.7453 350.471 84.8749C351.183 85.0045 351.862 85.2752 352.468 85.6711C353.074 86.067 353.595 86.5802 354 87.1804C354.405 87.7806 354.687 88.4559 354.828 89.1665C354.969 89.8771 354.966 90.6087 354.821 91.3185C354.676 92.0282 354.39 92.7017 353.982 93.2995C353.573 93.8973 353.049 94.4073 352.44 94.7995C351.832 95.1918 351.151 95.4584 350.438 95.5838V95.5838Z" fill="black"/>
</g>
<g id="leaf6">
<path id="Vector_9" d="M329.8 115.103C326.965 114.121 320.521 106.133 320.521 106.133C320.521 106.133 330.515 103.843 333.357 104.825C334.04 105.052 334.671 105.412 335.214 105.885C335.757 106.358 336.2 106.934 336.519 107.58C336.837 108.226 337.024 108.929 337.069 109.648C337.114 110.367 337.016 111.087 336.781 111.768C336.545 112.449 336.177 113.076 335.697 113.613C335.218 114.15 334.636 114.586 333.987 114.896C333.338 115.207 332.633 115.385 331.914 115.42C331.196 115.456 330.477 115.348 329.8 115.103V115.103Z" fill="#FE1F1A"/>
<path id="Vector_10" opacity="0.25" d="M329.8 115.103C326.965 114.121 320.521 106.133 320.521 106.133C320.521 106.133 330.515 103.843 333.357 104.825C334.04 105.052 334.671 105.412 335.214 105.885C335.757 106.358 336.2 106.934 336.519 107.58C336.837 108.226 337.024 108.929 337.069 109.648C337.114 110.367 337.016 111.087 336.781 111.768C336.545 112.449 336.177 113.076 335.697 113.613C335.218 114.15 334.636 114.586 333.987 114.896C333.338 115.207 332.633 115.385 331.914 115.42C331.196 115.456 330.477 115.348 329.8 115.103V115.103Z" fill="black"/>
</g>
<path id="Vector_11" opacity="0.25" d="M310.835 126.353C307.874 125.864 300.191 119.065 300.191 119.065C300.191 119.065 309.662 115.115 312.619 115.604C314.043 115.839 315.315 116.63 316.156 117.803C316.997 118.976 317.337 120.436 317.103 121.861C316.869 123.286 316.079 124.559 314.907 125.401C313.735 126.243 312.277 126.584 310.854 126.35L310.835 126.353Z" fill="black"/>
<g id="leaf5">
<path id="Vector_12" d="M329.542 84.7383C329.538 87.7433 334.982 96.4618 334.982 96.4618C334.982 96.4618 340.419 87.7544 340.419 84.7532C340.438 84.0272 340.312 83.3047 340.047 82.6284C339.783 81.9521 339.386 81.3357 338.88 80.8155C338.373 80.2953 337.768 79.8819 337.1 79.5996C336.431 79.3173 335.713 79.1719 334.988 79.1719C334.262 79.1719 333.544 79.3173 332.876 79.5996C332.207 79.8819 331.602 80.2953 331.096 80.8155C330.59 81.3357 330.193 81.9521 329.928 82.6284C329.664 83.3047 329.537 84.0272 329.556 84.7532L329.542 84.7383Z" fill="#FE1F1A"/>
<path id="Vector_13" opacity="0.25" d="M329.542 84.7383C329.538 87.7433 334.982 96.4618 334.982 96.4618C334.982 96.4618 340.419 87.7544 340.419 84.7532C340.438 84.0272 340.312 83.3047 340.047 82.6284C339.783 81.9521 339.386 81.3357 338.88 80.8155C338.373 80.2953 337.768 79.8819 337.1 79.5996C336.431 79.3173 335.713 79.1719 334.988 79.1719C334.262 79.1719 333.544 79.3173 332.876 79.5996C332.207 79.8819 331.602 80.2953 331.096 80.8155C330.59 81.3357 330.193 81.9521 329.928 82.6284C329.664 83.3047 329.537 84.0272 329.556 84.7532L329.542 84.7383Z" fill="black"/>
</g>
<path id="Vector_14" opacity="0.25" d="M307.545 98.1739C308.441 101.042 316.228 107.73 316.228 107.73C316.228 107.73 318.819 97.7922 317.916 94.9244C317.447 93.5956 316.482 92.5007 315.224 91.8701C313.965 91.2395 312.511 91.1224 311.168 91.5436C309.825 91.9647 308.697 92.8912 308.023 94.1279C307.349 95.3646 307.18 96.8151 307.552 98.1739H307.545Z" fill="black"/>
<path id="Vector_15" opacity="0.25" d="M287.977 114.17C288.376 117.134 294.92 125.052 294.92 125.052C294.92 125.052 299.143 115.696 298.744 112.721C298.664 112 298.442 111.302 298.089 110.669C297.736 110.035 297.261 109.479 296.69 109.032C296.12 108.585 295.465 108.257 294.766 108.067C294.067 107.877 293.337 107.829 292.619 107.925C291.901 108.022 291.21 108.261 290.585 108.63C289.961 108.998 289.417 109.487 288.984 110.069C288.552 110.651 288.24 111.313 288.067 112.017C287.894 112.722 287.863 113.453 287.977 114.17V114.17Z" fill="black"/>
<path id="stem-2" d="M288.14 134.952C288.14 134.952 290.605 109.519 305.284 95.9952C311.475 90.3589 315.675 82.8654 317.253 74.6381C317.972 70.7269 318.33 66.758 318.323 62.7812" stroke="#535461" stroke-width="2" stroke-miterlimit="10"/>
<path id="leaf4" d="M327.524 54.2C326.414 56.9864 318.108 63.0333 318.108 63.0333C318.108 63.0333 316.324 52.9217 317.446 50.1353C317.986 48.7974 319.034 47.7289 320.361 47.165C321.688 46.6012 323.184 46.588 324.521 47.1285C325.857 47.669 326.924 48.7188 327.488 50.0471C328.051 51.3753 328.064 52.8732 327.524 54.2111V54.2Z" fill="#FE1F1A"/>
<path id="leaf3" d="M329.638 72.9946C327.184 74.7212 316.942 75.2882 316.942 75.2882C316.942 75.2882 320.932 65.8249 323.386 64.0982C323.968 63.6622 324.632 63.3475 325.337 63.1728C326.043 62.9981 326.776 62.9669 327.494 63.081C328.212 63.1952 328.9 63.4524 329.517 63.8374C330.133 64.2225 330.667 64.7275 331.085 65.3226C331.504 65.9177 331.798 66.5907 331.952 67.302C332.106 68.0132 332.116 68.7481 331.981 69.4631C331.846 70.1781 331.569 70.8588 331.166 71.4648C330.764 72.0707 330.244 72.5897 329.638 72.9909V72.9946Z" fill="#FE1F1A"/>
<path id="leaf2" d="M318.66 99.2197C315.669 99.4717 306.542 94.7734 306.542 94.7734C306.542 94.7734 314.759 88.6227 317.749 88.3707C319.185 88.2498 320.611 88.705 321.712 89.6362C322.812 90.5673 323.499 91.8981 323.619 93.3357C323.74 94.7734 323.285 96.2002 322.355 97.3023C321.425 98.4044 320.096 99.0914 318.66 99.2123V99.2197Z" fill="#FE1F1A"/>
<path id="Vector_16" d="M305.887 117.187C302.981 117.928 293.195 114.864 293.195 114.864C293.195 114.864 300.254 107.412 303.159 106.657C304.554 106.294 306.035 106.502 307.277 107.233C308.52 107.965 309.421 109.16 309.782 110.556C310.144 111.953 309.937 113.436 309.206 114.679C308.476 115.923 307.282 116.825 305.887 117.187V117.187Z" fill="#FE1F1A"/>
<path id="leaf1" d="M306.146 71.5555C307.36 74.3011 315.85 80.0776 315.85 80.0776C315.85 80.0776 317.294 69.9104 316.08 67.1648C315.475 65.8802 314.392 64.8835 313.063 64.3875C311.734 63.8915 310.263 63.9356 308.966 64.5104C307.669 65.0852 306.648 66.1451 306.121 67.4636C305.594 68.7821 305.603 70.2547 306.146 71.5666V71.5555Z" fill="#FE1F1A"/>
<path id="Vector_17" d="M291.474 92.757C293.454 95.0135 303.277 97.9703 303.277 97.9703C303.277 97.9703 301.619 87.8364 299.639 85.5799C299.172 85.0317 298.6 84.582 297.958 84.2569C297.315 83.9317 296.615 83.7376 295.896 83.6859C295.178 83.6342 294.457 83.7258 293.775 83.9555C293.092 84.1852 292.462 84.5484 291.922 85.0239C291.381 85.4994 290.939 86.0778 290.624 86.7255C290.308 87.3732 290.124 88.0773 290.082 88.7968C290.041 89.5163 290.142 90.2369 290.381 90.9168C290.62 91.5966 290.992 92.2221 291.474 92.757V92.757Z" fill="#FE1F1A"/>
<path id="Vector_18" d="M280.041 115.33C281.611 117.886 290.793 122.462 290.793 122.462C290.793 122.462 290.871 112.195 289.313 109.635C288.537 108.453 287.332 107.619 285.953 107.312C284.574 107.004 283.129 107.247 281.926 107.987C280.722 108.728 279.854 109.909 279.506 111.28C279.158 112.651 279.356 114.103 280.06 115.33H280.041Z" fill="#FE1F1A"/>
<path id="Vector_19" d="M269.263 35.3532C269.878 33.0967 270.618 30.8291 271.136 28.543C270.514 30.8291 269.77 33.1042 269.263 35.3532Z" fill="url(#paint0_linear)"/>
<path id="Vector_20" d="M266.51 57.0874C266.458 56.9985 266.421 56.9096 266.38 56.8281C266.38 56.791 266.343 56.7614 266.328 56.7243C266.248 56.7624 266.165 56.7958 266.08 56.8244C265.917 56.8873 265.751 56.9466 265.581 56.9948C265.41 57.043 265.34 57.0689 265.21 57.0985C265.103 57.1356 264.993 57.1641 264.881 57.1838L264.911 57.2505C265.048 57.2208 265.181 57.1949 265.318 57.1578L265.355 57.6173C265.51 57.6173 265.655 57.5951 265.795 57.5951C265.862 57.5914 265.929 57.5914 265.995 57.5951C266.284 57.5951 266.536 57.5951 266.735 57.5951C266.658 57.4283 266.576 57.2542 266.51 57.0874ZM341.644 176.816C339.905 174.47 336.433 149.297 336.433 149.297C336.433 149.297 329.604 131.397 331.466 124.253C333.328 117.109 326.38 98.831 326.38 98.831C326.38 98.831 321.791 96.8338 321.543 93.8696C321.543 93.8696 302.804 87.9412 301.927 83.4949C301.216 79.8489 289.594 77.233 285.419 76.4067C284.146 71.2638 282.865 66.4655 281.921 63.8458C281.666 63.0307 281.426 62.3267 281.203 61.7709C279.608 57.6951 274.678 57.3246 271.103 57.6506C270.948 56.956 270.66 56.2979 270.255 55.7128C270.196 55.5116 270.079 55.3324 269.918 55.1977C269.842 55.1323 269.76 55.0728 269.674 55.0199C269.609 54.8998 269.524 54.792 269.422 54.7012C269.321 54.6096 269.209 54.5301 269.089 54.4641C269.003 54.4175 268.914 54.3767 268.823 54.3418C268.608 54.2601 268.387 54.1992 268.16 54.1603C267.897 54.106 267.63 54.0713 267.361 54.0565C268.014 53.7704 268.597 53.3442 269.067 52.8078C269.387 52.4313 269.625 51.9922 269.767 51.5184C269.884 51.1244 269.936 50.7139 269.922 50.3031C269.826 50.4724 269.715 50.6324 269.589 50.7811C269.744 49.1396 268.878 47.4723 268.382 45.8382C267.782 43.711 267.67 41.475 268.057 39.2984C268.553 36.0156 269.781 32.6957 270.614 29.3535C270.616 29.335 270.616 29.3164 270.614 29.2979C271.051 27.6381 271.321 25.9389 271.421 24.2254C271.565 20.7684 270.681 17.3188 269.26 14.1693C267.997 11.3793 266.136 8.63366 263.286 7.49985C261.169 6.64394 258.796 6.78103 256.516 6.64023C251.401 6.32158 246.523 4.52082 241.66 2.88309C236.796 1.24536 231.792 -0.244154 226.673 0.0411519C221.555 0.326457 216.288 2.79787 213.952 7.33311C213.212 8.74853 212.786 10.3233 211.902 11.6535C210.244 14.1619 207.275 15.418 204.799 17.1484C202.323 18.8787 200.143 21.3353 199.247 24.2662C198.758 25.8452 198.689 27.5247 199.048 29.1386V29.1386C199.128 29.5031 199.232 29.862 199.358 30.2131C199.71 31.1922 200.258 32.0887 200.969 32.8476C201.505 33.4084 202.121 33.8866 202.797 34.2667V34.2667C203.646 34.7379 204.555 35.0919 205.499 35.319C205.465 35.4301 205.432 35.5487 205.395 35.6636C205.336 35.8525 205.284 36.0341 205.229 36.2379C205.106 36.6936 204.992 37.1568 204.896 37.6237C204.892 37.6569 204.892 37.6905 204.896 37.7237C204.441 39.8313 204.213 41.9814 204.214 44.1375C204.214 45.1572 204.266 46.1763 204.37 47.1907V47.1907C205.85 62.2266 218.249 74.0872 233.569 74.8579C234.094 74.8838 234.624 74.8986 235.16 74.8986C235.405 74.8986 235.645 74.8986 235.901 74.8986C236.141 75.2173 236.378 75.5434 236.604 75.862C236.83 76.1807 237.037 76.5067 237.233 76.8254L236.696 76.2696L236.16 75.7768C236.014 75.9767 235.852 76.1639 235.675 76.3363C235.325 76.213 234.968 76.1116 234.605 76.0324V76.0324C233.069 75.6916 230.73 75.5656 227.651 76.4956C224.819 77.3441 221.359 79.0893 217.309 82.4055L197.578 94.2624L186.904 100.761L183.058 110.173C183.058 110.173 180.168 121.355 176.951 134.168C176.825 134.205 176.703 134.242 176.581 134.287C176.321 134.257 176.059 134.242 175.797 134.242C173.93 134.238 172.135 134.958 170.788 136.25C169.441 137.543 168.646 139.308 168.572 141.175C162.176 148.956 161.813 156.737 163.316 160.309C163.452 160.643 163.623 160.963 163.827 161.261C164.811 162.684 166.651 166.352 168.516 170.261C168.468 170.583 168.439 170.854 168.424 171.058C168.42 171.124 168.42 171.191 168.424 171.258C168.424 171.258 169.534 188.046 165.833 192.859C165.022 193.908 165.144 195.286 165.833 196.813C168.313 202.304 178.117 209.637 178.117 209.637C178.117 209.637 189.876 209.574 196.427 208.859C196.409 209.518 196.394 210.174 196.379 210.815C196.231 217.292 196.231 222.72 196.231 222.72L195.987 229.512C195.987 229.512 193.766 243.825 192.656 247.772C191.956 250.247 192.763 273.164 193.466 290.012H309.322C310.684 280.044 308.763 249.761 308.763 249.761C308.763 249.761 306.938 241.932 306.871 235.107C306.868 235.099 306.866 235.091 306.866 235.083C306.866 235.074 306.868 235.066 306.871 235.059C306.871 234.462 306.871 233.88 306.894 233.31L307.734 233.28L309.244 233.228H309.381C309.381 233.228 309.418 233.088 309.503 232.858C309.703 232.286 309.975 231.741 310.313 231.239C310.957 230.286 311.964 229.353 313.478 229.29C314.315 229.256 315.61 228.578 317.072 227.578C317.082 227.58 317.092 227.58 317.102 227.578C321.036 224.914 326.236 219.997 327.498 219.189C329.234 218.078 337.547 210.667 337.547 210.667C337.547 210.667 338.787 209.096 340.108 207.203L340.156 207.136C341.8 204.765 343.547 201.93 343.117 201.037C342.377 199.436 343.613 195.609 343.613 195.609C347.474 188.535 343.384 179.161 341.644 176.816ZM270.074 62.8491C270.109 62.9597 270.132 63.0741 270.141 63.19C270.048 63.0677 269.955 62.938 269.863 62.8195L269.774 62.7009L269.711 62.612L269.852 62.4193C269.852 62.4193 269.852 62.4193 269.852 62.4452C269.95 62.5654 270.025 62.7022 270.074 62.8491V62.8491ZM268.83 59.5662C268.427 59.6478 268.109 59.7219 267.901 59.7775C267.638 59.3106 267.387 58.8437 267.161 58.3694C267.754 58.7141 268.313 59.1148 268.83 59.5662V59.5662ZM268.134 60.1517C268.133 60.1443 268.133 60.1368 268.134 60.1295L268.164 60.1517C268.316 60.2517 268.464 60.3481 268.601 60.4481C268.723 60.537 268.834 60.6222 268.945 60.7112C268.871 60.8409 268.79 60.9742 268.708 61.0817C268.579 60.8779 268.456 60.6815 268.338 60.4777C268.264 60.3962 268.197 60.2851 268.134 60.1517ZM265.914 55.5794C266.629 55.5088 267.349 55.5088 268.064 55.5794V55.5794C268.164 55.5794 268.253 55.5979 268.342 55.6127C268.542 55.6438 268.74 55.6947 268.93 55.7646C269.368 56.3772 269.637 57.094 269.711 57.8433L269.511 57.8729L269.315 57.91C268.945 57.973 268.575 58.036 268.286 58.0953L267.916 58.1731C267.424 58.2805 267.139 58.362 267.128 58.3657C267.08 58.2657 267.031 58.1731 266.98 58.0767C266.898 57.9174 266.813 57.7544 266.739 57.5951C266.665 57.4357 266.569 57.2542 266.491 57.0874C266.439 56.9985 266.402 56.9096 266.362 56.8281C266.362 56.791 266.325 56.7614 266.31 56.7243C266.288 56.685 266.27 56.6441 266.254 56.602C266.028 56.1426 265.821 55.6831 265.621 55.2311C265.599 55.1866 265.581 55.1385 265.562 55.094L265.843 55.0755V55.1718L265.914 55.5794ZM177.606 285.432C177.577 279.915 177.177 273.946 176.067 268.343C175.593 265.961 175.104 263.578 174.608 261.236C174.483 260.651 174.36 260.073 174.238 259.495L173.098 259.647H172.995C169.886 244.97 166.636 232.039 166.636 232.039C166.636 232.039 160.181 207.366 160.929 205.398C161.025 205.142 160.903 204.453 160.629 203.442C159.067 197.832 152.546 182.374 150.266 177.09C150.266 177.068 150.247 177.042 150.24 177.023C149.87 176.138 149.603 175.541 149.522 175.367L150.058 167.482L150.088 167.008L150.158 166L150.129 165.974L150.158 165.507C150.158 165.507 144.525 160.883 134.983 157.545C134.613 157.411 134.221 157.282 133.832 157.156C134.31 153.965 134.943 150.364 135.768 146.855C135.846 146.503 135.931 146.162 136.02 145.817C136.097 145.473 136.186 145.139 136.275 144.802C136.416 144.254 136.567 143.713 136.723 143.179C137.237 143.016 137.744 142.835 138.244 142.642L138.436 142.568C144.592 140.17 149.671 135.621 152.733 129.762C155.795 123.903 156.633 117.132 155.092 110.703V110.703C154.213 107.056 152.59 103.631 150.325 100.643C150.155 100.413 149.973 100.183 149.792 99.9573C149.61 99.7313 149.392 99.4794 149.189 99.2496C150.258 96.8153 151.52 94.4995 151.624 92.1318C151.642 91.832 151.642 91.5313 151.624 91.2315V91.1944C151.487 89.6715 150.813 88.1301 149.244 86.5109C146.953 84.1359 143.692 82.9317 140.431 82.3536C137.171 81.7756 133.847 81.7608 130.568 81.3717C125.131 80.7196 119.834 79.0411 114.397 78.5261C107.7 77.9053 100.958 79.0551 94.8436 81.8608C90.7982 83.7135 86.7009 86.9519 86.4566 91.3945C86.2568 95.0664 88.8106 98.5864 88.1666 102.214C87.5263 105.778 83.8991 108.583 84.2174 112.188C84.3395 113.596 85.0613 114.856 85.9644 115.979C86.2753 116.349 86.6047 116.72 86.9452 117.091C88.2628 118.487 89.7137 119.829 90.4502 121.589C90.4798 121.663 90.5095 121.737 90.5354 121.811C91.1609 123.549 90.8796 125.746 89.3325 126.743C89.341 126.749 89.3475 126.758 89.351 126.769V126.769C89.3732 126.798 89.3954 126.821 89.4139 126.85C89.4162 126.844 89.4162 126.838 89.4139 126.832C89.9624 127.483 90.7019 127.944 91.5273 128.151L91.8419 128.247C91.5865 128.525 91.3459 128.814 91.1016 129.118L90.9425 129.329C90.5346 129.878 90.1637 130.454 89.8321 131.052C89.6434 131.385 89.462 131.719 89.3103 132.052C88.8029 133.069 88.4356 134.15 88.2184 135.265C87.8224 137.718 88.3813 140.274 87.7817 142.675C87.0414 145.64 84.6985 147.915 83.3772 150.668C80.8752 155.855 82.2928 161.943 82.7961 167.671C83.4809 175.452 82.3705 183.267 81.2638 190.996C80.6766 195.106 80.0893 199.22 79.502 203.338C78.0216 213.673 76.5411 224.008 75.0606 234.344C74.5202 238.13 73.8799 242.125 71.3594 245.048H71.3853C71.3853 245.048 71.3853 245.07 71.3594 245.078C72.116 245.409 72.9207 245.617 73.743 245.693V245.693C77.0333 246.023 80.5199 244.429 83.4808 242.688C85.8257 241.331 88.0465 239.77 90.1171 238.023C89.8136 239.135 89.4879 240.346 89.14 241.65C89.1412 241.663 89.1412 241.675 89.14 241.687V241.687C84.9613 257.62 78.2399 286.829 78.2399 286.829C78.2399 286.829 77.6292 288.1 76.8372 289.993H181.211C179.99 288.511 178.854 287.092 177.965 285.947L177.606 285.432ZM100.325 138.11C100.351 138.066 100.369 138.025 100.395 137.984C100.395 138.103 100.395 138.218 100.395 138.329C100.395 138.44 100.395 138.54 100.395 138.644C100.395 138.748 100.395 138.737 100.395 138.789C100.395 138.84 100.395 138.789 100.395 138.789C100.395 138.94 100.362 139.092 100.336 139.244C100.336 139.244 100.336 139.263 100.336 139.278L100.706 139.415L101.136 139.593C103.672 140.595 106.241 141.503 108.842 142.316C109.108 142.401 109.378 142.483 109.648 142.561L109.704 143.02C109.771 143.491 109.833 143.968 109.893 144.446C109.893 144.446 109.893 144.469 109.893 144.484C110.059 145.806 110.222 147.125 110.366 148.415C110.366 148.415 103.571 145.821 103.656 149.76C103.652 149.83 103.652 149.901 103.656 149.971C103.649 150.065 103.649 150.159 103.656 150.253C103.719 153.321 104.678 155.14 104.87 156.074C104.859 156.112 104.838 156.148 104.811 156.177C104.647 156.535 104.59 156.933 104.648 157.322C104.642 157.985 104.694 158.647 104.804 159.301C104.604 159.423 104.408 159.545 104.211 159.671C104.063 159.764 103.923 159.868 103.778 159.972C102.87 156.819 101.682 153.753 100.229 150.812C99.211 148.715 98.0673 146.529 98.0784 144.228C98.0784 144.08 98.0784 143.928 98.097 143.776C98.1382 143.109 98.2651 142.45 98.4745 141.816C98.5596 141.575 98.6521 141.338 98.7558 141.104C98.9976 140.55 99.2682 140.008 99.5663 139.481C99.7588 139.133 99.9624 138.789 100.159 138.44C100.221 138.336 100.281 138.229 100.34 138.125L100.325 138.11ZM266.51 57.0874C266.458 56.9985 266.421 56.9096 266.38 56.8281C266.38 56.791 266.343 56.7614 266.328 56.7243C266.248 56.7624 266.165 56.7958 266.08 56.8244C265.917 56.8873 265.751 56.9466 265.581 56.9948C265.41 57.043 265.34 57.0689 265.21 57.0985L264.881 57.1838L264.911 57.2505C265.048 57.2208 265.181 57.1949 265.318 57.1578L265.355 57.6173C265.51 57.6173 265.655 57.5951 265.795 57.5951H265.995C266.284 57.5951 266.536 57.5951 266.735 57.5951C266.658 57.4283 266.576 57.2542 266.51 57.0874Z" fill="url(#paint1_linear)"/>
<path id="Vector_21" d="M185.638 111.51L183.417 112.492C183.417 112.492 168.942 168.79 168.942 173.34C168.942 177.89 199.636 203.208 199.636 203.208L204.425 170.846C204.425 170.846 197.549 96.6336 185.638 111.51Z" fill="#E8F5FF"/>
<path id="Vector_22" d="M252.967 93.6028L240.142 86.9037C239.424 83.8381 238.149 80.9307 236.382 78.326C234.505 75.6138 232.011 72.9497 228.902 71.5602C221.044 68.0328 262.139 49.5176 262.139 49.5176C262.786 51.7418 263.548 53.9308 264.422 56.0759C266.539 61.3077 270.052 68.0735 274.578 70.0003C282.273 73.2794 252.967 93.6028 252.967 93.6028Z" fill="#FFC1C7"/>
<path id="Vector_23" opacity="0.1" d="M264.422 56.0759C262.666 62.2581 259.015 67.7319 253.983 71.7243C248.952 75.7167 242.795 78.026 236.382 78.326C234.505 75.6138 232.011 72.9497 228.902 71.5602C221.044 68.0328 262.139 49.5176 262.139 49.5176C262.786 51.7418 263.548 53.9308 264.422 56.0759V56.0759Z" fill="black"/>
<path id="Vector_24" d="M265.577 46.7267C265.578 52.7899 263.784 58.7173 260.42 63.7593C257.056 68.8013 252.274 72.7315 246.679 75.0526C241.084 77.3737 234.927 77.9816 228.986 76.7994C223.046 75.6171 217.589 72.6979 213.306 68.4108C209.024 64.1237 206.107 58.6614 204.925 52.7148C203.743 46.7681 204.35 40.6042 206.668 35.0026C208.986 29.401 212.911 24.6133 217.947 21.2452C222.983 17.877 228.904 16.0797 234.961 16.0804C238.986 16.0618 242.975 16.8417 246.698 18.3752C250.421 19.9086 253.803 22.1653 256.65 25.0147C259.496 27.8641 261.751 31.2499 263.283 34.9765C264.816 38.7032 265.595 42.6967 265.577 46.7267V46.7267Z" fill="#FFC1C7"/>
<path id="Vector_25" d="M269.996 89.6665L261.646 109.171L254.281 122.117H230.704L223.827 104.417L226.614 86.0612H244.621L256.246 85.4054L260.173 84.0938L262.705 85.5314L269.996 89.6665Z" fill="#575A89"/>
<path id="Vector_26" opacity="0.1" d="M267.12 63.6682C267.12 63.6682 272.328 64.7798 267.664 68.6073C263.001 72.4348 246.912 84.6066 246.912 84.6066C246.912 84.6066 252.563 89.6458 251.394 95.5483L270.118 85.0994L273.449 68.3813C273.449 68.3813 273.823 63.3569 267.12 63.6682Z" fill="black"/>
<path id="Vector_27" opacity="0.1" d="M250.594 84.6055L238.684 86.573C238.684 86.573 241.141 95.6694 239.913 98.252C239.876 98.3322 239.845 98.4152 239.82 98.5002L234.96 111.65L238.602 121.977L251.209 104.766L246.912 98.252C246.912 98.252 251.453 92.2272 254.155 90.1374C256.857 88.0477 250.594 84.6055 250.594 84.6055Z" fill="black"/>
<path id="Vector_28" d="M250.594 84.0977L238.684 86.0614C238.684 86.0614 241.141 95.1579 239.913 97.7404C239.876 97.8207 239.845 97.9037 239.82 97.9887L234.96 111.139L238.602 121.465L251.209 104.243L246.912 97.7293C246.912 97.7293 251.453 91.7046 254.155 89.6148C256.857 87.525 250.594 84.0977 250.594 84.0977Z" fill="#E8F5FF"/>
<path id="Vector_29" d="M267.62 62.6858C267.62 62.6858 272.828 63.7973 268.16 67.6249C263.493 71.4524 246.912 84.6061 246.912 84.6061C246.912 84.6061 253.052 88.6634 251.886 94.5622L270.611 84.117L273.942 67.3989C273.942 67.3989 274.312 62.3745 267.62 62.6858Z" fill="#575A89"/>
<path id="Vector_30" opacity="0.1" d="M237.2 79.4863C237.2 79.4863 238.336 81.6131 243.351 85.4481C243.351 85.4481 235.001 89.8944 238.195 96.1452L225.422 92.8105L223.457 86.6634L237.2 79.4863Z" fill="black"/>
<path id="Vector_31" d="M236.708 78.9961C236.708 78.9961 237.844 81.1229 242.859 84.9579C242.859 84.9579 234.509 89.382 237.703 95.6513L224.934 92.3165L222.969 86.1732L236.708 78.9961Z" fill="#575A89"/>
<path id="Vector_32" opacity="0.1" d="M269.996 89.6683L261.646 109.173L254.296 122.119H230.704L223.827 104.419L226.611 86.0631H231.618C231.537 90.3463 233.099 95.3781 232.999 97.2492C232.829 100.325 237.581 116.917 237.581 116.917C237.581 116.917 247.526 100.814 251.453 99.3798C253.922 98.4794 259.152 90.9874 262.701 85.5332L269.996 89.6683Z" fill="black"/>
<path id="Vector_33" d="M302.889 192.308L302.041 193.375C302.041 193.375 308.182 224.229 306.483 231.235C306.194 232.498 306.029 233.786 305.991 235.081V235.137C305.691 242.266 307.841 251.518 307.841 251.518C307.841 251.518 309.559 278.789 308.581 290.004H193.614C192.941 273.42 192.215 251.933 192.874 249.55C193.984 245.619 196.205 231.357 196.205 231.357L196.449 224.599C196.449 224.599 196.449 218.067 196.649 210.79C196.734 207.518 196.86 204.083 197.042 201.037C197.275 197.206 197.601 193.979 198.048 192.393C198.324 191.191 198.483 189.965 198.522 188.732C198.522 188.617 198.522 188.499 198.544 188.38C198.544 188.01 198.581 187.609 198.596 187.198C198.596 187.083 198.596 186.968 198.596 186.828C198.666 184.441 198.641 181.611 198.563 178.676C198.563 178.517 198.563 178.354 198.563 178.191C198.5 175.99 198.407 173.744 198.304 171.61C197.982 164.941 197.563 159.301 197.563 159.301L183.443 112.467L187.248 103.085L197.808 96.6081L217.332 84.8068C226.855 76.9702 233.125 77.9113 235.516 78.7709C235.748 78.8502 235.975 78.943 236.197 79.0488C236.271 79.0859 236.33 79.1155 236.386 79.1489C236.462 79.1849 236.535 79.227 236.604 79.2748V79.2748C235.949 79.5902 235.38 80.0592 234.946 80.6421C234.456 81.3054 234.107 82.0619 233.921 82.8652C233.795 83.3632 233.708 83.8697 233.658 84.3807C233.61 84.918 233.591 85.4737 233.591 86.0332C233.618 87.2602 233.723 88.4842 233.906 89.6977C233.906 89.72 233.906 89.7496 233.906 89.7793C234.028 90.6463 234.18 91.4948 234.328 92.2914C234.326 92.305 234.326 92.3187 234.328 92.3322C234.498 93.2622 234.668 94.1218 234.783 94.8629C234.805 94.9963 234.824 95.1185 234.842 95.2334C234.924 95.7231 234.962 96.2191 234.957 96.7155C234.999 97.9143 235.16 99.1059 235.438 100.273C235.534 100.762 235.645 101.284 235.767 101.829C235.934 102.57 236.115 103.378 236.311 104.2C236.419 104.652 236.534 105.119 236.652 105.582C236.696 105.767 236.745 105.953 236.789 106.142L236.863 106.434C237.651 109.573 238.506 112.696 239.032 114.586C239.343 115.698 239.539 116.383 239.539 116.383C239.539 116.383 245.113 107.361 249.562 102.225C249.628 102.151 249.688 102.081 249.751 102.014C250.191 101.506 250.624 101.043 251.039 100.636C251.945 99.7316 252.76 99.0869 253.415 98.8498C253.554 98.7985 253.689 98.7353 253.818 98.6608C255.639 97.627 258.578 93.8736 261.328 89.9423C261.598 89.5718 261.861 89.1679 262.127 88.7863C262.738 87.9044 263.33 87.0188 263.889 86.1703C264.319 85.5219 264.729 84.892 265.118 84.2918C266.969 81.4091 268.271 79.26 268.271 79.26L270.84 79.1452L271.288 79.1229H271.588L283.25 78.5819C283.25 78.5819 283.754 78.6672 284.583 78.8339C284.627 78.8339 284.672 78.8339 284.72 78.8636C288.858 79.6861 300.354 82.2909 301.057 85.9036C301.916 90.3276 320.459 96.2301 320.459 96.2301C320.703 99.1943 325.244 101.147 325.244 101.147C325.244 101.147 332.121 119.34 330.282 126.469C328.464 133.509 335.012 150.924 335.186 151.413L333.931 152.999L302.889 192.308Z" fill="#E8F5FF"/>
<path id="Vector_34" opacity="0.1" d="M267.117 62.3746C267.117 62.3746 278.468 59.151 281.048 65.7871C283.628 72.4233 289.398 99.2234 289.398 99.2234C289.398 99.2234 274.415 102.051 270.488 99.2234C268.185 97.5456 265.334 96.7993 262.505 97.1337L254.033 102.91L251.531 102.169C251.531 102.169 265.085 81.9977 268.031 75.1429C270.977 68.2882 271.973 65.2239 267.117 62.3746Z" fill="black"/>
<path id="Vector_35" d="M266.624 60.8922C266.624 60.8922 277.983 57.6686 280.574 64.3047C283.165 70.9408 288.924 97.741 288.924 97.741C288.924 97.741 273.945 100.568 270.015 97.741C267.713 96.0631 264.863 95.3167 262.035 95.6513L253.555 101.428L251.053 100.687C251.053 100.687 264.607 80.5152 267.553 73.6605C270.5 66.8058 271.48 63.7489 266.624 60.8922Z" fill="#E8F5FF"/>
<path id="Vector_36" opacity="0.1" d="M190.427 167.809C190.427 167.809 198.9 169.898 200.499 174.693C202.097 179.488 194.236 179.61 194.236 179.61C194.236 179.61 189.447 171.129 190.427 167.809Z" fill="black"/>
<path id="Vector_37" opacity="0.1" d="M221.984 203.207C221.984 203.207 201.235 245.74 206.024 249.797C210.814 253.854 221.984 203.207 221.984 203.207Z" fill="black"/>
<path id="Vector_38" opacity="0.1" d="M250.594 171.865C250.594 171.865 267.172 213.179 263.856 219.559C260.54 225.94 270.977 219.559 270.977 219.559L250.594 171.865Z" fill="black"/>
<path id="Vector_39" d="M273.679 212.674C273.679 212.674 217.687 215.379 234.02 232.834C250.354 250.29 283.872 233.575 283.872 233.575L273.679 212.674Z" fill="#FFC1C7"/>
<path id="Vector_40" opacity="0.1" d="M265.577 46.7263C265.582 50.7466 264.793 54.7282 263.256 58.4423C262.742 58.5016 262.227 58.5387 261.731 58.5609C260.991 56.9343 261.387 55.0557 261.402 53.2661C261.417 51.4764 260.758 49.3718 259.037 48.8902C255.606 47.9231 253.237 54.3443 249.854 53.1846C247.263 52.3027 247.941 48.3677 246.449 46.0964C245.268 44.2993 242.903 43.7917 241.064 42.6653C237.152 40.2606 237.27 36.4145 235.453 32.776C233.55 28.9632 229.531 30.0896 226.04 32.3387C223.39 34.0506 221.103 36.3441 218.268 37.7077C215.814 38.8933 213.057 39.3232 210.336 39.3862C208.661 39.4511 206.986 39.2739 205.362 38.86C207.272 31.6695 211.73 25.4202 217.904 21.2773C224.077 17.1344 231.546 15.3809 238.915 16.3438C246.285 17.3066 253.054 20.92 257.959 26.5102C262.864 32.1005 265.57 39.2858 265.573 46.7263H265.577Z" fill="black"/>
<path id="Vector_41" d="M226.052 31.3573C223.398 33.0692 221.114 35.359 218.279 36.73C215.825 37.912 213.068 38.3418 210.347 38.4048C207.016 38.4789 203.43 37.8934 201.154 35.485C199.062 33.2619 198.563 29.8419 199.447 26.9259C200.332 24.0098 202.453 21.5903 204.944 19.8377C207.435 18.0851 210.325 16.8735 211.976 14.365C212.849 13.0385 213.271 11.4749 213.997 10.0632C216.317 5.54647 221.536 3.101 226.581 2.79716C231.626 2.49333 236.626 3.99767 241.43 5.62799C246.234 7.2583 251.076 9.05165 256.146 9.38883C258.404 9.52963 260.751 9.38883 262.845 10.2447C265.662 11.3897 267.509 14.1279 268.767 16.9142C270.178 20.0563 271.055 23.4874 270.907 26.9184C270.596 34.2438 265.762 41.432 267.886 48.4497C268.449 50.3209 269.504 52.2402 268.941 54.1114C268.12 56.8422 264.6 57.4647 261.754 57.5943C261.013 55.9677 261.409 54.0855 261.424 52.2995C261.439 50.5136 260.78 48.4053 259.063 47.9236C255.628 46.9639 253.259 53.374 249.884 52.218C247.311 51.3324 247.978 47.4012 246.482 45.1298C245.302 43.3291 242.933 42.8251 241.097 41.6987C237.185 39.294 237.303 35.448 235.486 31.8094C233.569 27.9781 229.546 29.1045 226.052 31.3573Z" fill="#99607E"/>
<path id="Vector_42" d="M171.758 172.355L168.934 173.34C168.934 173.34 170.045 190.058 166.344 194.853C162.642 199.648 178.498 211.567 178.498 211.567C178.498 211.567 200.232 211.445 200.846 209.715C201.461 207.984 199.736 178.739 199.736 178.739C199.736 178.739 188.07 174.189 189.051 166.938C189.051 166.938 185.49 184.022 180.212 183.285C174.934 182.548 168.942 178.135 171.758 172.355Z" fill="#E8F5FF"/>
<path id="Vector_43" opacity="0.1" d="M181.178 188.457C185.293 188.457 188.629 185.403 188.629 181.636C188.629 177.868 185.293 174.814 181.178 174.814C177.063 174.814 173.728 177.868 173.728 181.636C173.728 185.403 177.063 188.457 181.178 188.457Z" fill="black"/>
<path id="Vector_44" d="M189.324 172.847C189.324 172.847 187.844 127.613 174.956 137.691C162.069 147.77 161.943 159.823 164.397 163.384C166.851 166.944 174.719 184.77 174.719 184.77C175.95 185.484 177.333 185.897 178.753 185.973C180.174 186.049 181.592 185.787 182.892 185.209C184.192 184.63 185.337 183.752 186.232 182.645C187.128 181.538 187.749 180.235 188.044 178.842L189.324 172.847Z" fill="#FFC1C7"/>
<path id="Vector_45" opacity="0.1" d="M269.719 58.2691C269.658 58.0704 269.543 57.8929 269.385 57.7578C268.749 57.176 267.379 56.9722 265.314 57.1501L265.399 58.1283C268.153 57.8912 268.697 58.4395 268.767 58.5322V58.6248L268.852 58.7471C269.196 59.209 269.439 59.7377 269.567 60.2991C269.694 60.8606 269.703 61.4426 269.593 62.0077C268.989 65.0275 265.285 67.4322 265.248 67.4582L265.159 67.51L265.103 67.5952C263.504 69.9703 254.462 76.6731 252.097 78.4072L251.89 78.1701C250.831 79.089 241.526 87.2443 241.023 90.3678C240.697 92.3279 238.491 93.0875 237.692 93.2987C236.848 92.6577 234.109 90.4753 232.684 88.0298C231.348 85.7288 236.726 81.238 237.2 79.4854L236.459 78.7259C236.382 79.0075 229.475 85.4694 231.396 88.7708C232.936 91.4201 235.749 93.6877 236.733 94.4362C236.419 97.2966 234.461 114.093 231.452 118.072C227.714 123.019 224.571 147.948 224.919 156.651C225.226 164.384 223.209 178.99 216.473 185.263C215.307 186.397 213.9 187.252 212.357 187.766C210.815 188.279 209.176 188.437 207.564 188.228H207.483H207.401C207.305 188.228 197.534 189.228 189.325 182.299C182.607 176.641 178.802 167.408 178.01 154.847H177.847L177.78 151.19C179.602 150.905 181.242 149.925 182.357 148.455C183.471 146.985 183.973 145.14 183.758 143.307C183.542 141.474 182.625 139.797 181.199 138.627C179.773 137.456 177.95 136.885 176.113 137.033C174.275 137.18 172.566 138.035 171.345 139.417C170.123 140.799 169.485 142.602 169.563 144.446C169.642 146.29 170.431 148.031 171.765 149.305C173.099 150.578 174.875 151.284 176.718 151.275H176.8L176.866 154.91L176.541 154.932C177.355 167.9 181.352 177.493 188.384 183.418C193.729 187.852 200.557 190.089 207.486 189.676C207.978 189.73 208.472 189.757 208.967 189.758C212.143 189.774 215.199 188.544 217.48 186.33C224.575 179.717 226.733 164.573 226.396 156.577C226.026 147.355 229.324 123.322 232.632 118.947C235.875 114.652 237.84 97.9191 238.184 94.677C239.358 94.3473 242.011 93.3061 242.463 90.6012C242.789 88.6449 249.003 82.6164 252.826 79.2779L252.711 79.1446C254.769 77.6402 261.169 72.8975 264.341 69.8517C265.325 68.9069 266.302 67.9621 267.324 67.0617C268.553 65.9723 270.115 64.242 270.525 62.1967C270.665 61.5215 270.666 60.8248 270.527 60.1494C270.389 59.474 270.113 58.8341 269.719 58.2691V58.2691Z" fill="black"/>
<path id="Vector_46" d="M236.608 94.2021C236.452 94.0947 232.766 91.4528 230.919 88.2737C229.002 84.9723 235.908 78.514 235.982 78.2324L236.722 78.992C236.252 80.7409 230.874 85.2354 232.211 87.5326C233.895 90.4339 237.44 92.972 237.477 92.9979L236.608 94.2021Z" fill="#353146"/>
<path id="Vector_47" d="M251.616 79.1266L251.039 78.33C251.157 78.2448 262.783 69.8264 264.615 67.1031L264.674 67.0215L264.759 66.966C264.796 66.94 268.501 64.539 269.104 61.5155C269.215 60.951 269.207 60.3694 269.08 59.8084C268.952 59.2473 268.708 58.7193 268.364 58.2586L268.279 58.1326V58.0437C268.205 57.9473 267.661 57.4027 264.907 57.6398L264.822 56.6579C266.891 56.4801 268.257 56.6838 268.893 57.2656C269.052 57.4021 269.168 57.5806 269.23 57.7806C269.63 58.344 269.911 58.9834 270.055 59.6596C270.199 60.3357 270.203 61.0342 270.067 61.7119C269.656 63.7609 268.098 65.4913 266.865 66.5769C265.847 67.4773 264.866 68.4295 263.885 69.367C260.166 72.9351 252.023 78.8339 251.616 79.1266Z" fill="#E8F5FF"/>
<path id="Vector_48" d="M177.303 149.9L176.322 149.918L176.431 155.886L177.412 155.868L177.303 149.9Z" fill="#E8F5FF"/>
<path id="Vector_49" d="M176.241 150.804C180.196 150.804 183.403 147.594 183.403 143.635C183.403 139.675 180.196 136.465 176.241 136.465C172.285 136.465 169.079 139.675 169.079 143.635C169.079 147.594 172.285 150.804 176.241 150.804Z" fill="#FE1F1A"/>
<path id="Vector_50" d="M176.241 149.588C179.526 149.588 182.189 146.923 182.189 143.634C182.189 140.346 179.526 137.68 176.241 137.68C172.956 137.68 170.293 140.346 170.293 143.634C170.293 146.923 172.956 149.588 176.241 149.588Z" fill="#E8F5FF"/>
<path id="Vector_51" d="M208.5 189.279C208.006 189.279 207.512 189.253 207.02 189.201C200.091 189.609 193.265 187.373 187.918 182.943C180.886 177.014 176.896 167.432 176.074 154.453L177.555 154.36C178.347 166.921 182.151 176.158 188.873 181.812C197.082 188.723 206.85 187.741 206.946 187.741H207.027H207.109C208.721 187.949 210.36 187.791 211.903 187.277C213.446 186.764 214.854 185.909 216.021 184.777C222.754 178.504 224.771 163.898 224.464 156.165C224.094 147.454 227.236 122.525 230.978 117.582C234.254 113.25 236.285 93.7272 236.308 93.5308L236.363 92.975L236.911 92.8787C236.944 92.8787 240.142 92.271 240.542 89.8774C241.06 86.7576 250.35 78.6023 251.405 77.6797L252.371 78.7913C248.533 82.126 242.318 88.1582 242.008 90.1183C241.556 92.8305 238.902 93.868 237.733 94.1941C237.363 97.4399 235.412 114.169 232.181 118.464C228.872 122.839 225.574 146.872 225.944 156.094C226.263 164.09 224.127 179.237 217.032 185.847C214.747 188.066 211.684 189.298 208.5 189.279Z" fill="#353146"/>
<g id="Group" opacity="0.1">
<path id="Vector_52" opacity="0.1" d="M268.73 37.9681C269.337 35.7227 270.07 33.4625 270.581 31.1875C269.97 33.4736 269.234 35.7227 268.73 37.9681Z" fill="black"/>
<path id="Vector_53" opacity="0.1" d="M262.538 55.6129C261.798 53.9863 262.194 52.104 262.209 50.3181C262.224 48.5321 261.565 46.4424 259.847 45.9422C256.413 44.9825 254.044 51.3963 250.668 50.2366C248.078 49.351 248.762 45.4197 247.267 43.1484C246.086 41.3476 243.721 40.8437 241.885 39.7173C237.97 37.3126 238.088 33.4665 236.274 29.828C234.368 26.0115 230.352 27.1379 226.859 29.3907C224.205 31.1026 221.921 33.3961 219.086 34.7634C216.632 35.9454 213.875 36.3752 211.154 36.4382C207.842 36.516 204.237 35.9268 201.96 33.5184C200.206 31.6658 199.573 28.9498 199.936 26.4043C199.873 26.5784 199.817 26.7526 199.762 26.9267C198.874 29.8428 199.392 33.2702 201.468 35.4859C203.744 37.8943 207.349 38.4798 210.662 38.4057C213.386 38.3427 216.14 37.9129 218.597 36.7309C221.44 35.3599 223.724 33.0701 226.37 31.3582C229.864 29.1054 233.883 27.979 235.786 31.7955C237.599 35.434 237.485 39.2801 241.397 41.6848C243.248 42.7964 245.598 43.3151 246.782 45.1159C248.263 47.3946 247.608 51.3185 250.184 52.2041C253.555 53.3601 255.924 46.95 259.359 47.9097C261.076 48.3913 261.739 50.5033 261.72 52.2856C261.702 54.0678 261.317 55.9538 262.05 57.5804C264.896 57.4507 268.416 56.8394 269.241 54.0975C269.355 53.704 269.407 53.2953 269.397 52.8858C268.194 54.9645 265.1 55.498 262.538 55.6129Z" fill="black"/>
</g>
<path id="Vector_54" opacity="0.1" d="M329.43 146.91L333.727 151.46C333.727 151.46 337.166 176.533 338.883 178.879C340.601 181.224 344.657 190.554 340.848 197.561C340.848 197.561 339.62 201.373 340.356 202.97C341.093 204.567 334.834 212.56 334.834 212.56C334.834 212.56 326.606 219.933 324.885 221.041C323.164 222.149 314.081 230.997 311.013 231.119C307.945 231.242 306.942 235.054 306.942 235.054L289.627 235.669C289.627 235.669 280.063 235.169 277.983 236.522C277.983 236.522 279.094 221.893 268.408 212.304L282.036 207.387C282.036 207.387 287.196 205.164 288.791 202.841C289.794 201.416 291.218 200.342 292.862 199.769C292.862 199.769 296.667 197.064 296.789 195.59C296.911 194.115 301.442 192.307 301.442 192.307L298.877 170.39L300.228 134.004C300.228 134.004 304.525 103.517 313.611 105.24C322.698 106.963 329.43 146.91 329.43 146.91Z" fill="black"/>
<path id="Vector_55" d="M330.911 146.91L335.208 151.46C335.208 151.46 338.646 176.533 340.364 178.879C342.081 181.224 346.138 190.554 342.329 197.561C342.329 197.561 341.104 201.373 341.84 202.97C342.577 204.567 336.315 212.56 336.315 212.56C336.315 212.56 328.087 219.933 326.366 221.041C324.645 222.149 315.562 230.997 312.494 231.119C309.425 231.242 308.422 235.054 308.422 235.054L291.108 235.669C291.108 235.669 281.537 235.169 279.464 236.522C279.464 236.522 280.574 221.893 269.889 212.304L283.517 207.387C283.517 207.387 288.676 205.164 290.271 202.841C291.275 201.416 292.699 200.342 294.343 199.769C294.343 199.769 298.148 197.064 298.27 195.59C298.392 194.115 302.922 192.307 302.922 192.307L300.357 170.39L301.708 134.004C301.708 134.004 306.005 103.517 315.092 105.24C324.178 106.963 330.911 146.91 330.911 146.91Z" fill="#E8F5FF"/>
<path id="Vector_56" opacity="0.1" d="M314.936 183.666C314.936 183.666 327.583 180.331 330.9 184.407C334.216 188.482 314.936 183.666 314.936 183.666Z" fill="black"/>
<path id="Vector_57" opacity="0.1" d="M311.99 189.258C316.287 192.27 329.549 192.392 329.549 192.392L311.99 189.258Z" fill="black"/>
<path id="Vector_58" opacity="0.1" d="M318.497 204.316C318.867 204.439 327.613 213.783 331.285 210.956C334.956 208.129 318.497 204.316 318.497 204.316Z" fill="black"/>
<path id="Vector_59" opacity="0.1" d="M200.709 125.891C200.709 125.891 203.278 143.594 202.012 150.805C200.746 158.015 205.366 166.949 205.366 166.949L200.709 125.891Z" fill="black"/>
<path id="Vector_60" d="M143.844 133.089C140.883 135.412 138.722 140.91 137.156 146.954C134.424 157.495 133.532 169.719 133.532 169.719C133.532 169.719 109.956 164.309 111.673 161.853C112.754 160.307 111.303 148.665 110.093 140.225C109.371 135.238 108.727 131.366 108.727 131.366C108.727 131.366 151.95 126.693 143.844 133.089Z" fill="#FFCCD0"/>
<path id="Vector_61" opacity="0.1" d="M143.844 132.597C140.883 134.924 138.722 140.419 137.156 146.462C132.459 147.89 127.463 148.019 122.698 146.835C117.934 145.651 113.578 143.198 110.093 139.737C109.371 134.746 108.727 130.874 108.727 130.874C108.727 130.874 151.95 126.205 143.844 132.597Z" fill="black"/>
<path id="Vector_62" d="M156.517 119.355C156.519 125.799 154.244 132.037 150.094 136.964C145.944 141.891 140.187 145.189 133.842 146.275C127.496 147.361 120.972 146.165 115.422 142.898C109.873 139.631 105.657 134.504 103.521 128.424C101.385 122.345 101.466 115.705 103.75 109.68C106.034 103.654 110.373 98.6318 116 95.5014C121.627 92.371 128.179 91.3345 134.496 92.5752C140.814 93.8159 146.489 97.2539 150.517 102.281C154.399 107.123 156.516 113.146 156.517 119.355V119.355Z" fill="#FFCCD0"/>
<path id="Vector_63" opacity="0.1" d="M178.014 290.004H170.241L169.586 276.261L168.901 262.036C168.901 262.036 170.667 261.773 173.48 261.38L174.616 261.229H174.708C175.323 264.115 175.93 267.079 176.515 270.04C177.488 275.295 177.995 280.627 178.028 285.972C178.028 286.343 178.028 286.713 178.028 287.062C178.051 288.051 178.028 289.04 178.014 290.004Z" fill="black"/>
<path id="Vector_64" d="M176.522 290.003H79.0469C79.4688 289.044 79.7501 288.462 79.7501 288.462C79.7501 288.462 87.5486 254.307 91.5126 239.856C91.5138 239.844 91.5138 239.831 91.5126 239.819C92.0078 237.856 92.6058 235.921 93.304 234.02V234.02C93.3491 233.891 93.4074 233.767 93.4779 233.65C95.4396 230.456 97.8972 227.014 94.4587 222.097C91.0203 217.18 92.238 195.545 92.238 195.545C92.238 195.545 96.413 177.104 100.832 167.27C101.503 165.747 102.455 164.364 103.638 163.194C104.022 162.817 104.433 162.468 104.867 162.149V162.149C105.196 161.901 105.54 161.672 105.895 161.464L105.966 161.419C107.822 160.366 109.884 159.725 112.01 159.541C113.52 159.383 115.045 159.425 116.544 159.667C123.709 160.719 129.446 162.479 134.006 164.484C146.365 169.919 150.107 177.204 150.181 177.356L150.21 177.419C150.706 178.578 157.96 195.534 160.574 203.444C161.251 205.505 161.621 206.953 161.473 207.35C160.733 209.314 167.121 233.898 167.121 233.898C167.121 233.898 170.082 245.755 173.043 259.653C173.172 260.231 173.295 260.809 173.413 261.395C173.942 263.918 174.468 266.49 174.975 269.057C175.957 274.349 176.464 279.719 176.489 285.101C176.543 286.778 176.554 288.412 176.522 290.003Z" fill="#FF748E"/>
<path id="Vector_65" opacity="0.1" d="M111.429 151.087C111.429 151.087 104.704 148.493 104.785 152.428C104.867 156.363 106.425 158.245 105.933 158.82C105.44 159.394 106.177 162.836 106.177 162.836C106.177 162.836 115.263 162.836 119.438 164.718C123.613 166.601 139.003 170.373 140.968 171.521C142.934 172.67 150.221 177.82 150.221 177.82L150.876 168.068C150.876 168.068 143.344 161.839 130.986 158.645C118.628 155.452 111.429 151.087 111.429 151.087Z" fill="black"/>
<path id="Vector_66" d="M111.429 150.593C111.429 150.593 104.704 147.999 104.785 151.934C104.867 155.869 106.425 157.751 105.933 158.325C105.44 158.9 106.177 162.342 106.177 162.342C106.177 162.342 115.263 162.342 119.438 164.228C123.613 166.114 139.003 169.882 140.968 171.027C142.934 172.172 150.221 177.326 150.221 177.326L150.884 167.603C150.884 167.603 143.352 161.375 130.993 158.181C118.635 154.987 111.429 150.593 111.429 150.593Z" fill="#FF748E"/>
<path id="Vector_67" opacity="0.1" d="M131.73 174.062C131.73 174.062 144.581 187.991 143.925 191.848C143.27 195.705 131.73 174.062 131.73 174.062Z" fill="black"/>
<path id="Vector_68" opacity="0.1" d="M110.855 224.377C110.855 224.377 101.435 233.066 98.6595 233.559C95.8836 234.051 100.788 235.689 103.978 234.381C107.169 233.073 113.971 229.631 113.971 229.631L110.855 224.377Z" fill="black"/>
<path id="Vector_69" d="M180.349 290.003H158.382C155.31 287.335 152.405 284.864 150.554 283.378C147.593 280.999 145.458 277.498 144.096 274.682C143.788 274.041 143.522 273.441 143.296 272.896C142.892 271.958 142.536 270.999 142.23 270.024L158.497 260.354C159.396 261.119 160.241 261.946 161.025 262.829L161.221 263.055C162.124 264.122 162.92 265.333 162.99 266.326C163.072 267.482 166.284 271.955 169.567 276.249C172.898 280.618 176.311 284.793 176.537 285.075C176.537 285.075 177.099 285.842 178.017 287.02C178.665 287.873 179.464 288.895 180.349 290.003Z" fill="#FFCCD0"/>
<path id="Vector_70" opacity="0.1" d="M150.517 102.281C149.736 104.044 149.037 105.875 148.933 107.839C148.641 113.508 149.114 126.183 142.845 129.029C139.739 130.43 136.416 127.354 133.01 127.28C130.56 127.228 128.314 128.785 126.818 130.73C125.323 132.675 124.394 134.983 123.31 137.184C122.322 139.182 121.185 141.102 119.908 142.928C119.526 143.486 119.106 144.017 118.65 144.517C114.827 142.902 111.422 140.435 108.696 137.303C105.97 134.171 103.993 130.458 102.918 126.446C101.842 122.434 101.695 118.229 102.489 114.151C103.283 110.074 104.995 106.232 107.497 102.917C109.998 99.6031 113.223 96.9041 116.924 95.0262C120.625 93.1483 124.706 92.1409 128.855 92.081C133.004 92.021 137.112 92.9099 140.866 94.6801C144.62 96.4503 147.921 99.0549 150.517 102.296V102.281Z" fill="black"/>
<path id="Vector_71" d="M148.441 106.838C148.145 112.507 148.622 125.183 142.349 128.025C139.243 129.426 135.92 126.354 132.515 126.28C130.064 126.224 127.821 127.784 126.322 129.726C124.823 131.667 123.902 133.979 122.814 136.184C121.826 138.181 120.689 140.101 119.412 141.927C118.65 143.009 117.806 144.095 116.633 144.702C114.59 145.769 112.113 145.169 109.922 144.484C107.08 143.587 104.279 142.577 101.521 141.453C101.584 141.036 101.616 140.615 101.617 140.193C101.535 140.349 101.447 140.493 101.358 140.649L101.184 140.953C100.869 141.508 100.562 142.064 100.281 142.635C100.173 142.853 100.07 143.079 99.9772 143.305C99.605 144.147 99.3712 145.043 99.2851 145.958C99.0963 148.43 100.314 150.775 101.395 152.998C105.551 161.598 108.12 171.654 104.992 180.677C103.638 184.601 101.291 188.087 99.5775 191.878C96.5818 198.591 95.7001 206.059 97.0495 213.287C97.9045 217.778 99.6182 222.224 99.1962 226.778C98.456 234.614 91.705 240.446 84.9429 244.456C81.2898 246.612 76.8187 248.531 72.9398 246.827C75.4122 243.937 76.0488 239.939 76.5818 236.167C78.0401 225.879 79.5021 215.585 80.9678 205.287C81.5526 201.189 82.1361 197.091 82.7184 192.993C83.8066 185.294 84.9096 177.509 84.2285 169.761C83.7326 164.051 82.3335 157.989 84.8059 152.821C86.1124 150.082 88.4405 147.815 89.1659 144.865C89.7618 142.468 89.2067 139.919 89.599 137.477C89.8137 136.366 90.1773 135.289 90.6797 134.276C91.3196 132.9 92.1548 131.625 93.1596 130.489C92.1676 130.2 91.2423 129.803 90.6797 128.973C92.2713 127.936 92.5118 125.598 91.7901 123.842C91.0684 122.085 89.6249 120.748 88.3258 119.362C87.0266 117.976 85.7756 116.361 85.6128 114.471C85.2982 110.873 88.8884 108.087 89.5213 104.537C90.1616 100.925 87.6299 97.412 87.8335 93.755C88.0704 89.3346 92.1269 86.1221 96.1316 84.2584C102.175 81.4577 108.851 80.3072 115.482 80.9236C120.878 81.4349 126.1 83.106 131.482 83.7544C134.728 84.125 138.018 84.162 141.242 84.7326C144.466 85.3032 147.697 86.5074 149.966 88.8751C155.947 95.1185 148.781 100.258 148.441 106.838Z" fill="#FFE0D0"/>
<path id="Vector_72" opacity="0.1" d="M143.437 274.687C141.549 273.868 138.114 274.357 132.218 272.56C126.322 270.763 125.186 262.641 125.186 262.641V262.615C125.116 262.43 124.568 261.222 120.859 256.99C116.762 252.318 107.905 228.719 107.905 228.719C107.905 228.719 100.051 220.275 100.299 217.162C100.547 214.05 98.9038 205.769 99.0667 196.505C99.2295 187.242 116.747 181.099 116.747 181.099C150.477 175.115 142.534 214.042 141.634 216.992C140.735 219.941 145.402 227.908 145.402 227.908C144.743 231.376 148.104 236.745 148.104 236.745C148.104 236.745 148.918 241.495 149.085 243.299C149.094 243.383 149.113 243.465 149.14 243.544C149.681 245.245 154.085 246.786 155.877 247.723C157.761 248.709 163.819 257.313 163.819 257.313C165.126 263.63 145.317 275.517 143.437 274.687Z" fill="black"/>
<path id="Vector_73" d="M144.418 273.205C142.534 272.383 139.095 272.875 133.203 271.075C127.311 269.274 126.171 261.159 126.171 261.159V261.133C126.104 260.944 125.553 259.74 121.844 255.509C117.747 250.836 108.89 227.234 108.89 227.234C108.89 227.234 101.036 218.793 101.28 215.681C101.524 212.568 99.8884 204.287 100.051 195.031C100.214 185.776 117.721 179.636 117.721 179.636C151.45 173.652 143.507 212.58 142.608 215.529C141.708 218.478 146.376 226.445 146.376 226.445C145.717 229.913 149.078 235.282 149.078 235.282C149.078 235.282 149.892 240.032 150.062 241.836C150.068 241.92 150.086 242.002 150.114 242.081C150.654 243.782 155.059 245.323 156.854 246.26C158.734 247.242 164.797 255.85 164.797 255.85C166.11 262.156 146.302 274.043 144.418 273.205Z" fill="#FF748E"/>
<path id="Vector_74" opacity="0.1" d="M118.387 199.959C118.387 199.959 133.122 215.521 136.967 215.521C140.813 215.521 118.387 199.959 118.387 199.959Z" fill="black"/>
<path id="Vector_75" d="M144.418 273.203C142.534 272.381 139.095 272.874 133.203 271.073C127.311 269.272 126.171 261.158 126.171 261.158V261.132C130.075 258.538 139.965 251.213 143.862 248.534C146.605 246.655 148.844 243.895 150.155 242.064C150.695 243.765 155.099 245.307 156.894 246.244C158.775 247.226 164.837 255.833 164.837 255.833C166.11 262.154 146.302 274.041 144.418 273.203Z" fill="#FF748E"/>
<g id="Group_2" opacity="0.1">
<path id="Vector_76" opacity="0.1" d="M90.7019 129.013C90.7204 129.043 90.7463 129.069 90.7685 129.099C90.8796 128.958 90.9943 128.817 91.1127 128.684C90.9866 128.806 90.849 128.917 90.7019 129.013V129.013Z" fill="black"/>
<path id="Vector_77" opacity="0.1" d="M99.2888 145.999C99.4442 143.942 100.543 142.13 101.572 140.322C100.899 140.063 100.225 139.8 99.559 139.526C99.6224 139.11 99.6546 138.69 99.6552 138.27C98.6152 140.122 97.4826 141.945 97.3234 144.031C97.1347 146.506 98.3524 148.848 99.4331 151.071C103.593 159.667 106.158 169.724 103.031 178.75C101.672 182.67 99.3295 186.16 97.6158 189.951C94.6213 196.663 93.7408 204.13 95.0916 211.356C95.9392 215.85 97.6565 220.293 97.2346 224.847C96.4944 232.683 89.747 238.515 82.9812 242.521C80.2164 244.159 76.9852 245.659 73.8947 245.552C73.6087 246.013 73.2895 246.452 72.9398 246.867C76.8224 248.583 81.2898 246.652 84.9429 244.488C91.7124 240.487 98.4745 234.669 99.2147 226.818C99.6367 222.264 97.9193 217.822 97.068 213.327C95.7168 206.102 96.5947 198.636 99.5849 191.922C101.287 188.135 103.656 184.641 105 180.721C108.127 171.695 105.559 161.639 101.402 153.042C100.325 150.804 99.1 148.474 99.2888 145.999Z" fill="black"/>
<path id="Vector_78" opacity="0.1" d="M149.958 88.9183C149.594 88.5444 149.203 88.1977 148.789 87.8809C153.275 93.7055 146.798 98.6558 146.476 104.925C146.187 110.594 146.661 123.274 140.387 126.112C137.285 127.516 133.958 124.441 130.557 124.367C128.103 124.315 125.86 125.875 124.361 127.816C122.862 129.758 121.94 132.07 120.856 134.271C119.866 136.268 118.728 138.188 117.451 140.014C116.71 141.1 115.844 142.182 114.667 142.793C112.632 143.856 110.156 143.26 107.961 142.571C105.826 141.899 103.712 141.158 101.617 140.347C101.613 140.733 101.58 141.118 101.521 141.5C104.282 142.626 107.084 143.636 109.926 144.531C112.117 145.22 114.593 145.816 116.633 144.753C117.806 144.142 118.657 143.056 119.416 141.97C120.694 140.147 121.832 138.228 122.817 136.231C123.906 134.03 124.823 131.714 126.326 129.773C127.829 127.831 130.068 126.275 132.518 126.327C135.923 126.401 139.251 129.476 142.352 128.072C148.626 125.234 148.149 112.554 148.441 106.885C148.781 100.294 155.947 95.158 149.958 88.9183Z" fill="black"/>
</g>
<path id="Vector_79" opacity="0.1" d="M101.187 140.956C100.873 141.512 100.566 142.068 100.284 142.639C100.177 142.857 100.073 143.083 99.9809 143.309C98.0415 141.353 93.3187 136.703 90.6835 135.261C91.3242 133.887 92.1594 132.611 93.1633 131.475C93.1633 131.475 99.4442 134.798 101.187 140.956Z" fill="black"/>
<path id="Vector_80" d="M101.361 140.652C99.9069 134.06 93.1633 130.492 93.1633 130.492C92.1586 131.628 91.3233 132.904 90.6835 134.279C93.4631 135.802 98.5856 140.908 100.284 142.638L101.361 140.652Z" fill="#FF748E"/>
</g>
<defs>
<linearGradient id="paint0_linear" x1="270.2" y1="35.3532" x2="270.2" y2="28.543" gradientUnits="userSpaceOnUse">
<stop stop-color="#808080" stop-opacity="0.25"/>
<stop offset="0.54" stop-color="#808080" stop-opacity="0.12"/>
<stop offset="1" stop-color="#808080" stop-opacity="0.1"/>
</linearGradient>
<linearGradient id="paint1_linear" x1="169801" y1="243993" x2="169801" y2="17011.7" gradientUnits="userSpaceOnUse">
<stop stop-color="#808080" stop-opacity="0.25"/>
<stop offset="0.54" stop-color="#808080" stop-opacity="0.12"/>
<stop offset="1" stop-color="#808080" stop-opacity="0.1"/>
</linearGradient>
<clipPath id="clip0">
<rect width="402" height="290" fill="white"/>
</clipPath>
</defs>
</svg>
