<svg width="391" height="289" viewBox="0 0 391 289" fill="none" xmlns="http://www.w3.org/2000/svg">
<g id="Group 263">
<rect id="Rectangle 147" width="391" height="289" fill="white"/>
<path id="Vector" d="M245.804 74.6075L245.79 74.7022L245.751 74.9761L241.766 103.598L217.359 112.559L216.977 112.376L203.312 105.883L196.247 78.754L195.763 76.8917L195.91 76.8351L226.138 65.4707L245.786 74.5966L245.804 74.6075Z" fill="#FE1F1A"/>
<path id="Vector_2" d="M216.977 112.375L203.312 105.881L195.763 76.8906L195.91 76.834L215.604 85.1483L216.977 112.375Z" fill="#FE1F1A"/>
<path id="Vector_3" opacity="0.2" d="M217.319 112.044L206.926 92.1118L208.261 86.4612L201.974 79.0527L201.438 79.5078L207.495 86.6452L202.971 105.8L203.655 105.962L206.679 93.1575L216.697 112.369L217.319 112.044Z" fill="black"/>
<path id="Vector_4" d="M245.804 74.9586L245.751 74.9761L215.604 85.5011L196.247 78.754L195.763 76.8917L195.91 76.8351L226.138 65.4707L245.786 74.5966L245.79 74.7022L245.804 74.9586Z" fill="#3F3D56"/>
<path id="Vector_5" d="M216.13 86.0281L209.985 81.2844L211.389 76.0132L228.948 69.6875L240.887 70.3903L245.628 74.4317L245.979 75.4857L216.13 86.0281Z" fill="#FE1F1A"/>
<path id="Vector_6" d="M196.114 76.8908L209.985 76.3633L217.499 73.8113L229.215 69.6865L231.406 66.5243L225.939 65.5449L196.114 76.8908Z" fill="#FE1F1A"/>
<path id="Vector_7" d="M223.75 71.2355L216.517 73.7754L216.75 74.4384L223.982 71.8985L223.75 71.2355Z" fill="#CCCCCC"/>
<path id="Vector_8" d="M128.485 30.1406L125.094 47.105L140.917 58.9806L148.264 36.9263L128.485 30.1406Z" fill="#9F616A"/>
<path id="Vector_9" d="M141.2 45.6909C149.626 45.6909 156.458 38.855 156.458 30.4226C156.458 21.9901 149.626 15.1543 141.2 15.1543C132.773 15.1543 125.942 21.9901 125.942 30.4226C125.942 38.855 132.773 45.6909 141.2 45.6909Z" fill="#9F616A"/>
<path id="Vector_10" d="M108.141 146.108C108.211 151.034 129.65 205.858 126.674 212.997C121.981 217.796 111.888 243.344 107.576 250.159C107.011 250.159 104.185 258.641 104.185 258.641C104.185 258.641 110.967 269.386 118.313 264.862C127.55 243.121 150.684 230.995 151.093 202.66C152.21 211.611 155.506 269.067 155.506 269.067C155.506 269.067 154.874 269.336 169.106 270.7C171.316 237.353 180.345 180.619 160.13 144.977C153.915 142.15 108.141 146.108 108.141 146.108Z" fill="#2F2E41"/>
<path id="Vector_11" d="M155.505 267.949C154.844 269.221 150.106 280.956 154.418 282.133C159.39 283.49 164.21 281.588 164.21 281.588C164.21 281.588 172.914 284.31 178.241 280.851C180.727 278.363 180.162 276.101 178.975 274.462C178.373 273.654 177.601 272.988 176.714 272.509C175.827 272.031 174.847 271.752 173.841 271.692C171.138 271.499 170.279 270.998 169.97 269.759C169.518 267.949 155.505 267.949 155.505 267.949Z" fill="#2F2E41"/>
<path id="Vector_12" d="M109.007 257.701C109.007 257.701 96.8614 261.539 99.4184 266.017C101.079 268.792 103.504 271.03 106.402 272.462C106.402 272.462 108.936 282.912 115.967 282.912C119.483 282.912 120.682 280.913 121.001 278.914C121.146 277.916 121.071 276.899 120.782 275.933C120.493 274.967 119.997 274.076 119.328 273.322C117.553 271.273 117.3 270.311 117.957 269.216C118.916 267.616 109.007 257.701 109.007 257.701Z" fill="#2F2E41"/>
<path id="Vector_13" d="M162.959 147.764C162.959 147.764 160.696 152.288 151.654 150.589C142.613 148.896 107.013 150.589 107.013 150.589C107.013 150.589 108.988 110.158 104.467 85.8409C99.9466 61.5236 117.747 47.6692 117.747 47.6692L123.399 42.0132C129.051 41.4524 140.986 59.0032 140.986 59.0032C144.914 59.6618 148.581 76.3688 151.709 92.1775C151.894 93.0811 152.068 93.9739 152.242 94.8667C153.684 102.238 155.691 110.441 156.893 117.807C156.98 118.329 157.062 118.847 157.138 119.364C158.567 128.928 160.51 138.409 162.959 147.764V147.764Z" fill="#FFB8B8"/>
<path id="Vector_14" d="M123.35 20.9155C123.35 20.9155 120.497 14.6353 127.914 11.7807C127.914 11.7807 134.19 1.50392 146.742 8.35509C146.742 8.35509 155.3 11.7807 155.3 20.9155C155.3 30.0504 158.153 31.7632 158.153 31.7632C158.153 31.7632 153.905 27.402 152.764 23.9764C151.623 20.5509 142.748 19.7737 139.325 23.1993C135.902 26.6249 127.344 26.0539 127.344 26.0539L127.914 38.6144C127.914 38.6144 125.062 31.1923 123.921 31.1923C122.78 31.1923 121.638 20.9155 123.35 20.9155Z" fill="#2F2E41"/>
<path id="Vector_15" opacity="0.2" d="M156.893 117.806C143.413 110.473 121.576 94.3923 114.531 85.6932C105.245 74.2341 115.375 65.524 115.375 65.524C126.859 58.2729 140.589 83.151 140.589 83.151L151.709 92.1767C151.894 93.0804 152.068 93.9732 152.242 94.8659C153.684 102.237 155.691 110.441 156.893 117.806Z" fill="black"/>
<path id="Vector_16" d="M197.135 109.357C197.135 109.357 217.176 117.499 220.475 108.347C223.774 99.1947 204.652 99.3517 204.652 99.3517L197.145 100.416L197.135 109.357Z" fill="#9F616A"/>
<path id="Vector_17" d="M112.806 61.8005C112.806 61.8005 102.681 70.5156 111.961 81.9709C121.24 93.4262 163.887 117.902 163.887 117.902L191.666 110.387L199.527 111.827L201.009 97.0577L189.428 98.189L160.029 91.925L141.283 76.7036C141.283 76.7036 124.287 54.5533 112.806 61.8005Z" fill="#FFB8B8"/>
<path id="Vector_18" opacity="0.2" d="M149.689 166.789L151.46 208.206L146.969 166.789H149.689Z" fill="black"/>
<path id="Vector_19" d="M291.966 137.161L275.886 140.889C274.642 141.177 273.335 140.969 272.242 140.308C271.149 139.648 270.357 138.587 270.034 137.351V137.351C269.846 136.634 269.823 135.884 269.966 135.157C270.11 134.43 270.416 133.745 270.861 133.153C271.307 132.561 271.88 132.078 272.539 131.74C273.198 131.401 273.925 131.217 274.665 131.199L290.197 130.838L291.966 137.161Z" fill="#FFB9B9"/>
<path id="Vector_20" d="M290.259 139.524L286.688 128.803L308.097 121.485L302.415 71.4102C312.646 73.2716 317.515 81.322 317.059 91.7175L319.829 125.887L290.259 139.524Z" fill="#3F3D56"/>
<path id="Vector_21" d="M305.051 60.3684H340.03V42.9617C340.042 38.2606 338.202 33.7443 334.907 30.3928C333.298 28.7417 331.375 27.4302 329.25 26.5358C327.126 25.6414 324.844 25.1823 322.539 25.1856C317.937 25.1941 313.523 27.0149 310.251 30.2543C306.98 33.4937 305.114 37.8915 305.057 42.4967C305.054 42.6562 305.051 42.8076 305.051 42.9617L305.051 60.3684Z" fill="#2F2E41"/>
<path id="Vector_22" d="M354.655 264.922L343.474 263.638L330.093 173.209L302.415 264.004L290.317 264.371L304.065 152.666L302.048 127.17L336.325 116.348C360.603 133.307 360.1 193.207 354.655 264.922Z" fill="#2F2E41"/>
<path id="Vector_23" d="M319.462 56.919C326.751 56.919 332.659 51.0062 332.659 43.7124C332.659 36.4186 326.751 30.5059 319.462 30.5059C312.173 30.5059 306.264 36.4186 306.264 43.7124C306.264 51.0062 312.173 56.919 319.462 56.919Z" fill="#FFB9B9"/>
<path id="Vector_24" d="M332.66 67.5567L310.297 73.4263C314.065 66.1757 315.27 59.4072 313.23 53.2496L328.994 50.6816C327.98 56.5696 329.295 62.6211 332.66 67.5567V67.5567Z" fill="#FFB9B9"/>
<path id="Vector_25" d="M340.175 121.3C327.632 129.282 313.021 138.452 302.232 129.554L297.099 104.609C293.02 100.973 294.829 89.7535 300.344 73.7618C300.694 72.7468 301.27 71.8248 302.03 71.0659C302.789 70.3069 303.711 69.7309 304.726 69.3815L313.23 66.4563C316.999 69.6279 323.177 67.7362 330.46 63.5215L338.892 65.7226L342.558 93.2363C337.266 101.17 338.19 111.735 340.175 121.3Z" fill="#3F3D56"/>
<path id="Vector_26" d="M329.726 132.026L313.646 135.754C312.402 136.043 311.095 135.834 310.002 135.174C308.909 134.513 308.117 133.452 307.793 132.216C307.606 131.499 307.583 130.749 307.726 130.022C307.869 129.295 308.175 128.61 308.621 128.018C309.066 127.426 309.64 126.943 310.299 126.605C310.958 126.267 311.684 126.082 312.425 126.065L327.957 125.703L329.726 132.026Z" fill="#FFB9B9"/>
<path id="Vector_27" d="M352.712 282.21C350.834 283.068 349.261 277.752 347.677 279.31C343.246 283.667 332.617 282.691 332.617 282.691C332.26 282.576 331.93 282.39 331.647 282.144C331.364 281.898 331.134 281.596 330.971 281.259C330.808 280.921 330.715 280.554 330.698 280.179C330.681 279.804 330.74 279.43 330.871 279.079V279.079C331.029 278.658 331.286 278.283 331.621 277.984C331.955 277.685 332.358 277.472 332.793 277.363L337.505 276.184L344.904 263.164L352.967 262.143L353.171 262.476C354.73 264.99 355.735 267.808 356.119 270.741C356.503 273.675 356.257 276.657 355.399 279.488C354.728 281.638 353.815 281.706 352.712 282.21Z" fill="#2F2E41"/>
<path id="Vector_28" d="M299.555 282.21C297.677 283.068 296.104 277.752 294.52 279.31C290.089 283.667 279.46 282.691 279.46 282.691C279.103 282.576 278.773 282.39 278.491 282.144C278.208 281.898 277.978 281.596 277.814 281.259C277.651 280.921 277.558 280.554 277.541 280.179C277.524 279.804 277.583 279.43 277.714 279.079V279.079C277.872 278.658 278.129 278.283 278.464 277.984C278.799 277.685 279.201 277.472 279.636 277.363L284.348 276.184L291.747 263.164L299.81 262.143L300.014 262.476C301.573 264.99 302.578 267.808 302.962 270.741C303.346 273.675 303.101 276.657 302.242 279.488C301.571 281.638 300.659 281.706 299.555 282.21Z" fill="#2F2E41"/>
<path id="Vector_29" d="M334.933 32.6966L331.61 43.2791L302.872 42.768C302.97 39.0655 304.222 35.4861 306.451 32.5298C308.681 29.5736 311.778 27.3882 315.31 26.2789C318.841 25.1696 322.631 25.1918 326.149 26.3424C329.667 27.493 332.738 29.7145 334.934 32.6966H334.933Z" fill="#2F2E41"/>
<path id="Vector_30" d="M328.019 134.386L324.447 123.665L345.857 116.348L337.758 65.1875C342.706 66.0876 347.16 68.7505 350.296 72.6834C353.432 76.6164 355.039 81.5531 354.818 86.58L357.588 120.75L328.019 134.386Z" fill="#3F3D56"/>
<path id="Vector_31" d="M259.581 114.337L259.365 114.441L266.958 130.216L267.173 130.112L259.581 114.337Z" fill="#CCCCCC"/>
<path id="Vector_32" d="M260.012 123.777L259.796 123.881L267.389 139.655L267.604 139.551L260.012 123.777Z" fill="#CCCCCC"/>
<g id="Group 269">
<path id="Vector_33" d="M22.5842 282.427H7.896L5.71997 254.119H24.7602L22.5842 282.427Z" fill="#FE1F1A"/>
<path id="Vector_34" d="M25.0322 265.551H5.448V269.906H25.0322V265.551Z" fill="#3F3D56"/>
<path id="Vector_35" d="M25.8483 252.485H22.5842L22.2214 251.396H7.7149L7.35205 252.485H4.08801L3 255.752H26.9363L25.8483 252.485Z" fill="#3F3D56"/>
</g>
<path id="Vector_36" d="M364.22 282H85.689V283.089H364.22V282Z" fill="#3F3D56"/>
<g id="plus-1">
<rect id="Rectangle 108" width="4.35212" height="15.7867" rx="2.17606" transform="matrix(0.990677 -0.136228 0.136047 0.990702 225.261 88.5703)" fill="white"/>
<rect id="Rectangle 109" width="4.35496" height="15.7764" rx="2.17748" transform="matrix(-0.136047 -0.990702 0.990677 -0.136228 220.972 99.3262)" fill="white"/>
</g>
<g id="Group 271">
<g id="Group 270">
<path id="Vector_37" d="M84.2344 246.048L84.2202 246.143L84.1816 246.417L80.1957 275.04L55.7894 284.001L55.4069 283.818L41.7426 277.324L34.677 250.195L34.1929 248.333L34.3403 248.277L64.5686 236.912L84.2164 246.038L84.2344 246.048Z" fill="#FE1F1A"/>
<path id="Vector_38" d="M55.4069 283.819L41.7426 277.325L34.1929 248.333L34.3403 248.277L54.0339 256.592L55.4069 283.819Z" fill="#FE1F1A"/>
<path id="Vector_39" opacity="0.2" d="M55.7496 283.487L45.3558 263.555L46.6908 257.905L40.4037 250.496L39.8684 250.951L45.9254 258.089L41.4009 277.244L42.0847 277.405L45.1088 264.601L55.1267 283.813L55.7496 283.487Z" fill="black"/>
<path id="Vector_40" d="M84.2344 246.4L84.1816 246.417L54.0339 256.942L34.677 250.195L34.1929 248.333L34.3403 248.277L64.5686 236.912L84.2164 246.038L84.2202 246.143L84.2344 246.4Z" fill="#3F3D56"/>
<path id="Vector_41" d="M54.5603 257.469L48.4147 252.725L49.8193 247.454L67.3776 241.129L79.3175 241.832L84.0585 245.873L84.4094 246.927L54.5603 257.469Z" fill="#FE1F1A"/>
<path id="Vector_42" d="M34.5436 248.332L48.4147 247.805L55.929 245.252L67.6447 241.128L69.836 237.965L64.3687 236.986L34.5436 248.332Z" fill="#FE1F1A"/>
<path id="Vector_43" d="M62.1797 242.677L54.9471 245.217L55.1797 245.88L62.4122 243.34L62.1797 242.677Z" fill="#CCCCCC"/>
</g>
<g id="plus-2">
<rect id="Rectangle 108_2" width="4.35206" height="15.7869" rx="2.17603" transform="matrix(0.999118 -0.0420018 0.0419447 0.99912 64.7397 260.102)" fill="white"/>
<rect id="Rectangle 109_2" width="4.355" height="15.7762" rx="2.1775" transform="matrix(-0.0419448 -0.99912 0.999118 -0.0420016 59.455 270.404)" fill="white"/>
</g>
</g>
<path id="RH +" d="M119.135 138.977H121.254C121.576 138.977 121.848 138.872 122.069 138.664C122.294 138.456 122.406 138.16 122.406 137.775C122.406 137.492 122.289 137.238 122.055 137.014C121.82 136.786 121.553 136.672 121.254 136.672H118.236V143H117.885V136.32H121.254C121.651 136.32 122.001 136.468 122.304 136.765C122.606 137.058 122.758 137.395 122.758 137.775C122.758 138.244 122.611 138.62 122.318 138.903C122.025 139.187 121.67 139.328 121.254 139.328H119.135V138.977ZM119.135 139.68H121.254C121.762 139.68 122.198 139.502 122.562 139.147C122.927 138.789 123.109 138.332 123.109 137.775C123.109 137.297 122.922 136.877 122.548 136.516C122.177 136.151 121.745 135.969 121.254 135.969H117.533V143H117.182V135.617H121.254C121.641 135.617 122.004 135.716 122.343 135.915C122.684 136.114 122.956 136.381 123.158 136.716C123.36 137.048 123.461 137.401 123.461 137.775C123.461 138.417 123.243 138.954 122.807 139.387C122.374 139.816 121.856 140.031 121.254 140.031H119.135V139.68ZM119.135 140.383H121.254C121.71 140.383 122.133 140.271 122.523 140.046C122.914 139.821 123.226 139.509 123.461 139.108C123.695 138.705 123.812 138.26 123.812 137.775C123.812 137.336 123.695 136.924 123.461 136.54C123.23 136.153 122.917 135.843 122.523 135.612C122.129 135.381 121.706 135.266 121.254 135.266H116.83V143H116.478V134.914H121.254C121.765 134.914 122.245 135.046 122.694 135.31C123.143 135.57 123.5 135.922 123.764 136.364C124.03 136.804 124.164 137.274 124.164 137.775C124.164 138.355 124.039 138.864 123.788 139.304C123.541 139.743 123.204 140.087 122.777 140.334L123.685 143H123.314L122.445 140.5C122.315 140.552 122.216 140.588 122.147 140.607L122.963 143H122.592L121.796 140.69C121.766 140.697 121.662 140.708 121.483 140.725L122.24 143H121.869L121.122 140.734H120.805L121.517 143H121.146L120.429 140.734H119.135V140.383ZM118.939 143H118.588V137.023H121.254C121.472 137.023 121.659 137.098 121.815 137.248C121.975 137.395 122.055 137.57 122.055 137.775C122.055 138.342 121.788 138.625 121.254 138.625H119.135V138.273H121.254C121.394 138.273 121.503 138.238 121.581 138.166C121.662 138.091 121.703 137.961 121.703 137.775C121.703 137.661 121.659 137.567 121.571 137.492C121.487 137.414 121.381 137.375 121.254 137.375H118.939V143ZM132.65 134.914H133.002V143H132.65V134.914ZM124.916 134.914H125.267V143H124.916V134.914ZM131.947 134.914H132.299V143H131.947V134.914ZM131.244 134.914H131.596V143H131.244V134.914ZM130.541 134.914H130.892V143H130.541V139.831H127.377V143H127.025V134.914H127.377V138.073H130.541V134.914ZM126.322 134.914H126.674V143H126.322V134.914ZM125.619 134.914H125.971V143H125.619V134.914ZM130.541 139.479V139.128H127.377V139.479H130.541ZM130.541 138.776V138.425H127.377V138.776H130.541ZM134.935 138.425V138.073H136.386V136.667H136.737V141.237H136.386V139.831H134.931V139.479H136.386V139.128H134.935V138.776H136.386V138.425H134.935ZM138.495 136.667H138.847V138.073H140.204V138.425H138.847V138.776H140.204V139.128H138.847V139.479H140.204V139.831H138.847V141.237H138.495V136.667ZM137.792 136.667H138.143V141.237H137.792V136.667ZM137.089 136.667H137.44V141.237H137.089V136.667Z" fill="black"/>
</g>
</svg>
