<svg width="756" height="474" viewBox="0 0 756 474" fill="none" xmlns="http://www.w3.org/2000/svg">
<rect width="756" height="474" fill="white"/>
<path d="M696.309 198.413L706.277 189.33C705.369 183.309 704.089 177.339 702.442 171.45L696.761 174.068L701.865 169.418C699.75 162.154 697.844 157.465 697.844 157.465C697.844 157.465 677.755 176.096 667.372 197.944L673.806 213.346L665.004 203.445C664 206.03 663.176 208.67 662.536 211.349C656.183 238.383 660.728 262.188 672.688 264.519C684.647 266.849 699.492 246.824 705.844 219.79C707.814 211.409 707.792 202.235 706.826 193.565L696.309 198.413Z" fill="#BCFFB6"/>
<path d="M725.931 217.278L739.619 214.195C742.259 208.614 744.551 202.901 746.485 197.083L740.136 196.651L747.144 195.073C749.456 187.858 750.486 182.947 750.486 182.947C750.486 182.947 722.714 189.44 701.426 203.255L698.191 219.468L696.276 206.849C693.949 208.59 691.745 210.462 689.676 212.454C668.894 232.606 659.274 255.123 668.189 262.748C677.104 270.373 701.178 260.218 721.96 240.066C728.403 233.819 733.591 225.956 737.685 218.079L725.931 217.278Z" fill="#BCFFB6"/>
<path d="M595.29 105.29L598.653 81.2541C589.664 73.2226 580.185 65.6591 570.262 58.5997L565.103 68.481L566.825 56.1746C554.458 47.5565 545.67 42.5625 545.67 42.5625C545.67 42.5625 539.307 91.4904 551.508 135.014L580.634 151.238L554.946 145.715C556.725 150.628 558.841 155.435 561.283 160.107C586.073 207.133 623.034 237.883 643.837 228.787C664.641 219.692 661.41 174.196 636.62 127.17C628.935 112.591 617.273 98.9221 604.84 86.9972L595.29 105.29Z" fill="#BCFFB6"/>
<path d="M663.416 102.304L679.937 83.3109C676.801 72.2043 672.98 61.2676 668.491 50.5529L658.467 56.5833L666.926 46.859C661.231 33.6602 656.543 25.248 656.543 25.248C656.543 25.248 623.325 64.1372 609.065 107.139L624.79 134.738L605.935 117.917C604.669 122.961 603.752 128.073 603.191 133.221C597.72 185.147 611.908 228.869 634.879 230.876C657.85 232.883 680.907 192.416 686.378 140.49C688.074 124.392 685.849 107.201 681.974 91.1398L663.416 102.304Z" fill="#BCFFB6"/>
<path d="M358.852 108.824L357.181 83.6042C346.262 76.9623 334.94 70.8865 323.27 65.4059L320.088 76.4406L319.232 63.528C304.727 56.8815 294.66 53.3164 294.66 53.3164C294.66 53.3164 298.556 104.569 320.322 147.008L353.617 158.488L326.122 157.364C328.991 162.085 332.183 166.636 335.679 170.991C371.088 214.796 415.502 239.775 434.881 226.783C454.259 213.792 441.264 167.749 405.855 123.945C394.878 110.365 380.019 98.4187 364.742 88.396L358.852 108.824Z" fill="#BCFFB6"/>
<path d="M428.015 93.7347L440.899 71.3586C435.322 60.5328 429.078 50.0021 422.199 39.8167L413.212 47.7651L419.808 36.3086C411.164 23.791 404.57 16 404.57 16C404.57 16 378.814 61.7089 373.359 108.285L395.345 133.785L372.446 119.88C372.223 125.271 372.372 130.67 372.892 136.044C378.341 190.212 402.184 232.502 426.147 230.503C450.11 228.504 465.118 182.972 459.669 128.805C457.98 112.012 452.041 94.7916 444.652 79.0202L428.015 93.7347Z" fill="#BCFFB6"/>
<path d="M500.094 320.154C509.477 320.154 517.084 318.175 517.084 315.733C517.084 313.292 509.477 311.312 500.094 311.312C490.71 311.312 483.104 313.292 483.104 315.733C483.104 318.175 490.71 320.154 500.094 320.154Z" fill="#E6E6E6"/>
<path d="M650.822 288.323C657.926 288.323 663.686 286.825 663.686 284.976C663.686 283.128 657.926 281.629 650.822 281.629C643.717 281.629 637.958 283.128 637.958 284.976C637.958 286.825 643.717 288.323 650.822 288.323Z" fill="#E6E6E6"/>
<path d="M372.181 285.165C376.873 285.165 380.676 284.091 380.676 282.765C380.676 281.44 376.873 280.365 372.181 280.365C367.489 280.365 363.686 281.44 363.686 282.765C363.686 284.091 367.489 285.165 372.181 285.165Z" fill="#E6E6E6"/>
<path d="M375.579 341.755C380.271 341.755 384.075 340.68 384.075 339.355C384.075 338.03 380.271 336.955 375.579 336.955C370.888 336.955 367.084 338.03 367.084 339.355C367.084 340.68 370.888 341.755 375.579 341.755Z" fill="#E6E6E6"/>
<path d="M375.579 299.315C380.271 299.315 384.075 298.241 384.075 296.916C384.075 295.59 380.271 294.516 375.579 294.516C370.888 294.516 367.084 295.59 367.084 296.916C367.084 298.241 370.888 299.315 375.579 299.315Z" fill="#E6E6E6"/>
<path d="M702.459 275.041L620.148 272.388L576.74 276.159L502.58 282.6L474.672 285.023L410.041 304.651C409.782 304.73 409.503 304.74 409.238 304.681C408.972 304.621 408.731 304.494 408.541 304.315C408.351 304.135 408.222 303.91 408.167 303.666C408.112 303.422 408.134 303.169 408.231 302.936L408.235 302.932L419.444 275.934L418.265 275.142L387.42 254.501L387.255 254.391L347.26 248.838C346.697 248.759 346.165 248.551 345.715 248.234C345.264 247.916 344.91 247.499 344.686 247.022C344.461 246.545 344.374 246.024 344.432 245.508C344.49 244.992 344.691 244.498 345.017 244.072L405.93 164.471L437.939 122.649L441.41 118.109L574.566 116.434L704.57 271.318C704.863 271.667 705.041 272.084 705.083 272.522C705.126 272.959 705.031 273.398 704.809 273.789C704.588 274.179 704.25 274.503 703.833 274.725C703.417 274.947 702.941 275.056 702.459 275.041Z" fill="#FE1F1A"/>
<path opacity="0.2" d="M472.602 124.572L418.264 275.146L387.422 254.505L405.931 164.475L437.848 122.553L437.938 122.65L472.602 124.572Z" fill="black"/>
<path d="M424.098 182.251C417.932 195.749 415.75 207.024 408.436 204.988C398.424 202.201 408.936 192.341 415.102 178.843C421.268 165.345 425.624 154.99 430.764 156.106C440.346 158.186 430.264 168.752 424.098 182.251Z" fill="#3F3D56"/>
<path d="M438.067 155.234C438.066 154.34 437.871 153.456 437.494 152.631C437.117 151.806 436.566 151.057 435.871 150.427C435.176 149.796 434.352 149.296 433.445 148.955C432.538 148.615 431.567 148.44 430.586 148.442C430.417 148.442 430.251 148.449 430.085 148.459L423.036 147.667C422.227 147.405 421.374 147.272 420.516 147.273C420.279 147.274 420.044 147.285 419.813 147.305L419.541 147.275L419.534 147.335C417.88 147.537 416.348 148.238 415.182 149.326C414.016 150.414 413.284 151.826 413.102 153.337C412.921 154.848 413.3 156.371 414.18 157.663C415.059 158.955 416.389 159.941 417.956 160.465L417.941 160.587L418.634 160.658C419.256 160.806 419.897 160.88 420.54 160.879C420.611 160.879 420.681 160.876 420.752 160.874L427.958 161.609C428.805 161.9 429.704 162.049 430.61 162.047C430.947 162.046 431.285 162.024 431.619 161.982L432.234 162.045L432.237 161.881C433.894 161.541 435.374 160.698 436.434 159.489C437.494 158.281 438.07 156.78 438.067 155.234V155.234Z" fill="#FE1F1A"/>
<path opacity="0.2" d="M438.067 155.234C438.066 154.34 437.871 153.456 437.494 152.631C437.117 151.806 436.566 151.057 435.871 150.427C435.176 149.796 434.352 149.296 433.445 148.955C432.538 148.615 431.567 148.44 430.586 148.442C430.417 148.442 430.251 148.449 430.085 148.459L423.036 147.667C422.227 147.405 421.374 147.272 420.516 147.273C420.279 147.274 420.044 147.285 419.813 147.305L419.541 147.275L419.534 147.335C417.88 147.537 416.348 148.238 415.182 149.326C414.016 150.414 413.284 151.826 413.102 153.337C412.921 154.848 413.3 156.371 414.18 157.663C415.059 158.955 416.389 159.941 417.956 160.465L417.941 160.587L418.634 160.658C419.256 160.806 419.897 160.88 420.54 160.879C420.611 160.879 420.681 160.876 420.752 160.874L427.958 161.609C428.805 161.9 429.704 162.049 430.61 162.047C430.947 162.046 431.285 162.024 431.619 161.982L432.234 162.045L432.237 161.881C433.894 161.541 435.374 160.698 436.434 159.489C437.494 158.281 438.07 156.78 438.067 155.234V155.234Z" fill="white"/>
<path d="M338.308 248.162L337.445 247.749C359.544 209.39 422.049 127.431 422.678 126.607L423.478 127.114C422.849 127.937 360.379 209.851 338.308 248.162Z" fill="#3F3D56"/>
<path d="M406.001 305.649L405.061 305.416C405.516 303.892 450.782 152.68 466.499 127.172L467.348 127.606C451.69 153.019 406.456 304.126 406.001 305.649Z" fill="#3F3D56"/>
<path d="M708.401 276.333C684.269 240.13 593.136 128.006 592.218 126.878L593.001 126.35C593.919 127.478 685.079 239.635 709.234 275.873L708.401 276.333Z" fill="#3F3D56"/>
<path d="M404.247 309.674C406.13 309.671 407.654 307.881 407.65 305.676C407.646 303.471 406.116 301.686 404.233 301.688C402.349 301.691 400.826 303.481 400.83 305.686C400.833 307.891 402.363 309.677 404.247 309.674Z" fill="#3F3D56"/>
<path d="M335.463 252.549C337.346 252.546 338.87 250.756 338.866 248.551C338.862 246.346 337.332 244.561 335.449 244.563C333.566 244.566 332.042 246.356 332.046 248.561C332.05 250.766 333.58 252.552 335.463 252.549Z" fill="#3F3D56"/>
<path d="M418.891 131.013L602.687 132.807C602.56 119.136 596.505 106.065 585.843 96.4422C575.18 86.8189 560.774 81.4229 545.762 81.4297L475.618 81.5325C446.279 81.5754 421.436 102.47 419.061 129.102L418.891 131.013Z" fill="#3F3D56"/>
<path opacity="0.2" d="M580.381 186.342H513.206C512.389 186.341 511.579 186.488 510.824 186.775C510.069 187.062 509.384 187.482 508.809 188.012C508.234 188.542 507.781 189.17 507.475 189.861C507.169 190.552 507.017 191.291 507.027 192.036L507.085 196.51L507.682 244.405L507.692 245.329L507.711 246.854L507.731 248.344L507.842 257.323C507.861 258.784 508.502 260.181 509.631 261.22C510.759 262.259 512.287 262.857 513.891 262.889C514.056 262.889 514.226 262.884 514.396 262.876L530.347 261.991L553.425 260.709L561.571 260.258L563.386 260.157L576.08 259.454H576.085L580.755 259.193C582.326 259.104 583.801 258.474 584.879 257.43C585.958 256.386 586.559 255.007 586.561 253.574V191.97C586.559 190.477 585.907 189.047 584.749 187.992C583.59 186.937 582.02 186.343 580.381 186.342V186.342Z" fill="black"/>
<path d="M594.214 178.52C593.971 178.538 593.736 178.604 593.524 178.714C593.313 178.825 593.131 178.976 592.992 179.158L585.59 179.169V177.382C585.588 175.89 584.937 174.459 583.778 173.404C582.62 172.349 581.049 171.755 579.41 171.754H512.236C511.418 171.753 510.608 171.901 509.853 172.187C509.098 172.474 508.413 172.894 507.838 173.424C507.263 173.954 506.81 174.582 506.504 175.273C506.198 175.964 506.046 176.703 506.056 177.448L506.08 179.286L501.306 179.293C501.045 179.039 500.686 178.887 500.304 178.87C498.631 178.872 497.28 182.2 497.288 186.302C497.295 190.404 498.657 193.728 500.33 193.725C500.622 193.696 500.901 193.604 501.145 193.456C501.389 193.307 501.591 193.108 501.732 192.874L593.016 192.74C593.156 192.922 593.338 193.073 593.55 193.183C593.762 193.293 593.998 193.358 594.241 193.375C595.914 193.373 597.264 190.045 597.257 185.943C597.25 181.841 595.887 178.518 594.214 178.52Z" fill="#FE1F1A"/>
<path opacity="0.2" d="M594.214 178.52C593.971 178.538 593.736 178.604 593.524 178.714C593.313 178.825 593.131 178.976 592.992 179.158L585.59 179.169V177.382C585.588 175.89 584.937 174.459 583.778 173.404C582.62 172.349 581.049 171.755 579.41 171.754H512.236C511.418 171.753 510.608 171.901 509.853 172.187C509.098 172.474 508.413 172.894 507.838 173.424C507.264 173.954 506.81 174.582 506.504 175.273C506.198 175.964 506.046 176.703 506.056 177.448L506.08 179.286L501.306 179.293C501.045 179.039 500.686 178.887 500.304 178.87C498.631 178.872 497.28 182.2 497.288 186.302C497.295 190.404 498.657 193.728 500.33 193.725C500.622 193.696 500.901 193.604 501.145 193.456C501.389 193.307 501.591 193.108 501.732 192.874L593.016 192.74C593.156 192.922 593.338 193.073 593.55 193.183C593.762 193.293 593.998 193.358 594.241 193.375C595.914 193.373 597.264 190.045 597.257 185.943C597.25 181.841 595.887 178.518 594.214 178.52Z" fill="white"/>
<path d="M586.561 250.432V253.576C586.559 255.009 585.958 256.388 584.879 257.432C583.8 258.475 582.326 259.106 580.755 259.195L514.396 262.877C513.56 262.924 512.723 262.815 511.935 262.558C511.147 262.301 510.424 261.9 509.811 261.381C509.198 260.862 508.708 260.234 508.369 259.537C508.031 258.84 507.851 258.087 507.842 257.325L507.682 244.407L547.823 243.814L586.561 250.432Z" fill="#3F3D56"/>
<path opacity="0.1" d="M693.976 348.14C726.574 348.14 753 345.042 753 341.221C753 337.4 726.574 334.303 693.976 334.303C661.377 334.303 634.951 337.4 634.951 341.221C634.951 345.042 661.377 348.14 693.976 348.14Z" fill="#6C63FF"/>
<path opacity="0.1" d="M694.272 227.525H685.222V235.288H694.272V227.525Z" fill="#6C63FF"/>
<path opacity="0.1" d="M694.272 246.674H685.222V254.436H694.272V246.674Z" fill="#6C63FF"/>
<path opacity="0.1" d="M694.272 265.816H685.222V273.579H694.272V265.816Z" fill="#6C63FF"/>
<path opacity="0.1" d="M694.272 284.963H685.222V292.726H694.272V284.963Z" fill="#6C63FF"/>
<path opacity="0.1" d="M694.272 304.111H685.222V311.874H694.272V304.111Z" fill="#6C63FF"/>
<path d="M721.9 260.313C721.9 260.313 716.647 237.893 718.658 235.103C718.658 235.103 718.731 232.51 718.61 229.205C718.61 229.08 718.61 228.954 718.61 228.826C718.964 229.028 719.333 229.21 719.714 229.372C721.567 230.188 723.694 230.424 725.728 230.038L724.137 228.517C723.755 228.154 723.358 227.761 723.275 227.281C723.192 226.8 723.421 226.372 723.618 225.943C725.13 222.668 725.209 218.549 722.298 216.049C719.838 213.947 719.24 211.234 716.571 209.315C714.62 207.91 713.548 205.849 712.536 203.856C711.68 202.172 710.818 200.475 710.328 198.69C709.946 197.295 709.793 195.851 709.268 194.489C708.743 193.127 707.76 191.803 706.223 191.194C705.676 190.979 705.068 190.856 704.568 190.569C703.913 190.19 703.518 189.573 703.044 189.033C700.636 186.303 692.569 187.911 688.751 189.019C687.713 189.298 686.752 189.755 685.926 190.362L685.961 190.313C685.989 190.272 686.024 190.231 686.056 190.19C685.638 190.48 685.277 190.826 684.987 191.214C684.43 191.97 684.198 192.851 683.733 193.67C683.173 194.639 680.058 197.344 681.398 198.433C681.492 198.506 681.599 198.565 681.716 198.608C682.219 198.787 682.772 198.835 683.307 198.744L683.25 198.862C682.792 199.822 682.557 200.851 682.559 201.889C682.559 206.373 686.871 210.009 692.194 210.009C693.195 210.01 694.19 209.878 695.144 209.618C695.166 209.722 695.185 209.826 695.207 209.93C695.207 209.971 695.223 210.011 695.229 210.052L695.061 210.254C695.052 210.242 695.043 210.23 695.032 210.219L690.037 216.207C689.273 216.669 684.875 219.398 684.627 221.445C684.366 223.686 684.105 226.309 684.105 226.309L684.07 226.871C683.852 227.028 683.597 227.142 683.322 227.205C683.047 227.269 682.76 227.281 682.48 227.24C680.92 227.021 680.92 232.153 680.92 232.153C680.92 232.153 679.883 232.972 679.17 232.262C678.458 231.552 676.574 233.957 676.574 233.957L664.769 234.394L664.499 234.407L663.862 232.718C663.794 232.54 663.646 232.392 663.451 232.307C663.256 232.221 663.03 232.205 662.822 232.262C662.772 232.276 662.724 232.293 662.678 232.314L662.634 232.336L662.551 232.385L662.51 232.418C662.487 232.435 662.466 232.455 662.446 232.475L662.408 232.513L662.389 232.53C662.315 232.617 662.267 232.717 662.247 232.824C662.227 232.93 662.236 233.038 662.274 233.141L662.822 234.59C660.543 234.983 658.214 236.092 660.114 239.143L650.485 237.617L653.6 239.861L669.682 242.708C669.469 243.035 669.609 243.51 670.274 244.179C673.137 247.064 678.356 247.847 680.456 248.049C681.01 249.114 681.703 250.121 682.521 251.052L682.34 253.926C682.34 253.926 677.023 275.833 676.049 276.944C676.54 276.466 676.99 275.958 677.395 275.423C675.852 279.924 673.694 286.085 673.128 287.007C672.218 288.481 671.375 294.445 672.412 294.827C672.73 294.944 673.64 294.887 674.938 294.802V295.296L674.881 314.018C674.881 314.018 675.142 325.501 674.426 326.595C673.71 327.69 673.519 329.985 673.519 329.985C673.519 329.985 670.656 334.513 668.387 336.334C668.371 336.348 668.354 336.361 668.336 336.372L668.266 335.946C668.266 335.946 665.539 338.9 659.506 338.733C659.506 338.733 655.876 340.759 661.259 340.868C666.643 340.977 673.519 340.704 673.519 340.704C673.519 340.704 678.321 334.426 682.343 335.245V340.002H683.574V335.169C684.145 334.846 684.634 334.427 685.011 333.938C685.388 333.449 685.645 332.899 685.766 332.322C685.872 331.727 685.795 331.119 685.542 330.557C685.29 329.996 684.872 329.5 684.328 329.12C684.084 328.931 683.888 328.7 683.753 328.443C683.618 328.185 683.546 327.907 683.542 327.624L683.498 327.657C683.498 327.562 683.469 327.463 683.456 327.362C683.103 324.906 682.661 319.837 684.223 316.087C686.365 310.945 687.014 303.782 685.455 299.519C684.952 298.156 684.538 296.77 684.217 295.367C684.179 295.19 684.144 295.021 684.112 294.862C685.178 294.986 686.233 295.169 687.271 295.408C690.883 296.263 698.784 296.421 705.529 296.375C705.545 296.533 705.564 296.699 705.587 296.866C705.707 298.023 705.958 299.168 706.337 300.283C707.184 302.467 707.572 312.094 707.572 312.094C707.572 312.094 708.663 320.009 708.068 323.23C707.75 325.02 707.432 326.819 707.251 328.626V328.662C707.251 328.662 705.462 333.029 704.155 335.401C704.123 335.461 704.088 335.521 704.056 335.578C703.707 335.605 703.364 335.67 703.035 335.772C703.035 335.772 701.281 338.774 699.535 339.271C697.788 339.768 698.367 341.403 702.322 340.802C706.277 340.202 712.249 339.71 712.249 339.71L712.507 336.648L713.723 335.343L713.405 338.398L714.7 338.179L714.528 334.464L716.516 332.33C716.516 332.33 718.919 330.496 715.349 326.887V326.967C715.31 326.915 715.275 326.86 715.234 326.808V326.792C714.642 326.006 714.171 324.54 715.034 321.939C716.593 317.239 717.5 312.973 717.5 312.973C717.5 312.973 720.981 301.544 716.796 296.137H716.981C716.552 295.376 716.249 294.568 716.081 293.735C716.059 293.637 716.04 293.536 716.023 293.432C719.119 293.279 722.158 292.799 724.637 291.762C724.627 291.751 723.135 264.631 721.9 260.313ZM682.594 241.398V241.452L681.958 241.48L682.594 241.398ZM680.411 241.657C680.307 241.677 680.209 241.717 680.125 241.774C679.851 242.106 679.68 242.492 679.625 242.896L678.633 242.705C678.633 242.705 677.936 242.577 676.933 242.432L676.459 242.023C677.764 241.93 679.119 241.793 680.411 241.657V241.657Z" fill="url(#paint0_linear)"/>
<path d="M684.293 316.137C682.763 319.876 683.195 324.923 683.539 327.374C683.666 328.28 683.784 328.831 683.784 328.831C683.784 328.831 681.496 333.302 681.305 333.471C681.114 333.641 674.572 337.066 674.572 337.066L670 339.356C670 339.356 665.361 337.612 667.585 337.011C668.039 336.855 668.449 336.616 668.785 336.31C671.012 334.495 673.809 329.983 673.809 329.983C673.809 329.983 674 327.693 674.7 326.604C675.4 325.515 675.145 314.07 675.145 314.07L675.199 295.414V292.982L683.902 293.037C683.957 293.863 684.082 294.684 684.277 295.494C684.59 296.891 684.994 298.273 685.49 299.631C687.023 303.887 686.387 311.013 684.293 316.137Z" fill="#FFB0B1"/>
<path opacity="0.1" d="M683.784 328.831C683.784 328.831 681.496 333.302 681.305 333.471C681.114 333.64 674.572 337.066 674.572 337.066L670 339.356C670 339.356 665.361 337.612 667.585 337.011C668.039 336.855 668.449 336.615 668.785 336.31L668.982 337.503L670.506 337.448L683.552 327.379C683.666 328.28 683.784 328.831 683.784 328.831Z" fill="black"/>
<path d="M683.625 327.635L670.506 337.772L668.982 337.827L668.664 335.916C668.664 335.916 665.997 338.858 660.072 338.695C660.072 338.695 656.515 340.712 661.788 340.821C667.06 340.93 673.793 340.657 673.793 340.657C673.793 340.657 678.496 334.379 682.432 335.198V339.939H683.641V335.154C684.203 334.83 684.683 334.411 685.051 333.923C685.42 333.435 685.67 332.889 685.786 332.316C685.89 331.726 685.816 331.123 685.57 330.564C685.325 330.006 684.915 329.511 684.382 329.128C684.144 328.936 683.954 328.705 683.824 328.448C683.694 328.192 683.626 327.915 683.625 327.635V327.635Z" fill="#1D2366"/>
<path d="M714.468 321.969C713.621 324.562 714.083 326.022 714.662 326.805V326.822C715.404 327.789 715.921 328.871 716.183 330.007L716.234 330.253L710.264 337.718L707.025 338.81C707.025 338.81 701.816 337.284 702.768 336.847C703.006 336.741 703.379 336.173 703.805 335.39C705.078 333.029 706.834 328.672 706.834 328.672V328.637C707.019 326.838 707.311 325.045 707.636 323.26C708.218 320.047 707.149 312.162 707.149 312.162C707.149 312.162 706.767 302.573 705.94 300.392C705.567 299.284 705.318 298.146 705.199 296.997C705.027 295.632 704.989 294.508 704.989 294.508C704.989 294.508 708.419 290.413 714.706 294.835C715.209 295.188 715.651 295.599 716.02 296.058C720.364 301.359 716.867 313.035 716.867 313.035C716.867 313.035 715.992 317.282 714.468 321.969Z" fill="#FFB0B1"/>
<path opacity="0.1" d="M716.243 330.251L710.274 337.716L707.034 338.808C707.034 338.808 701.826 337.282 702.777 336.846C703.016 336.739 703.388 336.171 703.814 335.388C706.019 335.372 707.162 337.173 707.162 337.173L709.955 336.791C709.955 336.791 713.64 330.579 714.467 330.199C715.295 329.82 714.595 327.363 714.595 327.363V326.738C714.617 326.76 714.636 326.785 714.661 326.807V326.823C715.404 327.79 715.921 328.872 716.182 330.008L716.243 330.251Z" fill="black"/>
<path d="M707.353 337.336C707.353 337.336 705.762 334.83 702.713 335.756C702.713 335.756 700.998 338.758 699.283 339.244C697.568 339.73 698.141 341.367 702.017 340.77C705.892 340.172 711.734 339.678 711.734 339.678L711.989 336.624L715.928 332.319C715.928 332.319 718.276 330.493 714.782 326.898V327.523C714.782 327.523 715.482 329.98 714.655 330.359C713.828 330.739 710.156 336.954 710.156 336.954L707.353 337.336Z" fill="#1D2366"/>
<path opacity="0.1" d="M683.911 293.035C683.966 293.861 684.092 294.682 684.287 295.492C680.704 295.041 677.379 295.265 675.199 295.412V292.98L683.911 293.035Z" fill="black"/>
<path opacity="0.1" d="M716.374 296.736C716.374 296.736 711.283 296.949 705.211 296.993C705.04 295.628 705.001 294.504 705.001 294.504C705.001 294.504 708.432 290.409 714.719 294.831C715.222 295.184 715.664 295.596 716.033 296.054C716.132 296.287 716.245 296.515 716.374 296.736V296.736Z" fill="black"/>
<path d="M716.374 296.245C716.374 296.245 694.075 297.171 687.278 295.536C680.482 293.901 673.745 295.317 672.73 294.938C671.715 294.559 672.54 288.616 673.43 287.145C674.321 285.674 679.209 270.796 679.209 270.796L683.912 249.762L688.866 248.592L689.216 248.507L697.848 246.465L704.174 244.967C704.174 244.967 716.752 287.091 715.674 290.197C715.282 291.386 715.219 292.638 715.489 293.852C715.654 294.681 715.951 295.486 716.374 296.245V296.245Z" fill="#1D2366"/>
<path d="M667.518 235.379C667.518 235.379 663.063 239.473 666.436 241.755C669.809 244.037 672.027 241.973 672.027 241.973L667.518 235.379Z" fill="#C7DAF5"/>
<path opacity="0.1" d="M667.518 235.379C667.518 235.379 663.063 239.473 666.436 241.755C669.809 244.037 672.027 241.973 672.027 241.973L667.518 235.379Z" fill="black"/>
<path d="M703.509 208.459C703.509 208.459 702.987 208.885 702.201 209.513C701.081 210.411 699.423 211.723 697.953 212.823C695.917 214.344 694.237 215.46 694.838 214.507C695.44 213.555 695.325 211.895 695.026 210.342C695.004 210.239 694.984 210.135 694.962 210.034C694.715 208.893 694.386 207.767 693.979 206.66C693.979 206.66 697.269 203.014 699.089 201.575C699.767 201.029 700.241 200.806 700.27 201.185C700.301 201.695 700.747 202.823 701.301 204.018C701.317 204.056 701.332 204.092 701.352 204.13C701.721 204.949 702.137 205.79 702.503 206.516C703.063 207.629 703.509 208.459 703.509 208.459Z" fill="#FFB0B1"/>
<path opacity="0.1" d="M701.352 204.133C701.042 205.559 700.292 206.888 699.179 207.981C698.067 209.074 696.632 209.89 695.026 210.345C694.773 209.099 694.423 207.869 693.979 206.663C693.979 206.663 700.174 199.798 700.27 201.188C700.292 201.714 700.776 202.883 701.352 204.133Z" fill="black"/>
<path opacity="0.1" d="M694.408 212.178L695.21 211.209C695.21 211.209 695.742 213.988 697.695 212.762C699.649 211.537 699.745 221.985 699.745 221.985L697.648 248.878L682.495 248.1L682.925 235.105L684.64 228.555L688.881 219.032L691.405 215.885L694.408 212.178Z" fill="black"/>
<path d="M699.745 222.153L697.836 246.47L697.635 249.046L689.187 248.612L688.869 248.596L682.505 248.268L682.935 235.271L684.65 228.72L688.891 219.197L691.414 216.05L694.418 212.33L695.22 211.363C695.22 211.363 695.751 214.142 697.705 212.916L697.747 212.892C699.656 211.855 699.745 222.153 699.745 222.153Z" fill="#1D2366"/>
<path d="M684.863 226.441C684.863 226.441 684.102 227.806 682.575 227.585C681.048 227.364 681.051 232.498 681.051 232.498C681.051 232.498 680.036 233.317 679.336 232.607C678.636 231.898 676.79 234.297 676.79 234.297L665.227 234.734C665.227 234.734 670.372 236.751 669.364 242.854C669.364 242.854 686.832 241.926 687.405 240.509C687.978 239.092 684.863 226.441 684.863 226.441Z" fill="white"/>
<path opacity="0.03" d="M684.863 226.441C684.863 226.441 684.102 227.806 682.575 227.585C681.048 227.364 681.051 232.498 681.051 232.498C681.051 232.498 680.036 233.317 679.336 232.607C678.636 231.898 676.79 234.297 676.79 234.297L665.227 234.734C665.227 234.734 670.372 236.751 669.364 242.854C669.364 242.854 686.832 241.926 687.405 240.509C687.978 239.092 684.863 226.441 684.863 226.441Z" fill="black"/>
<path d="M651.259 237.941L654.307 240.174L679.399 244.697L676.287 241.973L651.259 237.941Z" fill="white"/>
<path d="M694.457 213.038C694.04 213.584 692.847 216.379 691.851 218.819C691.02 220.853 690.326 222.641 690.326 222.641C690.326 222.641 688.707 231.686 687.88 233.321C687.052 234.956 687.501 241.332 687.501 241.332L684.418 257.078C684.418 257.078 683.021 265.199 680.863 270.049C678.735 274.823 676.364 277.061 676.291 277.132C677.246 276.024 682.448 254.204 682.448 254.204L684.166 226.686C684.166 226.686 684.418 224.071 684.672 221.835C684.927 219.6 690.081 216.548 690.081 216.548L695.052 210.486C695.551 211.06 695.217 212.059 694.457 213.038Z" fill="white"/>
<path d="M681.497 248.403C681.497 248.403 674.178 248.131 670.634 244.479C667.089 240.826 678.827 243.021 678.827 243.021L681.878 243.621L681.497 248.403Z" fill="#FFB0B1"/>
<path opacity="0.1" d="M715.674 290.199C715.282 291.389 715.219 292.64 715.489 293.854C707.506 294.34 698.965 292.489 698.965 292.489C697.374 293.745 693.184 295.595 693.184 295.595L690.899 271.303C689.439 268.028 688.866 250.868 688.866 250.868C688.866 250.868 688.996 249.97 689.184 248.624C689.184 248.591 689.184 248.556 689.2 248.523C689.77 244.765 690.899 237.709 691.453 236.756C692.217 235.446 689.105 231.961 689.105 231.961L690.521 221.602L690.692 220.352C693.677 219.209 695.965 215.556 695.965 215.556L697.721 212.917C699.63 211.866 699.729 222.165 699.729 222.165L697.82 246.481L704.146 244.983C704.146 244.983 716.752 287.093 715.674 290.199Z" fill="black"/>
<path d="M723.867 291.879C715.164 295.586 699.347 292.152 699.347 292.152C697.756 293.408 693.565 295.259 693.565 295.259L691.278 270.966C689.82 267.691 689.248 250.531 689.248 250.531C689.248 250.531 691.087 237.727 691.85 236.419C692.073 236.037 691.965 235.47 691.701 234.858C690.402 231.948 689.925 228.816 690.307 225.717L690.918 221.265L691.087 220.018C694.075 218.872 696.362 215.22 696.362 215.22L697.953 212.829L700.881 208.423L702.268 206.338L702.503 206.521L704.301 207.918C704.301 207.918 705.065 208.464 706.21 209.283C708.702 211.084 713.007 214.256 715.228 216.197C717.182 217.905 717.799 224.552 717.977 229.555C718.095 232.849 718.025 235.431 718.025 235.431C716.055 238.213 721.207 260.542 721.207 260.542C722.406 264.858 723.867 291.879 723.867 291.879Z" fill="white"/>
<path opacity="0.03" d="M707.162 215.166C707.162 215.166 701.189 224.919 701.883 228.625C702.577 232.332 704.549 236.527 703.598 237.507C703.271 237.878 702.848 238.18 702.363 238.387C701.878 238.595 701.343 238.704 700.801 238.705C699.846 238.76 697.301 240.286 697.301 240.449C697.301 240.613 694.949 240.613 692.846 241.377C690.743 242.142 687.637 242.576 687.637 242.576C687.637 242.576 681.592 242.412 681.029 242.903C680.465 243.394 679.886 246.334 681.092 248.679C682.298 251.023 683.638 252.773 684.65 253.092C685.661 253.412 692.083 251.566 697.291 251.13C702.5 250.693 708.154 247.153 708.154 247.153C708.154 247.153 714.381 245.242 715.473 242.03C716.564 238.817 714.14 221.16 714.14 221.16C714.14 221.16 712.307 212.931 707.162 215.166Z" fill="black"/>
<path opacity="0.03" d="M706.398 214.347C706.398 214.347 700.426 224.102 701.126 227.806C701.826 231.51 703.792 235.708 702.838 236.691C702.512 237.062 702.09 237.364 701.605 237.572C701.121 237.78 700.586 237.888 700.044 237.889C699.089 237.943 696.544 239.469 696.544 239.633C696.544 239.797 694.192 239.797 692.089 240.558C689.986 241.32 686.88 241.756 686.88 241.756C686.88 241.756 680.835 241.593 680.275 242.084C679.715 242.575 679.129 245.518 680.338 247.86C681.548 250.201 682.884 251.954 683.896 252.273C684.908 252.592 691.329 250.747 696.538 250.313C701.746 249.879 707.401 246.334 707.401 246.334C707.401 246.334 713.624 244.423 714.703 241.213C715.782 238.003 713.37 220.341 713.37 220.341C713.37 220.341 711.543 212.114 706.398 214.347Z" fill="black"/>
<path d="M706.974 214.672C706.974 214.672 701.001 224.427 701.701 228.131C702.401 231.835 704.368 236.033 703.417 237.013C703.091 237.385 702.669 237.688 702.183 237.896C701.698 238.105 701.162 238.213 700.62 238.214C699.665 238.268 697.12 239.794 697.12 239.955C697.12 240.116 694.771 240.119 692.665 240.883C690.558 241.648 687.456 242.082 687.456 242.082C687.456 242.082 681.41 241.918 680.847 242.409C680.284 242.9 679.705 245.843 680.911 248.185C682.117 250.527 683.456 252.279 684.468 252.598C685.48 252.918 691.901 251.072 697.11 250.636C702.319 250.199 707.973 246.659 707.973 246.659C707.973 246.659 714.2 244.748 715.291 241.536C716.383 238.323 713.974 220.666 713.974 220.666C713.974 220.666 712.116 212.45 706.974 214.672Z" fill="white"/>
<path opacity="0.1" d="M706.844 240.839C706.844 240.839 702.071 240.02 703.732 241.385C705.393 242.75 705.383 243.945 707.416 243.891C709.45 243.836 706.844 240.839 706.844 240.839Z" fill="black"/>
<path opacity="0.1" d="M714.91 270.203C714.91 270.203 712.752 271.456 716.879 274.344C721.006 277.232 714.91 270.203 714.91 270.203Z" fill="black"/>
<path opacity="0.1" d="M710.792 280.5C710.792 280.664 710.029 286.505 712.886 287.965C715.743 289.425 710.792 280.5 710.792 280.5Z" fill="black"/>
<path d="M665.425 234.721C663.121 234.789 658.144 235.392 660.725 239.522C663.006 243.177 666.841 240.734 668.998 238.88C668.472 237.153 667.193 235.664 665.425 234.721V234.721Z" fill="#FFB0B1"/>
<path d="M669.026 238.849L669.121 238.764L669.026 238.849Z" fill="#FFB0B1"/>
<path opacity="0.1" d="M706.21 209.449C703.767 210.882 701.717 212.091 701.316 212.342C700.222 213.038 698.135 217.124 696.789 219.209C695.716 220.888 692.232 221.319 690.918 221.426L691.087 220.178C694.074 219.032 696.362 215.38 696.362 215.38L702.268 206.498L704.301 208.084C704.301 208.084 705.065 208.63 706.21 209.449Z" fill="black"/>
<path d="M706.21 209.285C703.767 210.718 701.717 211.927 701.316 212.181C700.222 212.874 698.135 216.96 696.789 219.045C695.716 220.724 692.232 221.155 690.918 221.261L691.087 220.014C694.074 218.868 696.362 215.216 696.362 215.216L702.268 206.334L704.301 207.914C704.301 207.914 705.065 208.455 706.21 209.285Z" fill="#DCE7FF"/>
<path d="M701.508 202.329C701.509 203.967 700.93 205.567 699.847 206.917C698.568 208.513 696.664 209.662 694.481 210.157C692.299 210.652 689.982 210.459 687.951 209.614C685.919 208.768 684.309 207.326 683.411 205.55C682.513 203.773 682.388 201.779 683.057 199.929C683.727 198.08 685.147 196.497 687.06 195.469C688.973 194.441 691.253 194.036 693.485 194.326C695.717 194.616 697.754 195.583 699.226 197.051C700.698 198.52 701.507 200.392 701.508 202.329V202.329Z" fill="#FFB0B1"/>
<path opacity="0.1" d="M717.977 229.555C716.685 228.873 715.632 227.904 714.932 226.749C714.401 225.848 714.047 224.809 713.14 224.17C712.323 223.597 711.231 223.457 710.213 223.201C706.866 222.352 704.059 219.732 703.954 216.74C703.903 215.332 704.416 213.926 704.183 212.531C704.051 211.742 703.685 210.995 703.121 210.361C702.84 210.058 702.533 209.775 702.201 209.513C701.756 209.152 701.288 208.803 700.881 208.421C700.624 208.184 700.4 207.923 700.212 207.643C700.061 207.414 699.938 207.171 699.846 206.92C699.21 205.249 699.789 203.268 699.089 201.578L699.051 201.485C698.787 200.885 698.249 200.284 697.501 200.238C696.754 200.191 696.114 200.724 695.401 200.961C693.909 201.458 692.299 200.612 691.055 199.749C689.811 198.887 688.407 197.901 686.826 198.092C685.779 198.221 684.952 198.832 683.988 199.149C683.77 199.221 683.545 199.277 683.316 199.315C684.132 197.57 685.631 196.123 687.556 195.222C689.481 194.322 691.711 194.025 693.863 194.381C696.016 194.738 697.956 195.727 699.351 197.178C700.746 198.629 701.509 200.451 701.507 202.331C701.508 202.899 701.439 203.466 701.301 204.021C701.316 204.059 701.332 204.095 701.351 204.133C701.721 204.952 702.137 205.792 702.503 206.518L704.301 207.916C704.301 207.916 705.065 208.462 706.21 209.281C708.702 211.082 713.007 214.254 715.228 216.194C717.181 217.908 717.792 224.552 717.977 229.555Z" fill="black"/>
<path d="M683.877 194.164C684.332 193.37 684.557 192.48 685.102 191.727C685.9 190.635 687.294 189.936 688.726 189.513C692.465 188.408 700.365 186.803 702.726 189.513C703.191 190.059 703.576 190.665 704.219 191.041C704.709 191.328 705.3 191.451 705.838 191.666C707.343 192.272 708.304 193.593 708.816 194.942C709.329 196.29 709.481 197.737 709.857 199.126C710.337 200.908 711.181 202.598 712.021 204.277C713.01 206.258 714.06 208.314 715.969 209.714C718.575 211.624 719.151 214.329 721.569 216.426C724.433 218.915 724.341 223.023 722.865 226.284C722.67 226.713 722.451 227.161 722.527 227.616C722.604 228.072 722.998 228.487 723.37 228.85L724.936 230.365C721.232 231.132 717.042 229.472 715.317 226.56C714.786 225.659 714.432 224.622 713.522 223.981C712.708 223.407 711.613 223.271 710.598 223.014C707.251 222.163 704.444 219.54 704.339 216.548C704.289 215.143 704.801 213.737 704.569 212.345C704.439 211.55 704.072 210.798 703.503 210.161C702.628 209.181 701.307 208.524 700.594 207.432C699.388 205.606 700.305 203.234 699.436 201.274C699.169 200.674 698.634 200.073 697.887 200.027C697.139 199.98 696.499 200.513 695.783 200.75C694.294 201.247 692.684 200.404 691.44 199.538C690.196 198.673 688.793 197.69 687.208 197.884C686.161 198.01 685.337 198.621 684.373 198.941C683.66 199.175 682.216 199.385 681.592 198.87C680.275 197.83 683.326 195.136 683.877 194.164Z" fill="#591D4B"/>
<path opacity="0.1" d="M716.202 225.661C715.667 224.76 715.317 223.723 714.407 223.084C713.592 222.511 712.498 222.372 711.48 222.115C708.135 221.266 705.329 218.643 705.221 215.652C705.17 214.246 705.682 212.838 705.453 211.445C705.32 210.656 704.953 209.909 704.387 209.276C703.509 208.296 702.188 207.638 701.479 206.546C700.273 204.723 701.189 202.351 700.317 200.388C700.053 199.791 699.516 199.19 698.771 199.141C698.026 199.092 697.381 199.63 696.668 199.867C695.179 200.364 693.565 199.518 692.325 198.655C691.084 197.793 689.674 196.807 688.093 196.998C687.046 197.127 686.218 197.738 685.257 198.055C684.545 198.289 683.097 198.502 682.473 197.986C681.162 196.895 684.214 194.206 684.761 193.24C685.216 192.443 685.442 191.556 685.989 190.803C686.018 190.762 686.05 190.721 686.082 190.68C685.672 190.971 685.319 191.315 685.035 191.701C684.491 192.454 684.265 193.338 683.81 194.138C683.259 195.104 680.208 197.801 681.522 198.884C682.158 199.403 683.59 199.19 684.303 198.955C685.257 198.636 686.091 198.025 687.138 197.899C688.729 197.705 690.129 198.691 691.37 199.553C692.611 200.416 694.234 201.262 695.716 200.765C696.429 200.528 697.053 199.993 697.816 200.042C698.58 200.091 699.089 200.689 699.366 201.289C700.235 203.249 699.318 205.621 700.524 207.447C701.237 208.52 702.558 209.191 703.433 210.176C704.002 210.813 704.369 211.565 704.499 212.36C704.731 213.752 704.219 215.158 704.269 216.563C704.374 219.566 707.181 222.178 710.528 223.029C711.537 223.286 712.638 223.422 713.452 223.996C714.366 224.637 714.725 225.674 715.247 226.575C716.972 229.487 721.162 231.147 724.866 230.38L724.128 229.665C720.917 229.706 717.668 228.139 716.202 225.661Z" fill="black"/>
<path opacity="0.1" d="M694.265 213.2C693.848 213.746 692.655 216.541 691.659 218.981C690.727 218.67 689.881 216.686 689.881 216.686L694.851 210.621C695.36 211.222 695.026 212.218 694.265 213.2Z" fill="black"/>
<path d="M694.456 213.04C694.039 213.585 692.846 216.38 691.85 218.821C690.918 218.512 690.072 216.525 690.072 216.525L695.042 210.463C695.551 211.061 695.217 212.06 694.456 213.04Z" fill="#DCE7FF"/>
<path d="M665.558 240.921L662.803 233.467C662.77 233.379 662.758 233.287 662.767 233.196C662.776 233.105 662.806 233.016 662.855 232.934C662.904 232.853 662.971 232.781 663.053 232.722C663.135 232.663 663.229 232.618 663.331 232.59V232.59C663.536 232.535 663.758 232.552 663.949 232.637C664.14 232.722 664.284 232.868 664.349 233.043L667.105 240.489L666.831 242.048L665.558 240.921Z" fill="#BE8B87"/>
<path opacity="0.1" d="M663.063 232.814C663.269 232.758 663.492 232.775 663.683 232.86C663.875 232.945 664.019 233.091 664.085 233.267L666.84 240.713L666.634 241.881L666.834 242.062L667.108 240.503L664.336 233.057C664.27 232.882 664.127 232.736 663.936 232.651C663.745 232.566 663.523 232.549 663.318 232.604V232.604C663.145 232.652 662.996 232.748 662.895 232.877C662.949 232.852 663.005 232.831 663.063 232.814V232.814Z" fill="white"/>
<path d="M665.558 240.922L667.105 240.502L666.879 241.779L666.831 242.06L666.379 241.657L665.558 240.922Z" fill="#EFC8C4"/>
<path d="M666.379 241.656C666.406 241.627 666.44 241.603 666.478 241.585C666.5 241.573 666.526 241.566 666.553 241.566C666.579 241.566 666.605 241.573 666.628 241.585C666.649 241.607 666.667 241.632 666.682 241.659C666.703 241.689 666.731 241.714 666.766 241.734C666.8 241.753 666.838 241.766 666.879 241.771L666.831 242.044L666.379 241.656Z" fill="#727A9C"/>
<path d="M662.787 236.115C662.787 236.115 668.314 236.088 667.012 238.105C665.711 240.122 663.678 240.365 663.678 240.365L662.787 236.115Z" fill="#FFB0B1"/>
<path d="M516.789 250.975H509.658L508.602 238.461H517.845L516.789 250.975Z" fill="#FE1F1A"/>
<path d="M517.977 243.514H508.47V245.439H517.977V243.514Z" fill="#3F3D56"/>
<path d="M518.373 237.739H516.788L516.612 237.258H509.57L509.394 237.739H507.81L507.281 239.183H518.901L518.373 237.739Z" fill="#3F3D56"/>
<path d="M542.882 262.243H535.752L534.695 249.729H543.938L542.882 262.243Z" fill="#FE1F1A"/>
<path d="M544.07 254.783H534.563V256.708H544.07V254.783Z" fill="#3F3D56"/>
<path d="M544.466 249.007H542.882L542.706 248.525H535.664L535.488 249.007H533.903L533.375 250.451H544.995L544.466 249.007Z" fill="#3F3D56"/>
<path d="M517.274 261.143H510.144L509.087 248.629H518.33L517.274 261.143Z" fill="#FE1F1A"/>
<path d="M518.462 253.682H508.956V255.607H518.462V253.682Z" fill="#3F3D56"/>
<path d="M518.858 247.907H517.274L517.098 247.426H510.056L509.88 247.907H508.295L507.767 249.351H519.387L518.858 247.907Z" fill="#3F3D56"/>
<path d="M546.622 231.797L546.615 231.839L546.596 231.96L544.662 244.613L532.814 248.575L532.628 248.494L525.995 245.623L522.565 233.63L522.33 232.807L522.402 232.782L537.076 227.758L546.613 231.792L546.622 231.797Z" fill="#FE1F1A"/>
<path d="M532.628 248.495L525.995 245.625L522.33 232.808L522.401 232.783L531.961 236.459L532.628 248.495Z" fill="#FE1F1A"/>
<path opacity="0.2" d="M532.794 248.348L527.749 239.537L528.397 237.039L525.345 233.764L525.085 233.965L528.025 237.12L525.829 245.588L526.161 245.66L527.629 239.999L532.492 248.492L532.794 248.348Z" fill="black"/>
<path d="M546.622 231.952L546.596 231.96L531.962 236.613L522.565 233.63L522.33 232.807L522.402 232.782L537.076 227.758L546.613 231.792L546.615 231.839L546.622 231.952Z" fill="#3F3D56"/>
<path d="M532.217 236.847L529.234 234.75L529.915 232.419L538.439 229.623L544.235 229.934L546.536 231.72L546.707 232.186L532.217 236.847Z" fill="#FE1F1A"/>
<path d="M522.5 232.809L529.234 232.576L532.881 231.447L538.569 229.624L539.632 228.226L536.978 227.793L522.5 232.809Z" fill="#FE1F1A"/>
<path d="M535.916 230.307L532.405 231.43L532.518 231.723L536.029 230.6L535.916 230.307Z" fill="#CCCCCC"/>
<rect width="2.11233" height="6.98044" rx="1.05617" transform="matrix(0.999267 -0.0382647 0.0460569 0.998939 537.16 238.012)" fill="white"/>
<rect width="1.92563" height="7.6572" rx="0.962815" transform="matrix(-0.0460499 -0.998939 0.999268 -0.0382566 534.593 242.562)" fill="white"/>
<path d="M585.551 239.756L585.544 239.798L585.525 239.919L583.59 252.572L571.743 256.534L571.557 256.453L564.924 253.582L561.494 241.589L561.259 240.766L561.33 240.741L576.004 235.717L585.542 239.751L585.551 239.756Z" fill="#FE1F1A"/>
<path d="M571.557 256.453L564.923 253.582L561.259 240.765L561.33 240.74L570.89 244.416L571.557 256.453Z" fill="#FE1F1A"/>
<path opacity="0.2" d="M571.723 256.305L566.677 247.494L567.325 244.996L564.273 241.721L564.013 241.922L566.954 245.077L564.757 253.545L565.089 253.617L566.557 247.956L571.42 256.449L571.723 256.305Z" fill="black"/>
<path d="M585.551 239.911L585.525 239.919L570.89 244.572L561.494 241.589L561.259 240.766L561.33 240.741L576.004 235.717L585.542 239.751L585.544 239.798L585.551 239.911Z" fill="#3F3D56"/>
<path d="M571.146 244.804L568.162 242.707L568.844 240.376L577.368 237.58L583.164 237.891L585.465 239.677L585.636 240.143L571.146 244.804Z" fill="#FE1F1A"/>
<path d="M561.429 240.766L568.162 240.533L571.81 239.404L577.497 237.581L578.561 236.183L575.907 235.75L561.429 240.766Z" fill="#FE1F1A"/>
<path d="M574.844 238.262L571.333 239.385L571.446 239.678L574.957 238.555L574.844 238.262Z" fill="#CCCCCC"/>
<rect width="2.11233" height="6.98044" rx="1.05617" transform="matrix(0.999267 -0.0382647 0.0460569 0.998939 576.088 245.967)" fill="white"/>
<rect width="1.92563" height="7.6572" rx="0.962815" transform="matrix(-0.0460497 -0.998939 0.999268 -0.0382565 573.522 250.521)" fill="white"/>
<path d="M570.788 242.588L570.78 242.639L570.758 242.786L568.467 258.134L554.441 262.939L554.222 262.841L546.369 259.359L542.309 244.812L542.03 243.813L542.115 243.783L559.487 237.689L570.778 242.583L570.788 242.588Z" fill="#FE1F1A"/>
<path d="M554.222 262.839L546.369 259.357L542.03 243.811L542.115 243.781L553.432 248.24L554.222 262.839Z" fill="#FE1F1A"/>
<path opacity="0.2" d="M554.418 262.661L548.445 251.973L549.212 248.944L545.599 244.971L545.292 245.215L548.773 249.042L546.172 259.313L546.565 259.4L548.303 252.534L554.06 262.836L554.418 262.661Z" fill="black"/>
<path d="M570.788 242.777L570.758 242.786L553.432 248.43L542.309 244.812L542.03 243.813L542.115 243.783L559.487 237.689L570.778 242.583L570.78 242.639L570.788 242.777Z" fill="#3F3D56"/>
<path d="M553.735 248.709L550.203 246.165L551.01 243.339L561.1 239.947L567.962 240.324L570.687 242.491L570.888 243.056L553.735 248.709Z" fill="#FE1F1A"/>
<path d="M542.232 243.812L550.203 243.53L554.521 242.161L561.254 239.949L562.513 238.253L559.372 237.729L542.232 243.812Z" fill="#FE1F1A"/>
<path d="M558.113 240.777L553.957 242.139L554.091 242.494L558.247 241.132L558.113 240.777Z" fill="#CCCCCC"/>
<rect width="1.12206" height="3.79876" rx="0.561031" transform="matrix(0.999231 -0.0392035 0.0449546 0.998989 560.555 249.92)" fill="white"/>
<rect width="1.04793" height="4.06747" rx="0.523965" transform="matrix(-0.0449464 -0.998989 0.999231 -0.0391942 559.192 252.4)" fill="white"/>
<path d="M532.48 156.062H535.446C535.898 156.062 536.278 155.917 536.588 155.625C536.902 155.333 537.06 154.919 537.06 154.381C537.06 153.984 536.896 153.629 536.567 153.314C536.239 152.995 535.866 152.836 535.446 152.836H531.222V161.695H530.73V152.344H535.446C536.002 152.344 536.492 152.551 536.916 152.966C537.34 153.376 537.552 153.848 537.552 154.381C537.552 155.037 537.347 155.563 536.937 155.96C536.526 156.356 536.03 156.555 535.446 156.555H532.48V156.062ZM532.48 157.047H535.446C536.157 157.047 536.768 156.799 537.278 156.302C537.789 155.8 538.044 155.16 538.044 154.381C538.044 153.711 537.782 153.123 537.258 152.617C536.738 152.107 536.135 151.852 535.446 151.852H530.237V161.695H529.745V151.359H535.446C535.989 151.359 536.497 151.498 536.971 151.776C537.449 152.054 537.83 152.428 538.112 152.897C538.395 153.362 538.536 153.857 538.536 154.381C538.536 155.279 538.231 156.031 537.62 156.637C537.014 157.238 536.289 157.539 535.446 157.539H532.48V157.047ZM532.48 158.031H535.446C536.084 158.031 536.677 157.874 537.224 157.56C537.771 157.245 538.208 156.808 538.536 156.247C538.864 155.682 539.028 155.06 539.028 154.381C539.028 153.766 538.864 153.189 538.536 152.651C538.213 152.109 537.775 151.676 537.224 151.353C536.672 151.029 536.08 150.867 535.446 150.867H529.253V161.695H528.761V150.375H535.446C536.162 150.375 536.834 150.56 537.463 150.929C538.092 151.293 538.591 151.785 538.96 152.405C539.334 153.021 539.521 153.679 539.521 154.381C539.521 155.192 539.345 155.905 538.994 156.521C538.648 157.136 538.176 157.617 537.579 157.963L538.851 161.695H538.331L537.114 158.195C536.932 158.268 536.793 158.318 536.697 158.346L537.839 161.695H537.319L536.205 158.462C536.164 158.471 536.018 158.487 535.768 158.51L536.827 161.695H536.308L535.262 158.523H534.817L535.816 161.695H535.296L534.291 158.523H532.48V158.031ZM532.206 161.695H531.714V153.328H535.446C535.752 153.328 536.014 153.433 536.233 153.643C536.456 153.848 536.567 154.094 536.567 154.381C536.567 155.174 536.194 155.57 535.446 155.57H532.48V155.078H535.446C535.642 155.078 535.795 155.028 535.904 154.928C536.018 154.823 536.075 154.641 536.075 154.381C536.075 154.221 536.014 154.089 535.891 153.984C535.772 153.875 535.624 153.82 535.446 153.82H532.206V161.695ZM551.401 150.375H551.894V161.695H551.401V150.375ZM540.573 150.375H541.066V161.695H540.573V150.375ZM550.417 150.375H550.909V161.695H550.417V150.375ZM549.433 150.375H549.925V161.695H549.433V150.375ZM548.448 150.375H548.941V161.695H548.448V157.259H544.019V161.695H543.526V150.375H544.019V154.798H548.448V150.375ZM542.542 150.375H543.034V161.695H542.542V150.375ZM541.558 150.375H542.05V161.695H541.558V150.375ZM548.448 156.767V156.274H544.019V156.767H548.448ZM548.448 155.782V155.29H544.019V155.782H548.448ZM554.601 155.29V154.798H556.631V152.829H557.123V159.228H556.631V157.259H554.594V156.767H556.631V156.274H554.601V155.782H556.631V155.29H554.601ZM559.584 152.829H560.076V154.798H561.977V155.29H560.076V155.782H561.977V156.274H560.076V156.767H561.977V157.259H560.076V159.228H559.584V152.829ZM558.6 152.829H559.092V159.228H558.6V152.829ZM557.615 152.829H558.108V159.228H557.615V152.829Z" fill="white"/>
<path opacity="0.1" d="M503.586 354.639C520.575 354.639 534.347 352.625 534.347 350.14C534.347 347.655 520.575 345.641 503.586 345.641C486.598 345.641 472.826 347.655 472.826 350.14C472.826 352.625 486.598 354.639 503.586 354.639Z" fill="#6C63FF"/>
<path d="M533.331 238.882C533.331 238.882 532.087 238.724 532.087 237.073C532.087 235.423 531.197 232.341 531.197 232.341C531.197 232.327 530.426 226.974 529.363 226.123C528.299 225.272 526.932 220.275 526.932 220.275C526.932 220.275 526.698 217.564 526.221 216.98C525.745 216.397 525.101 214.968 524.151 212.929C523.2 210.891 519.238 209.479 519.238 209.479C519.238 209.479 512.075 205.696 510.046 204.463C509.861 204.361 509.689 204.243 509.531 204.109C509.177 203.686 507.637 203.678 507.637 203.678C507.476 202.752 507.321 201.688 507.271 200.725C507.271 200.622 507.271 200.518 507.255 200.415C509.518 199.196 511.223 197.275 512.056 195.004C512.094 194.895 512.126 194.78 512.161 194.67C512.296 194.63 512.421 194.564 512.527 194.477C512.633 194.389 512.718 194.283 512.776 194.164C512.959 193.794 512.963 193.359 513.19 193.014C513.455 192.606 513.96 192.388 514.358 192.08C515.362 191.304 515.621 189.996 515.573 188.805C515.542 187.842 515.371 186.871 515.438 185.913L515.456 185.672C515.475 185.528 515.497 185.384 515.526 185.246C515.681 184.533 516.018 183.861 516.208 183.153C516.397 182.446 516.416 181.65 515.974 181.04C515.327 180.146 513.979 179.968 512.795 179.876C511.454 179.772 510.254 179.907 509.395 178.893C508.993 178.362 508.541 177.865 508.044 177.406C507.867 177.257 506.15 176.302 506.15 176.239C504.474 175.532 502.574 175.399 500.799 175.865C499.909 176.101 499.069 176.486 498.166 176.679C496.218 177.099 493.977 176.644 492.323 177.659C491.401 178.234 490.848 179.148 490.331 180.04C489.91 180.774 489.483 181.507 489.049 182.239C488.351 183.444 487.641 184.668 487.347 186.002C487.286 186.293 487.248 186.587 487.234 186.882V186.896C487.234 187.003 487.234 187.109 487.234 187.216V187.351C487.234 187.451 487.234 187.549 487.253 187.638C487.272 187.727 487.269 187.756 487.278 187.816C487.288 187.877 487.303 188.012 487.322 188.104C487.341 188.196 487.379 188.357 487.417 188.483C487.433 188.538 487.455 188.59 487.474 188.642C487.505 188.739 487.543 188.834 487.584 188.929C487.606 188.978 487.628 189.03 487.654 189.079C487.701 189.179 487.758 189.277 487.815 189.366C487.84 189.406 487.859 189.444 487.884 189.481C487.972 189.615 488.069 189.743 488.175 189.866C488.85 190.634 489.845 191.123 490.58 191.841C490.58 191.87 490.58 191.899 490.58 191.925C490.58 192.005 490.58 192.083 490.58 192.163C490.619 193.766 491.088 195.336 491.945 196.737C492.802 198.137 494.022 199.326 495.499 200.199C495.499 200.308 495.514 200.42 495.521 200.53C495.582 201.383 495.571 202.239 495.486 203.091C495.357 202.953 495.196 202.843 495.015 202.77C494.834 202.696 494.636 202.661 494.438 202.666C494.302 202.66 494.166 202.67 494.034 202.697L494.005 202.677V202.703C493.311 202.858 492.455 203.517 491.638 205.388C491.638 205.388 489.15 207.941 487.256 207.835C485.362 207.729 480.566 210.491 480.566 210.491C480.566 210.491 475.888 213.257 474.884 216.075C474.323 217.672 473.65 219.236 472.87 220.755L467.087 231.608L466.02 240.219C466.02 240.219 466.61 244.048 466.493 244.632C466.376 245.215 468.921 250.479 468.921 250.479C468.921 250.479 477.328 263.931 480.762 264.621L481.008 264.463C481.155 264.533 481.311 264.586 481.473 264.621L482.18 264.167C482.222 264.673 482.204 265.182 482.126 265.685C481.652 267.013 482.303 275.681 483.13 277.38C483.957 279.079 483.663 301.358 483.663 301.358L483.547 303.324C483.547 303.324 483.547 303.387 483.575 303.497L483.547 303.962L483.632 304.003C483.72 304.626 483.692 305.259 483.547 305.874C483.25 306.737 483.13 309.175 483.13 309.175C483.13 309.175 480.765 322.94 481.886 325.706C483.007 328.471 483.96 331.502 483.96 331.502C483.96 331.502 485.144 334.952 484.017 335.541C482.89 336.13 479.686 337.119 480.346 338.557C480.945 339.885 483.221 343.444 483.559 343.965L483.531 344.238L483.067 348.818C483.142 349.422 483.322 350.012 483.6 350.566C484.109 351.563 485.097 352.598 486.975 352.486C487.291 352.466 487.657 352.431 488.01 352.388C491.448 351.968 495.682 350.571 495.682 350.571C495.462 350.444 495.26 350.292 495.082 350.12V350.12C494.913 349.971 494.779 349.792 494.688 349.594C494.598 349.397 494.552 349.184 494.555 348.97C494.605 348.136 492.891 344.163 492.465 343.185C492.399 343.045 492.364 342.964 492.364 342.964C492.364 342.964 496.272 339.244 495.622 335.946C495.622 335.946 491.297 333.646 492.721 332.384C494.144 331.122 496.689 327.497 496.689 327.497C496.689 327.497 496.806 313.941 496.689 311.917C496.567 310.513 496.64 309.099 496.907 307.711C496.954 307.501 497.011 307.297 497.071 307.096C499.04 307.364 501.027 307.501 503.018 307.507C503.744 307.507 504.483 307.507 505.228 307.467C505.228 307.659 505.238 307.866 505.257 308.088C505.421 311.446 505.727 317.334 505.976 319.522C506.33 322.658 508.284 331.111 508.284 331.111C508.284 331.111 504.556 333.29 508.934 338.66C508.934 338.66 508.934 340.607 508.644 340.888C508.334 341.809 508.084 342.746 507.896 343.694C507.713 344.706 507.637 345.73 507.934 346.262C508.644 347.532 512.906 347.429 512.906 347.429L513.01 347.412C513.814 347.336 514.628 347.406 515.402 347.619C516.176 347.832 516.897 348.183 517.521 348.651C519.141 349.835 525.287 349.315 528.614 348.938C529.918 348.789 530.789 348.651 530.789 348.651C530.832 348.516 530.847 348.376 530.834 348.237C530.799 347.492 530.158 345.859 525.814 344.402C525.814 344.402 521.729 341.9 521.786 339.721H521.701H521.227C521.571 339.704 521.792 339.721 521.792 339.721C521.792 339.721 520.192 334.402 520.845 333.971C521.499 333.54 519.541 327.646 519.541 327.646C519.541 327.646 518.421 317.756 518.361 317.064C518.363 316.469 518.462 315.878 518.654 315.31L518.361 309.888C518.361 309.888 518.304 308.085 518.361 307.498C518.351 306.989 518.306 306.481 518.225 305.978C518.197 305.776 518.168 305.567 518.137 305.36C519.668 305.006 520.662 304.678 520.662 304.678L520.485 285.804C521.786 283.504 522.026 278.458 522.02 274.879C522.02 272.579 521.906 270.877 521.906 270.877L523.683 268.235C523.683 268.235 524.094 265.073 523.443 264.38C523.156 264.066 523.286 263.741 523.522 263.474C523.645 263.385 523.775 263.305 523.911 263.233C523.911 263.233 523.892 263.207 523.87 263.169C523.994 263.075 524.126 262.989 524.264 262.914C524.264 262.914 523.633 262.022 524.198 261.646C524.728 261.973 525.202 262.221 525.562 262.422C525.536 262.632 525.511 262.753 525.511 262.753L525.663 262.465C526.01 262.643 526.221 262.753 526.221 262.753C526.221 262.753 529.006 257.701 528.946 256.957C528.886 256.212 530.84 253.075 530.84 253.075C530.84 253.075 531.077 251.428 532.144 250.738C533.211 250.048 532.971 245.048 532.971 245.048C532.971 245.048 533.268 242.444 533.978 241.38C534.688 240.316 533.331 238.882 533.331 238.882ZM480.055 236.665L480.109 237.87C479.793 237.407 479.566 237.073 479.566 237.073L480.055 236.665Z" fill="url(#paint1_linear)"/>
<path d="M526.373 260.572L525.691 263.217C525.691 263.217 520.23 260.678 519.245 257.452C518.26 254.227 520.893 253.002 520.893 253.002L525.982 254.966L526.373 260.572Z" fill="white"/>
<path opacity="0.1" d="M526.373 260.572L525.691 263.217C525.691 263.217 520.23 260.678 519.245 257.452C518.26 254.227 520.893 253.002 520.893 253.002L525.982 254.966L526.373 260.572Z" fill="black"/>
<path d="M495.723 350.591C495.723 350.591 490.671 352.281 487.199 352.494C485.355 352.606 484.386 351.577 483.887 350.585C483.615 350.034 483.439 349.447 483.366 348.846L483.818 344.289L484.058 341.862L491.435 340.117L492.48 343.027L492.578 343.248C492.998 344.22 494.681 348.173 494.63 348.998C494.628 349.209 494.673 349.419 494.762 349.614C494.851 349.809 494.982 349.986 495.148 350.134C495.317 350.308 495.51 350.461 495.723 350.591V350.591Z" fill="white"/>
<path d="M530.224 348.271C530.237 348.409 530.222 348.548 530.18 348.682C530.18 348.682 519.377 350.323 517.167 348.682C516.544 348.202 515.818 347.847 515.035 347.638C514.252 347.429 513.43 347.371 512.622 347.469C512.622 347.469 508.442 347.572 507.744 346.319C507.454 345.792 507.529 344.772 507.709 343.766C507.893 342.823 508.138 341.891 508.442 340.974L508.609 340.853L509.604 340.126L521.246 339.812H521.335C521.278 341.98 525.287 344.467 525.287 344.467C529.546 345.905 530.174 347.529 530.224 348.271Z" fill="white"/>
<path opacity="0.1" d="M530.224 348.271C530.235 348.409 530.219 348.548 530.177 348.682C530.177 348.682 519.377 350.323 517.168 348.682C516.545 348.203 515.819 347.847 515.037 347.638C514.255 347.429 513.433 347.372 512.625 347.469C512.625 347.469 508.442 347.572 507.747 346.319C507.457 345.79 507.53 344.772 507.709 343.766C509.319 343.912 511.861 344.277 512.858 345.148C514.367 346.474 516.924 347.796 518.493 347.9C519.721 347.972 527.068 348.184 530.224 348.271Z" fill="black"/>
<path opacity="0.1" d="M495.723 350.589C495.723 350.589 490.672 352.28 487.199 352.492C485.355 352.605 484.386 351.575 483.891 350.581C485.175 350.974 486.959 351.388 487.897 351.009C489.008 350.56 492.948 350.27 495.158 350.146C495.326 350.314 495.515 350.463 495.723 350.589V350.589Z" fill="black"/>
<path d="M503.217 214.359C499.05 212.884 493.69 208.011 495.028 205.734C495.326 205.16 495.502 204.54 495.549 203.906C495.635 203.046 495.648 202.18 495.587 201.318C495.493 199.906 495.307 198.501 495.028 197.109C495.028 197.109 508.038 197.377 507.28 199.122C507.059 199.634 507.025 200.522 507.085 201.517C507.144 202.511 507.302 203.636 507.466 204.587C507.694 205.892 507.921 206.887 507.921 206.887C507.921 206.887 507.126 207.902 506.658 207.957C506.191 208.011 509.196 216.461 503.217 214.359Z" fill="#CF6F80"/>
<path opacity="0.1" d="M492.569 343.248L492.471 343.346C488.582 339.062 483.878 344.401 483.878 344.401L483.809 344.289L484.049 341.862L491.426 340.117L492.471 343.027L492.569 343.248Z" fill="black"/>
<path opacity="0.1" d="M521.338 340.116C521.338 340.116 518.497 340.061 516.981 341.28C515.466 342.499 508.142 341.545 508.458 341.28C508.551 341.149 508.608 340.999 508.622 340.843L509.616 340.116L521.259 339.803C521.303 339.995 521.338 340.116 521.338 340.116Z" fill="black"/>
<path d="M497.409 306.475C497.197 306.951 497.036 307.445 496.929 307.95C496.665 309.331 496.592 310.738 496.711 312.136C496.828 314.148 496.711 327.635 496.711 327.635C496.711 327.635 494.214 331.231 492.822 332.499C491.429 333.767 495.663 336.044 495.663 336.044C496.294 339.321 492.468 343.024 492.468 343.024C488.579 338.741 483.875 344.082 483.875 344.082C483.875 344.082 481.318 340.057 480.68 338.62C480.043 337.182 483.177 336.188 484.279 335.604C485.381 335.02 484.225 331.579 484.225 331.579C484.225 331.579 483.294 328.563 482.189 325.812C481.084 323.061 483.408 309.364 483.408 309.364C483.408 309.364 483.528 306.932 483.815 306.084C483.96 305.472 483.989 304.842 483.9 304.221C483.881 304.011 483.859 303.836 483.843 303.718C483.828 303.6 483.815 303.545 483.815 303.545L483.859 303.476L485.438 300.797C485.438 300.797 498.166 304.787 497.409 306.475Z" fill="#6C63FF"/>
<path d="M521.338 339.799C521.338 339.799 518.496 339.745 516.981 340.949C515.466 342.154 508.142 341.214 508.457 340.949C508.773 340.685 508.748 338.727 508.748 338.727C504.451 333.385 508.117 331.218 508.117 331.218C508.117 331.218 506.197 322.808 505.85 319.689C505.607 317.51 505.307 311.654 505.146 308.31C505.076 306.872 505.035 305.883 505.035 305.883L508.546 305.239L508.997 305.156L517.464 303.609C517.464 303.609 517.698 305.047 517.856 306.223C517.934 306.725 517.979 307.231 517.988 307.738C517.931 308.313 517.988 310.113 517.988 310.113L518.275 315.509C518.088 316.075 517.991 316.663 517.988 317.254C518.045 317.941 519.147 327.779 519.147 327.779C519.147 327.779 521.063 333.65 520.409 334.073C519.756 334.495 521.338 339.799 521.338 339.799Z" fill="#6C63FF"/>
<path opacity="0.1" d="M507.28 199.122C507.059 199.634 507.024 200.522 507.084 201.517C505.342 202.472 503.338 202.961 501.305 202.926C499.271 202.892 497.289 202.335 495.587 201.321C495.493 199.908 495.307 198.502 495.028 197.109C495.028 197.109 508.038 197.371 507.28 199.122Z" fill="black"/>
<path d="M512.309 192.77C512.312 193.806 512.133 194.836 511.779 195.82C510.988 198.026 509.366 199.907 507.2 201.129C505.034 202.352 502.463 202.838 499.941 202.501C497.42 202.164 495.111 201.026 493.421 199.289C491.732 197.551 490.771 195.326 490.71 193.006C490.71 192.925 490.71 192.85 490.71 192.77C490.685 191.464 490.946 190.167 491.478 188.954C492.01 187.741 492.802 186.636 493.807 185.705C494.813 184.773 496.012 184.034 497.334 183.529C498.657 183.024 500.077 182.764 501.511 182.764C502.945 182.764 504.365 183.024 505.688 183.529C507.01 184.034 508.209 184.773 509.215 185.705C510.22 186.636 511.012 187.741 511.544 188.954C512.075 190.167 512.337 191.464 512.312 192.77H512.309Z" fill="#CF6F80"/>
<path opacity="0.1" d="M503.217 214.36C499.05 212.885 493.69 208.012 495.028 205.735C495.326 205.16 495.502 204.54 495.549 203.906L501.254 208.176L504.783 210.812L507.466 204.59C507.694 205.896 507.921 206.89 507.921 206.89C507.921 206.89 507.126 207.905 506.658 207.96C506.191 208.015 509.196 216.461 503.217 214.36Z" fill="black"/>
<path d="M517.969 233.226L513.206 306.107L506.993 306.477L490.905 264.218L493.544 214.047L494.1 203.447L501.254 208.798L504.786 211.434L507.548 205.031L512.685 209.108L517.969 233.226Z" fill="#6C63FF"/>
<path opacity="0.1" d="M497.409 306.475C497.197 306.952 497.036 307.446 496.929 307.95C492.408 307.315 488.017 306.065 483.903 304.244L483.818 304.204L483.847 303.741L483.862 303.5L485.441 300.82C485.441 300.82 498.166 304.788 497.409 306.475Z" fill="black"/>
<path opacity="0.1" d="M508.619 307.962C507.463 308.141 506.297 308.262 505.127 308.324C505.058 306.887 505.017 305.898 505.017 305.898L508.527 305.254L508.619 307.962Z" fill="black"/>
<path opacity="0.1" d="M517.837 306.238C515.592 306.77 512.126 307.368 509.023 306.994L508.979 305.172L517.445 303.625C517.445 303.625 517.679 305.048 517.837 306.238Z" fill="black"/>
<path opacity="0.1" d="M508.966 307.327C496.022 309.34 484.168 303.57 484.168 303.57L484.282 301.615C484.282 301.615 484.576 279.451 483.761 277.752C482.947 276.053 482.312 267.437 482.773 266.115C483.234 264.792 481.09 244.961 481.09 244.961L480.743 236.911L468.033 232.222L473.716 221.435C474.483 219.922 475.143 218.367 475.692 216.777C476.68 213.977 481.267 211.226 481.267 211.226C481.267 211.226 485.971 208.477 487.83 208.581C489.69 208.684 492.127 206.148 492.127 206.148C493.926 201.971 495.555 203.863 495.555 203.863C495.555 204.061 495.555 203.863 495.467 204.481C494.835 209.067 505.676 223.556 505.831 223.812L506.863 246.714L507.908 275.697L508.966 307.327Z" fill="black"/>
<path d="M508.618 307.329C495.675 309.341 483.818 303.571 483.818 303.571L483.935 301.616C483.935 301.616 484.228 279.453 483.411 277.754C482.593 276.055 481.962 267.439 482.426 266.116C482.89 264.794 480.743 244.962 480.743 244.962L480.393 236.912L467.677 232.206L473.359 221.419C474.125 219.906 474.785 218.35 475.335 216.762C476.32 213.961 480.91 211.21 480.91 211.21C480.91 211.21 485.614 208.462 487.47 208.565C489.327 208.669 491.767 206.133 491.767 206.133C493.57 201.955 495.555 203.847 495.555 203.847C495.555 204.046 495.366 204.135 495.467 204.465C496.856 208.913 505.329 223.541 505.484 223.797L506.529 246.699L507.574 275.681L508.618 307.329Z" fill="white"/>
<path opacity="0.1" d="M505.13 224.449C503.738 223.92 496.363 216.253 496.363 216.253V214.508C496.095 213.933 494.501 214.283 493.207 214.686L493.762 204.086L494.394 204.563C495.776 209.008 504.969 224.193 505.13 224.449Z" fill="black"/>
<path d="M505.481 223.811C504.085 223.282 496.711 215.614 496.711 215.614V213.869C496.443 213.294 494.848 213.645 493.554 214.047L494.113 203.447L494.744 203.925C496.13 208.369 505.326 223.558 505.481 223.811Z" fill="white"/>
<path opacity="0.1" d="M484.168 262.052C484.342 262.052 493.169 261.207 493.169 261.207C493.169 261.207 498.513 270.778 498.163 273.107C497.812 275.435 497.178 277.497 495.028 277.131C492.878 276.766 483.458 277.419 483.458 277.419L484.168 262.052Z" fill="black"/>
<path d="M483.818 261.418C483.992 261.418 492.819 260.572 492.819 260.572C492.819 260.572 498.16 270.146 497.813 272.472C497.465 274.798 496.825 276.862 494.678 276.497C492.531 276.132 483.108 276.784 483.108 276.784L483.818 261.418Z" fill="white"/>
<path d="M490.47 256.922C490.47 256.922 498.57 260.886 498.744 262.097C498.918 263.307 494.621 261.568 493.693 261.358C493.082 261.224 492.46 261.135 491.833 261.093L485.643 261.246L490.47 256.922Z" fill="#CF6F80"/>
<path opacity="0.1" d="M502.87 224.943C503.341 224.943 503.722 224.596 503.722 224.167C503.722 223.738 503.341 223.391 502.87 223.391C502.399 223.391 502.018 223.738 502.018 224.167C502.018 224.596 502.399 224.943 502.87 224.943Z" fill="black"/>
<path d="M502.87 224.627C503.341 224.627 503.722 224.279 503.722 223.85C503.722 223.422 503.341 223.074 502.87 223.074C502.399 223.074 502.018 223.422 502.018 223.85C502.018 224.279 502.399 224.627 502.87 224.627Z" fill="#3F3D56"/>
<path opacity="0.1" d="M504.439 258.543C504.91 258.543 505.291 258.195 505.291 257.766C505.291 257.338 504.91 256.99 504.439 256.99C503.968 256.99 503.586 257.338 503.586 257.766C503.586 258.195 503.968 258.543 504.439 258.543Z" fill="black"/>
<path d="M504.439 258.224C504.91 258.224 505.291 257.877 505.291 257.448C505.291 257.019 504.91 256.672 504.439 256.672C503.968 256.672 503.586 257.019 503.586 257.448C503.586 257.877 503.968 258.224 504.439 258.224Z" fill="#3F3D56"/>
<path opacity="0.1" d="M503.719 241.742C504.19 241.742 504.571 241.394 504.571 240.966C504.571 240.537 504.19 240.189 503.719 240.189C503.248 240.189 502.867 240.537 502.867 240.966C502.867 241.394 503.248 241.742 503.719 241.742Z" fill="black"/>
<path d="M503.719 241.427C504.19 241.427 504.571 241.08 504.571 240.651C504.571 240.223 504.19 239.875 503.719 239.875C503.248 239.875 502.867 240.223 502.867 240.651C502.867 241.08 503.248 241.427 503.719 241.427Z" fill="#3F3D56"/>
<path d="M523.368 260.931C523.368 260.931 523.949 261.725 523.368 262.095C522.787 262.466 523.425 263.363 523.425 263.363C523.425 263.363 521.976 264.137 522.613 264.832C523.251 265.528 522.847 268.67 522.847 268.67L521.104 271.298C521.104 271.298 521.208 272.992 521.215 275.28C521.215 278.851 520.984 283.87 519.709 286.159L519.886 304.935C519.886 304.935 513.783 306.965 508.676 306.347L507.918 276.217C507.918 276.217 509.023 259.131 509.43 255.854C509.668 254.152 509.766 252.437 509.721 250.722C509.721 250.722 509.547 245.593 508.963 243.213C508.963 243.213 508.332 232.9 508.268 230.045C508.24 228.68 508.319 224.695 508.407 220.906C508.505 216.763 508.616 212.856 508.616 212.856L507.463 204.553C507.463 204.553 508.616 204.447 508.963 204.869C509.118 205.002 509.288 205.12 509.468 205.223V205.223C511.457 206.448 518.484 210.214 518.484 210.214C518.484 210.214 522.373 211.622 523.305 213.641C524.236 215.659 524.883 217.091 525.335 217.666C525.786 218.241 526.032 220.943 526.032 220.943C526.032 220.943 527.371 225.917 528.416 226.759C529.461 227.602 530.225 232.96 530.225 232.96L520.991 239.573C520.991 239.573 520.179 250.573 520.006 250.998C519.832 251.424 523.368 260.931 523.368 260.931Z" fill="white"/>
<path d="M523.718 260.933C523.718 260.933 524.296 261.726 523.718 262.097C523.14 262.468 523.772 263.365 523.772 263.365C523.772 263.365 522.332 264.147 522.964 264.843C523.595 265.538 523.197 268.681 523.197 268.681L521.455 271.309C521.455 271.309 521.559 273.002 521.568 275.29C521.568 278.861 521.338 283.881 520.062 286.169L520.236 304.946C520.236 304.946 514.124 306.975 509.023 306.357L508.268 276.228C508.268 276.228 509.373 259.142 509.78 255.864C510.019 254.163 510.115 252.447 510.068 250.732C510.068 250.732 509.894 245.603 509.313 243.223C509.313 243.223 508.682 232.91 508.616 230.056C508.587 228.69 508.669 224.705 508.754 220.916C508.852 216.773 508.963 212.866 508.963 212.866L507.441 204.451C507.441 204.451 508.963 204.451 509.313 204.88C509.467 205.013 509.637 205.132 509.818 205.233C511.807 206.458 518.838 210.224 518.838 210.224C518.838 210.224 522.724 211.633 523.655 213.651C524.586 215.669 525.233 217.101 525.688 217.676C526.143 218.251 526.383 220.953 526.383 220.953C526.383 220.953 527.721 225.927 528.766 226.77C529.811 227.612 530.565 232.959 530.565 232.959L521.331 239.572C521.331 239.572 520.52 250.571 520.343 250.997C520.167 251.422 523.718 260.933 523.718 260.933Z" fill="white"/>
<path opacity="0.1" d="M512.659 215.308L513.493 217.522L509.105 221.547C509.203 217.407 509.313 213.497 509.313 213.497L507.792 205.082C507.792 205.082 509.313 205.082 509.664 205.51C509.817 205.644 509.987 205.762 510.169 205.861L513.9 215.665L512.659 215.308Z" fill="black"/>
<path d="M512.309 214.672L513.146 216.885L508.758 220.91C508.855 216.767 508.966 212.86 508.966 212.86L507.441 204.445C507.441 204.445 508.966 204.445 509.313 204.874C509.468 205.007 509.637 205.125 509.818 205.227L513.553 215.028L512.309 214.672Z" fill="white"/>
<path opacity="0.1" d="M512.309 192.77C512.312 193.806 512.133 194.836 511.779 195.82C511.719 195.829 511.658 195.826 511.6 195.813C511.541 195.8 511.486 195.776 511.438 195.743C511.356 193.155 509.957 190.726 508.237 188.659C507.754 188.035 507.168 187.482 506.5 187.02C505.825 186.558 504.986 186.342 504.145 186.413C503.198 186.531 502.362 187.118 501.405 187.193C500.142 187.287 499.012 186.491 497.759 186.451C497.249 186.455 496.747 186.559 496.285 186.754C495.822 186.949 495.411 187.232 495.079 187.584C494.42 188.293 493.931 189.119 493.642 190.01C493.146 191.361 492.876 192.772 492.84 194.196C492.825 195.001 492.739 196.01 491.919 196.303C491.98 195.711 491.907 195.114 491.702 194.549C491.497 193.985 491.165 193.465 490.729 193.023L490.71 193.006C490.71 192.925 490.71 192.85 490.71 192.77C490.685 191.464 490.946 190.167 491.478 188.954C492.01 187.741 492.802 186.636 493.807 185.705C494.813 184.773 496.012 184.034 497.334 183.529C498.657 183.024 500.077 182.764 501.511 182.764C502.945 182.764 504.365 183.024 505.688 183.529C507.01 184.034 508.209 184.773 509.215 185.705C510.22 186.636 511.012 187.741 511.544 188.954C512.075 190.167 512.337 191.464 512.312 192.77H512.309Z" fill="black"/>
<path d="M505.983 177.148C504.342 176.445 502.476 176.313 500.736 176.774C499.861 177.01 499.037 177.393 498.15 177.585C496.256 178.002 494.046 177.551 492.421 178.56C491.518 179.135 490.975 180.043 490.47 180.926L489.207 183.117C488.519 184.315 487.824 185.534 487.537 186.854C487.25 188.174 487.423 189.651 488.342 190.712C489.011 191.486 489.999 191.971 490.725 192.699C491.16 193.141 491.49 193.661 491.695 194.225C491.899 194.789 491.973 195.385 491.912 195.976C492.736 195.689 492.815 194.677 492.834 193.872C492.869 192.448 493.14 191.037 493.636 189.686C493.924 188.795 494.413 187.968 495.072 187.259C495.405 186.908 495.816 186.626 496.279 186.43C496.741 186.235 497.243 186.131 497.753 186.127C499.015 186.167 500.149 186.96 501.399 186.866C502.346 186.794 503.186 186.204 504.139 186.089C504.98 186.017 505.82 186.233 506.494 186.696C507.161 187.157 507.746 187.71 508.227 188.335C509.951 190.402 511.349 192.825 511.431 195.419C511.788 195.657 512.303 195.347 512.479 194.979C512.656 194.611 512.663 194.179 512.887 193.829C513.146 193.423 513.641 193.208 514.03 192.903C515.014 192.13 515.261 190.827 515.223 189.646C515.185 188.464 514.932 187.265 515.179 186.104C515.327 185.391 515.662 184.724 515.845 184.019C516.028 183.315 516.05 182.524 515.617 181.918C514.986 181.026 513.657 180.851 512.498 180.768C511.182 180.664 510.004 180.796 509.165 179.787C508.771 179.261 508.327 178.766 507.839 178.31C507.672 178.16 505.983 177.211 505.983 177.148Z" fill="#512E4E"/>
<path opacity="0.1" d="M471.67 237.775L468.371 232.221L467.326 240.791C467.326 240.791 467.907 244.597 467.79 245.181C467.674 245.765 470.171 250.997 470.171 250.997C470.171 250.997 478.42 264.377 481.788 265.067L493.169 257.661L490.151 254.171C490.151 254.171 489.106 253.8 488.844 254.171C488.844 254.171 483.24 245.391 482.659 244.756C482.079 244.12 482.192 242.852 482.192 242.852C482.192 242.852 481.321 242.007 481.611 241.214C481.902 240.42 479.929 237.669 479.929 237.669L481.728 236.136L471.67 237.775Z" fill="black"/>
<path d="M468.545 231.588L467.674 232.22L466.629 240.791C466.629 240.791 467.21 244.597 467.093 245.181C466.976 245.764 469.476 250.997 469.476 250.997C469.476 250.997 477.722 264.377 481.09 265.067L492.474 257.661L489.453 254.171C489.453 254.171 488.408 253.8 488.146 254.171C488.146 254.171 482.543 245.391 481.962 244.755C481.381 244.12 481.498 242.852 481.498 242.852C481.498 242.852 480.626 242.007 480.917 241.213C481.207 240.42 479.231 237.668 479.231 237.668L481.03 236.136L468.545 231.588Z" fill="white"/>
<path opacity="0.1" d="M522.613 265.163C523.244 265.862 522.847 268.998 522.847 268.998L521.104 271.626C521.104 271.626 521.208 273.322 521.214 275.608L518.285 276.442C518.02 276.517 517.739 276.534 517.466 276.49C517.193 276.446 516.935 276.344 516.714 276.191C516.493 276.038 516.316 275.84 516.196 275.612C516.077 275.384 516.019 275.133 516.028 274.881L516.533 260.043L523.367 262.423C522.787 262.791 523.424 263.694 523.424 263.694C523.424 263.694 521.975 264.465 522.613 265.163Z" fill="black"/>
<path d="M522.963 264.844C523.595 265.543 523.197 268.682 523.197 268.682L521.454 271.31C521.454 271.31 521.559 273.003 521.568 275.292L518.585 276.14C518.326 276.213 518.051 276.229 517.783 276.186C517.516 276.143 517.264 276.043 517.047 275.893C516.831 275.744 516.658 275.549 516.541 275.326C516.424 275.103 516.367 274.857 516.375 274.61L516.883 259.727L523.721 262.107C523.137 262.475 523.775 263.375 523.775 263.375C523.775 263.375 522.332 264.148 522.963 264.844Z" fill="white"/>
<path d="M525.227 257.77C525.227 257.77 524.763 260.47 523.601 260.628C522.439 260.786 521.919 264.995 520.76 264.845C519.601 264.696 520.369 260.933 520.41 260.202C520.451 259.472 519.147 256.448 520.122 255.76C521.098 255.073 524.185 255.76 524.185 255.76L525.227 257.77Z" fill="#CF6F80"/>
<path opacity="0.1" d="M527.699 236.982L529.89 232.957C529.89 232.957 530.761 236.025 530.761 237.663C530.761 239.302 531.98 239.463 531.98 239.463C531.98 239.463 533.315 240.901 532.611 241.947C531.907 242.994 531.623 245.598 531.623 245.598C531.623 245.598 531.853 250.569 530.808 251.256C529.763 251.943 529.546 253.585 529.546 253.585C529.546 253.585 527.626 256.704 527.686 257.446C527.746 258.188 525.016 263.21 525.016 263.21C525.016 263.21 526.351 256.969 518.569 254.272C518.569 254.272 518.509 252.153 519.09 251.572C519.671 250.992 520.577 250.727 520.009 247.792C519.44 244.857 519.845 241.349 519.845 240.645C519.845 239.94 521.587 235.547 521.587 235.547L527.699 236.982Z" fill="black"/>
<path d="M528.646 232.383L530.559 232.958C530.559 232.958 531.433 236.025 531.433 237.664C531.433 239.303 532.652 239.464 532.652 239.464C532.652 239.464 533.987 240.901 533.283 241.948C532.579 242.994 532.298 245.599 532.298 245.599C532.298 245.599 532.529 250.57 531.484 251.257C530.439 251.944 530.205 253.586 530.205 253.586C530.205 253.586 528.289 256.705 528.349 257.447C528.409 258.189 525.675 263.211 525.675 263.211C525.675 263.211 527.014 256.97 519.229 254.273C519.229 254.273 519.172 252.154 519.753 251.573C520.334 250.992 521.24 250.728 520.672 247.793C520.103 244.857 520.507 241.35 520.507 240.645C520.507 239.941 522.25 235.548 522.25 235.548L528.646 232.383Z" fill="white"/>
<path opacity="0.1" d="M486.391 336.707C486.391 336.707 489.44 334.961 491.442 336.229C493.443 337.497 486.391 336.707 486.391 336.707Z" fill="black"/>
<path opacity="0.1" d="M510.087 331.312C510.087 331.312 512.786 330.996 515.052 333.219C517.319 335.441 510.087 331.312 510.087 331.312Z" fill="black"/>
<g opacity="0.1">
<path opacity="0.1" d="M514.036 192.274C513.647 192.578 513.149 192.797 512.89 193.202C512.669 193.55 512.662 193.979 512.486 194.352C512.309 194.726 511.794 195.031 511.438 194.795C511.355 192.208 509.954 189.778 508.233 187.708C507.752 187.084 507.168 186.531 506.5 186.07C505.825 185.607 504.984 185.391 504.142 185.463C503.195 185.581 502.361 186.167 501.405 186.239C500.142 186.337 499.009 185.541 497.756 185.5C497.246 185.505 496.744 185.609 496.282 185.804C495.821 186 495.41 186.284 495.079 186.636C494.42 187.344 493.93 188.169 493.642 189.059C493.146 190.41 492.876 191.821 492.84 193.245C492.821 194.048 492.739 195.048 491.925 195.347C491.944 195.559 491.944 195.773 491.925 195.985C492.746 195.698 492.828 194.686 492.847 193.881C492.882 192.457 493.152 191.046 493.648 189.695C493.937 188.804 494.426 187.977 495.085 187.268C495.417 186.917 495.828 186.635 496.289 186.439C496.751 186.244 497.253 186.14 497.762 186.136C499.025 186.176 500.161 186.969 501.411 186.875C502.358 186.803 503.198 186.213 504.148 186.098C504.99 186.026 505.831 186.242 506.506 186.705C507.174 187.166 507.759 187.719 508.24 188.344C509.96 190.411 511.362 192.834 511.444 195.428C511.801 195.666 512.315 195.356 512.492 194.988C512.669 194.62 512.675 194.188 512.896 193.838C513.155 193.432 513.654 193.217 514.042 192.912C515.027 192.139 515.273 190.836 515.235 189.655C515.235 189.617 515.235 189.58 515.235 189.545C515.175 190.569 514.875 191.612 514.036 192.274Z" fill="black"/>
<path opacity="0.1" d="M490.732 192.069C490.006 191.341 489.014 190.856 488.348 190.085C487.787 189.403 487.467 188.582 487.43 187.73C487.33 188.794 487.657 189.855 488.348 190.718C489.014 191.491 490.006 191.977 490.732 192.704C491.429 193.416 491.847 194.317 491.922 195.269C491.97 194.69 491.89 194.108 491.685 193.558C491.481 193.008 491.156 192.502 490.732 192.069V192.069Z" fill="black"/>
<path opacity="0.1" d="M515.851 183.392C515.665 184.096 515.333 184.766 515.182 185.476C515.092 185.95 515.059 186.432 515.084 186.913C515.094 186.639 515.127 186.366 515.182 186.097C515.333 185.384 515.665 184.717 515.851 184.013C515.96 183.624 515.995 183.222 515.955 182.822C515.936 183.014 515.901 183.204 515.851 183.392V183.392Z" fill="black"/>
</g>
<path d="M298.762 205.552C298.762 205.552 299.798 206.664 298.023 208.816C296.247 210.967 297.681 215.636 301.054 215.755C304.427 215.874 306.062 217.197 305.249 218.939C304.436 220.682 303.459 224.823 307.132 224.193C310.805 223.564 311.966 224.933 311.316 225.986C310.666 227.038 312.954 223.893 312.954 223.893C312.954 223.893 315.001 226.748 317.513 224.749C320.026 222.75 321.024 204.629 315.903 204.322C310.781 204.015 298.762 205.552 298.762 205.552Z" fill="#2F2E41"/>
<path d="M324.727 291.73L325.894 299.381H331.146L329.396 290.637L324.727 291.73Z" fill="#9F616A"/>
<path d="M331.73 294.734C331.73 294.734 338.733 300.746 336.982 301.292C335.232 301.839 328.812 308.397 327.645 308.944C326.601 309.432 315.39 312.769 317.141 308.944C318.891 305.118 322.976 302.932 322.976 302.932L324.144 296.374L331.73 294.734Z" fill="#F2F2F2"/>
<path opacity="0.1" d="M331.73 294.734C331.73 294.734 338.733 300.746 336.982 301.292C335.232 301.839 328.812 308.397 327.645 308.944C326.601 309.432 315.39 312.769 317.141 308.944C318.891 305.118 322.976 302.932 322.976 302.932L324.144 296.374L331.73 294.734Z" fill="black"/>
<path d="M331.73 285.99L332.897 293.641H338.15L336.399 284.896L331.73 285.99Z" fill="#9F616A"/>
<path d="M309.784 265.68L317.433 241.996C317.433 241.996 304.594 231.066 313.347 227.787C322.101 224.508 324.436 240.903 324.436 240.903L321.518 269.322H309.846L309.784 265.68Z" fill="#FFB8B8"/>
<path d="M327.645 248.279C327.645 248.279 312.562 266.396 314.851 269.087C317.141 271.779 321.226 288.174 321.226 288.174C321.226 288.174 320.642 294.732 322.977 294.732C325.311 294.732 331.147 293.639 331.147 292C331.147 290.36 325.894 269.593 325.894 269.593L341.068 251.012L327.645 248.279Z" fill="#6C63FF"/>
<path d="M328.812 249.374L343.986 241.723C343.986 241.723 354.49 246.641 351.572 251.013C348.654 255.385 335.232 266.862 335.232 266.862C335.232 266.862 339.317 285.443 338.733 285.99C338.15 286.536 331.73 288.722 329.98 288.176C328.229 287.629 318.891 266.315 321.226 265.222C323.56 264.129 331.147 252.653 331.147 252.653L328.812 249.374Z" fill="#6C63FF"/>
<path d="M287.378 449.944C287.378 449.944 297.882 455.956 299.05 455.956C300.217 455.956 315.973 459.781 308.97 462.514C301.967 465.246 275.123 461.421 275.706 459.781C276.29 458.142 275.706 448.305 276.873 448.305C278.04 448.305 287.378 449.944 287.378 449.944Z" fill="#2F2E41"/>
<path d="M299.049 457.595C299.049 457.595 309.554 463.606 310.721 463.606C311.888 463.606 327.645 467.432 320.642 470.164C313.639 472.897 286.794 469.071 287.378 467.432C287.961 465.792 287.378 455.955 288.545 455.955C289.712 455.955 299.049 457.595 299.049 457.595Z" fill="#2F2E41"/>
<path d="M287.961 341.736C287.961 341.736 289.712 349.933 292.63 355.945C295.548 361.957 292.047 390.375 290.296 394.747C288.545 399.119 271.621 451.037 276.873 451.584C282.126 452.13 292.63 451.584 292.63 451.584L309.554 401.852L306.636 335.178L287.961 341.736Z" fill="#575A88"/>
<path opacity="0.1" d="M287.961 341.736C287.961 341.736 289.712 349.933 292.63 355.945C295.548 361.957 292.047 390.375 290.296 394.747C288.545 399.119 271.621 451.037 276.873 451.584C282.126 452.13 292.63 451.584 292.63 451.584L309.554 401.852L306.636 335.178L287.961 341.736Z" fill="black"/>
<path d="M291.463 342.279C291.463 342.279 293.797 357.035 299.049 360.314C304.302 363.593 302.551 366.872 302.551 366.872L300.216 395.837C300.216 395.837 277.457 448.301 284.46 454.86C291.463 461.418 297.882 458.685 300.8 458.139C303.718 457.592 308.97 446.115 306.052 442.836C303.134 439.557 311.888 419.883 314.222 416.604C316.557 413.325 314.222 408.953 317.14 407.86C320.058 406.767 326.478 399.662 326.478 394.744C326.478 389.825 334.648 337.361 329.396 334.082C324.143 330.803 290.477 340.849 290.477 340.849L291.463 342.279Z" fill="#575A88"/>
<path d="M280.375 265.769C287.466 265.769 293.214 260.386 293.214 253.746C293.214 247.106 287.466 241.723 280.375 241.723C273.284 241.723 267.536 247.106 267.536 253.746C267.536 260.386 273.284 265.769 280.375 265.769Z" fill="#FFB8B8"/>
<path d="M309.554 219.864C315.356 219.864 320.059 215.459 320.059 210.027C320.059 204.594 315.356 200.189 309.554 200.189C303.753 200.189 299.05 204.594 299.05 210.027C299.05 215.459 303.753 219.864 309.554 219.864Z" fill="#9F616A"/>
<path d="M289.129 253.748C289.129 253.748 296.132 265.771 299.633 265.771C303.135 265.771 285.627 278.341 285.627 278.341C285.627 278.341 279.791 262.492 278.624 261.946C277.457 261.399 289.129 253.748 289.129 253.748Z" fill="#FFB8B8"/>
<path d="M291.463 264.677C291.463 264.677 276.29 269.596 276.873 271.236C277.457 272.875 272.788 276.701 272.788 278.34C272.788 279.98 271.621 294.735 278.624 306.758C285.627 318.782 296.715 327.526 291.463 332.991C286.21 338.456 278.04 347.746 286.794 347.746C295.548 347.746 309.554 335.723 322.393 340.095C335.232 344.467 332.314 328.072 332.314 328.072C332.314 328.072 334.064 315.503 330.563 311.677C327.061 307.851 314.806 280.526 314.806 277.247C314.806 273.968 303.134 261.398 300.217 261.398C297.299 261.398 291.463 264.677 291.463 264.677Z" fill="#8985A8"/>
<path d="M312.472 216.039C312.472 216.039 317.224 224.5 317.474 226.008C317.724 227.516 325.894 216.039 325.894 216.039L316.557 210.027L312.472 216.039Z" fill="#9F616A"/>
<path d="M314.223 222.597L324.144 212.76L335.815 217.678C335.815 217.678 346.701 240.085 347.386 241.725C348.071 243.364 329.979 251.015 328.229 251.015C326.478 251.015 314.223 234.074 314.223 234.074C314.223 234.074 311.305 225.876 314.223 222.597Z" fill="#F2F2F2"/>
<path d="M309.554 235.715V245.552H316.557L314.254 235.715H309.554Z" fill="#9F616A"/>
<path d="M313.55 243.09C312.665 243.079 311.797 243.321 311.063 243.783C310.328 244.245 309.761 244.906 309.438 245.678C308.982 246.834 309.137 248.048 311.305 248.555C315.973 249.648 316.557 248.555 316.557 248.555C316.557 248.555 324.662 247.462 322.944 245.276C321.226 243.09 316.557 243.09 316.557 243.09H313.55Z" fill="#9F616A"/>
<path d="M338.733 290.365C338.733 290.365 345.736 296.377 343.986 296.923C342.235 297.47 335.815 304.028 334.648 304.574C333.604 305.063 322.393 308.4 324.144 304.574C325.894 300.749 329.98 298.563 329.98 298.563L331.147 292.005L338.733 290.365Z" fill="#F2F2F2"/>
<path d="M275.8 244.493C276.604 244.052 277.552 243.503 277.575 242.632C277.554 242.312 277.434 242.004 277.229 241.747C277.024 241.49 276.743 241.294 276.422 241.184C275.774 240.975 275.088 240.889 274.405 240.93C274.143 240.917 273.88 240.942 273.625 241.002C272.96 241.194 272.577 241.826 272.054 242.255C271.294 242.878 270.246 243.061 269.269 243.299C267.63 243.697 266.059 244.306 264.601 245.11C264.312 245.247 264.06 245.441 263.862 245.68C263.632 246.119 263.53 246.606 263.565 247.094C263.433 248.948 262.246 250.562 261.36 252.225C260.474 253.888 259.891 255.959 260.932 257.542C261.344 258.034 261.73 258.546 262.086 259.076C262.823 260.515 261.903 262.286 262.436 263.801C262.674 264.398 263.056 264.935 263.553 265.37C264.578 266.337 265.84 267.053 267.23 267.455C268.556 267.838 270.202 268.092 270.721 269.297C270.944 269.814 270.898 270.423 271.213 270.897C271.602 271.483 272.405 271.673 273.13 271.798C273.944 271.972 274.782 272.029 275.614 271.966C276.03 271.932 276.435 271.82 276.803 271.635C277.172 271.45 277.496 271.198 277.757 270.892C277.992 270.461 278.284 270.058 278.624 269.694C279.469 269.032 280.753 269.555 281.838 269.38C282.278 269.302 282.685 269.108 283.011 268.821C283.337 268.535 283.569 268.167 283.68 267.761C283.71 267.328 283.837 266.906 284.054 266.523C284.728 265.716 286.501 266.286 286.946 265.349C287.235 264.741 286.63 264.098 286.045 263.719C285.092 263.101 284.025 262.626 283.17 261.893C282.315 261.16 281.682 260.062 281.95 259.006C282.351 257.421 284.561 256.549 284.634 254.922C284.676 253.989 283.96 253.171 283.16 252.616C282.359 252.061 281.431 251.662 280.715 251.014C280.192 250.539 279.797 249.944 279.228 249.518C278.2 248.748 276.792 248.655 275.482 248.529C274.78 248.461 271.977 248.157 272.087 247.155C272.178 246.322 275.087 244.884 275.8 244.493Z" fill="#2F2E41"/>
<path d="M314.223 222.051C314.223 222.051 307.803 224.237 307.803 226.969C307.803 229.702 304.885 238.446 307.803 238.446C310.721 238.446 316.557 236.348 316.557 236.348L314.223 222.051Z" fill="#F2F2F2"/>
<path d="M312.472 261.397C312.472 261.397 329.396 255.932 329.979 255.932C330.563 255.932 338.733 251.56 338.15 249.92L335.815 236.257C335.815 236.257 326.478 218.223 332.897 218.223C339.317 218.223 342.818 232.432 342.818 232.432C342.818 232.432 356.824 257.025 349.238 262.49C341.651 267.955 310.138 277.792 308.387 276.152C306.636 274.513 312.472 261.397 312.472 261.397Z" fill="#FFB8B8"/>
<path d="M328.812 225.872L332.752 229.427L327.645 234.07C327.645 234.07 320.642 231.337 321.226 232.977C321.809 234.616 325.311 239.535 327.645 239.535C329.979 239.535 342.129 232.43 342.182 230.244C342.235 228.058 334.648 220.407 332.897 219.86C331.147 219.314 328.812 225.872 328.812 225.872Z" fill="#9F616A"/>
<path d="M321.405 222.067C321.405 222.067 329.979 229.156 331.147 229.156C332.314 229.156 334.436 218.505 334.436 218.505C334.436 218.505 327.518 214.284 324.956 215.435C322.393 216.586 321.405 222.067 321.405 222.067Z" fill="#F2F2F2"/>
<path d="M291.463 267.956C291.463 267.956 291.463 260.305 308.971 260.305H316.557L313.056 278.339L301.384 281.618L291.463 267.956Z" fill="#8985A8"/>
<path d="M329.706 206.041C327.99 206.033 326.276 205.934 324.572 205.744C323.234 202.716 321.53 200.175 319.686 199.228C318.378 198.131 316.36 197.335 314.777 196.705C310.888 195.158 304.415 196.122 304.037 197.882C296.385 201.306 298.319 207.318 298.319 207.318C299.508 209.672 302.175 208.629 304.438 207.563C305.015 209.269 306.38 210.717 308.334 210.786C312.071 210.917 313.883 212.383 312.982 214.313C312.081 216.244 310.999 220.831 315.068 220.134C319.137 219.436 320.423 220.953 319.703 222.119C318.982 223.285 321.517 219.8 321.517 219.8C321.517 219.8 323.785 222.964 326.568 220.749C326.849 220.496 327.05 220.174 327.148 219.819C328.442 220.341 329.467 220.539 330.049 220.295C333.383 218.898 331.313 215.618 331.313 215.618C331.313 215.618 335.763 214.979 334.329 215.085C332.895 215.191 331.988 213.45 334.414 210.313C336.841 207.175 331.954 206.112 329.706 206.041Z" fill="#2F2E41"/>
<path d="M307.129 203.578L305.468 203.061L303.809 207.727L305.47 208.245L307.129 203.578Z" fill="#6C63FF"/>
<path d="M109.422 245.367C109.422 245.367 108.726 247.542 112.673 249.499C116.62 251.455 117.781 258.848 113.137 261.023C108.494 263.197 107.1 266.024 109.422 267.981C111.744 269.938 115.924 275.156 110.351 276.461C104.779 277.766 104.082 280.375 105.707 281.462C107.333 282.549 101.992 279.505 101.992 279.505C101.992 279.505 101.063 284.724 96.1874 283.419C91.3114 282.114 77.6122 257.326 84.5779 253.847C91.5436 250.368 109.422 245.367 109.422 245.367Z" fill="#2F2E41"/>
<path d="M91.4313 429.709L92.941 442.903L86.3994 446.673L80.3613 445.731L83.3801 429.709H91.4313Z" fill="#9F616A"/>
<path d="M96.4634 271.377C104.245 271.377 110.553 265.469 110.553 258.183C110.553 250.896 104.245 244.988 96.4634 244.988C88.6821 244.988 82.374 250.896 82.374 258.183C82.374 265.469 88.6821 271.377 96.4634 271.377Z" fill="#9F616A"/>
<path d="M101.244 264.544C101.244 264.544 102.502 284.571 104.011 284.571C105.521 284.571 86.3994 283.628 86.3994 283.628C86.3994 283.628 94.4505 270.434 90.425 266.193C86.3994 261.952 101.244 264.544 101.244 264.544Z" fill="#9F616A"/>
<path d="M80.3613 370.336L86.9028 393.897L81.8705 433.951L93.4443 433.008L97.9728 370.336H80.3613Z" fill="#2F2E41"/>
<path opacity="0.2" d="M80.3613 370.336L86.9028 393.897L81.8705 433.951L93.4443 433.008L97.9728 370.336H80.3613Z" fill="black"/>
<path d="M90.4251 440.546C90.4251 440.546 90.9282 437.718 95.9602 440.546C100.992 443.373 122.126 452.326 111.056 454.211C99.9857 456.096 77.342 451.855 77.342 450.441C77.342 449.028 76.8389 440.074 78.8516 441.017C80.8644 441.959 87.4059 448.085 90.4251 440.546Z" fill="#2F2E41"/>
<path d="M83.8837 437.249C83.8837 437.249 75.8326 449.03 75.3294 452.328C74.8262 455.627 67.2783 444.789 67.2783 444.789L74.323 432.537L83.8837 437.249Z" fill="#9F616A"/>
<path d="M110.553 372.218L101.495 400.491C101.495 400.491 85.3931 440.545 84.3867 440.074C83.3803 439.603 71.3037 436.775 70.8005 435.362C70.2973 433.948 85.8963 395.779 85.8963 395.779L87.9091 371.275L110.553 372.218Z" fill="#2F2E41"/>
<path d="M65.7687 442.899C67.1426 442.811 68.5117 443.127 69.6846 443.802C70.8575 444.478 71.7755 445.481 72.3102 446.669C74.323 450.91 76.8389 451.381 77.3421 451.853C77.8453 452.324 75.8325 462.22 77.3421 463.162C78.8517 464.104 80.3613 474 75.3293 474C70.2974 474 62.2463 468.817 62.7495 467.874C63.2527 466.932 63.2527 460.335 61.7431 457.507C60.2336 454.68 57.7176 449.968 61.7431 447.14C65.7687 444.313 65.7687 442.899 65.7687 442.899Z" fill="#2F2E41"/>
<path d="M113.572 328.393L114.578 336.875C114.578 336.875 122.126 343.943 124.642 352.425C127.158 360.907 147.789 375.044 141.751 376.929C135.712 378.814 128.668 379.756 111.056 376.929C93.4442 374.102 65.7686 380.227 65.7686 364.677C65.7686 364.677 62.2462 360.436 59.7302 366.562C57.9581 370.746 55.9423 374.836 53.6919 378.814C53.6919 378.814 47.6536 368.918 49.6664 364.677C51.6792 360.436 49.6664 360.907 52.1824 356.195C54.6983 351.483 67.2781 334.048 72.3101 333.105C77.342 332.163 86.9027 319.911 86.3995 318.497C85.8963 317.084 113.572 328.393 113.572 328.393Z" fill="#6C63FF"/>
<path d="M86.3996 275.615C86.3996 275.615 107.031 279.856 108.037 282.684C108.603 284.274 111.239 287.206 113.437 289.468C117.148 293.228 119.615 297.916 120.539 302.963C121.064 305.969 118.858 308.672 117.849 312.135C114.83 322.502 112.566 319.91 115.585 327.45C118.604 334.989 100.489 337.817 93.4443 334.518C86.3996 331.22 78.6001 311.664 78.6001 309.308C78.6001 306.952 71.807 280.327 77.3422 278.443C82.8773 276.558 86.3996 275.615 86.3996 275.615Z" fill="#575A88"/>
<path d="M108.037 288.812C108.037 288.812 120.617 295.881 117.598 299.651C114.578 303.42 107.03 309.546 105.018 309.546C103.005 309.546 101.495 298.237 101.495 294.938C101.495 291.64 108.037 288.812 108.037 288.812Z" fill="#575A88"/>
<path d="M95.4495 241.051C95.4495 241.051 94.6778 243.46 99.0506 245.627C103.423 247.795 104.709 255.985 99.565 258.394C94.4206 260.803 92.8773 263.934 95.4495 266.102C98.0217 268.27 102.652 274.051 96.4784 275.497C90.305 276.942 89.5334 279.832 91.3339 281.037C93.1345 282.241 87.2184 278.869 87.2184 278.869C87.2184 278.869 86.1895 284.65 80.7879 283.205C75.3862 281.759 69.9967 255.488 76.018 248.721C81.6167 242.429 95.4495 241.051 95.4495 241.051Z" fill="#2F2E41"/>
<path d="M97.0928 238.571C97.0917 235.042 85.8174 237.578 80.9836 242.505C77.6363 245.917 72.5521 251.05 76.8125 254.669C81.0729 258.287 69.5098 263.031 66.4087 264.469C63.3075 265.907 57.1846 270.305 62.7132 273.256C68.2417 276.206 68.1526 279.184 66.072 279.89C63.9913 280.595 70.6593 278.841 70.6593 278.841C70.6593 278.841 69.9856 284.668 75.6033 284.64C81.2211 284.612 97.3379 255.7 93.4877 247.664C89.9077 240.192 97.0928 238.571 97.0928 238.571Z" fill="#2F2E41"/>
<path d="M94.6507 237.796C109.727 236.946 111.24 247.574 111.24 247.574C111.136 253.724 100.707 250.728 97.81 251.644C94.3152 249.29 87.5789 244.836 82.7612 241.657C86.2589 239.35 90.3792 238.012 94.6507 237.796V237.796Z" fill="#2F2E41"/>
<path d="M102.842 301.297C102.842 301.297 106.884 317.629 106.823 318.172C106.763 318.716 110.555 326.78 112.357 326.408L127.111 325.656C127.111 325.656 147.236 318.836 146.568 324.815C145.9 330.794 130.445 332.576 130.445 332.576C130.445 332.576 102.868 343.061 97.8536 335.426C92.8393 327.791 85.6724 297.416 87.5959 295.956C89.5194 294.496 102.842 301.297 102.842 301.297Z" fill="#9F616A"/>
<path d="M238.64 396.129C209.533 396.129 179.387 393.359 148.519 387.831C65.5062 372.964 20.6488 344.129 18.1933 342.89L10.7937 331.366L10.7955 331.367V331.367C11.4883 331.715 70.4369 361.078 151.434 375.525C225.764 388.782 334.524 391.827 430.548 331.045L428.438 344.924C384.257 372.891 343.541 386.885 288.397 393.304C271.89 395.205 255.272 396.149 238.64 396.129V396.129Z" fill="#F55F44"/>
<path d="M22.1918 322.186H12.4829V450.773H22.1918V322.186Z" fill="#E0E0E0"/>
<path d="M9.31636 446.553H25.3583C27.8292 446.553 30.1988 447.472 31.946 449.108C33.6931 450.744 34.6747 452.963 34.6747 455.277V462.789H0V455.277C1.30122e-06 452.963 0.981544 450.744 2.7287 449.108C4.47586 447.472 6.84551 446.553 9.31636 446.553V446.553Z" fill="#E0E0E0"/>
<path opacity="0.1" d="M17.3373 337.124C22.6994 337.124 27.0462 333.053 27.0462 328.032C27.0462 323.01 22.6994 318.939 17.3373 318.939C11.9752 318.939 7.62842 323.01 7.62842 328.032C7.62842 333.053 11.9752 337.124 17.3373 337.124Z" fill="black"/>
<path d="M17.3373 336.475C22.6994 336.475 27.0462 332.404 27.0462 327.383C27.0462 322.362 22.6994 318.291 17.3373 318.291C11.9752 318.291 7.62842 322.362 7.62842 327.383C7.62842 332.404 11.9752 336.475 17.3373 336.475Z" fill="#E0E0E0"/>
<path opacity="0.1" d="M12.4829 447.197C12.4829 447.197 18.7243 449.143 22.1918 447.198Z" fill="black"/>
<path d="M430.721 322.186H421.012V450.773H430.721V322.186Z" fill="#E0E0E0"/>
<path d="M417.846 446.553H433.888C436.358 446.553 438.728 447.472 440.475 449.108C442.222 450.744 443.204 452.963 443.204 455.277V462.789H408.529V455.277C408.529 452.963 409.511 450.744 411.258 449.108C413.005 447.472 415.375 446.553 417.846 446.553V446.553Z" fill="#E0E0E0"/>
<path opacity="0.1" d="M425.866 337.124C431.228 337.124 435.575 333.053 435.575 328.032C435.575 323.01 431.228 318.939 425.866 318.939C420.504 318.939 416.157 323.01 416.157 328.032C416.157 333.053 420.504 337.124 425.866 337.124Z" fill="black"/>
<path d="M425.866 336.475C431.228 336.475 435.575 332.404 435.575 327.383C435.575 322.362 431.228 318.291 425.866 318.291C420.504 318.291 416.157 322.362 416.157 327.383C416.157 332.404 420.504 336.475 425.866 336.475Z" fill="#E0E0E0"/>
<path opacity="0.1" d="M421.012 447.197C421.012 447.197 427.254 449.143 430.721 447.198Z" fill="black"/>
<defs>
<linearGradient id="paint0_linear" x1="71429" y1="126856" x2="71429" y2="40643.1" gradientUnits="userSpaceOnUse">
<stop stop-color="#808080" stop-opacity="0.25"/>
<stop offset="0.54" stop-color="#808080" stop-opacity="0.12"/>
<stop offset="1" stop-color="#808080" stop-opacity="0.1"/>
</linearGradient>
<linearGradient id="paint1_linear" x1="500.098" y1="352.5" x2="500.098" y2="175.592" gradientUnits="userSpaceOnUse">
<stop stop-color="#808080" stop-opacity="0.25"/>
<stop offset="0.54" stop-color="#808080" stop-opacity="0.12"/>
<stop offset="1" stop-color="#808080" stop-opacity="0.1"/>
</linearGradient>
</defs>
</svg>
