<svg width="753" height="458" viewBox="0 0 753 458" fill="none" xmlns="http://www.w3.org/2000/svg">
<path d="M696.309 182.413L706.277 173.33C705.369 167.309 704.089 161.339 702.442 155.45L696.761 158.068L701.865 153.418C699.75 146.154 697.844 141.465 697.844 141.465C697.844 141.465 677.755 160.096 667.372 181.944L673.806 197.346L665.004 187.445C664 190.03 663.176 192.67 662.536 195.349C656.183 222.383 660.728 246.188 672.688 248.519C684.647 250.849 699.492 230.824 705.844 203.79C707.814 195.409 707.792 186.235 706.826 177.565L696.309 182.413Z" fill="#BCFFB6"/>
<path d="M725.931 201.278L739.619 198.195C742.259 192.614 744.551 186.901 746.485 181.083L740.136 180.651L747.144 179.073C749.456 171.858 750.486 166.947 750.486 166.947C750.486 166.947 722.714 173.44 701.426 187.255L698.191 203.468L696.276 190.849C693.949 192.59 691.745 194.462 689.676 196.454C668.894 216.606 659.274 239.123 668.189 246.748C677.104 254.373 701.178 244.218 721.96 224.066C728.403 217.819 733.591 209.956 737.685 202.079L725.931 201.278Z" fill="#BCFFB6"/>
<path d="M595.29 89.29L598.653 65.2541C589.664 57.2225 580.185 49.6591 570.262 42.5997L565.103 52.481L566.825 40.1746C554.458 31.5565 545.67 26.5625 545.67 26.5625C545.67 26.5625 539.307 75.4904 551.508 119.014L580.634 135.238L554.946 129.715C556.725 134.628 558.841 139.435 561.283 144.107C586.073 191.133 623.034 221.883 643.837 212.787C664.641 203.692 661.41 158.196 636.62 111.17C628.935 96.5913 617.273 82.9221 604.84 70.9972L595.29 89.29Z" fill="#BCFFB6"/>
<path d="M663.416 86.3037L679.937 67.3109C676.801 56.2043 672.98 45.2676 668.491 34.5529L658.467 40.5833L666.926 30.859C661.231 17.6602 656.543 9.24805 656.543 9.24805C656.543 9.24805 623.325 48.1372 609.065 91.1391L624.79 118.738L605.935 101.917C604.669 106.961 603.752 112.073 603.191 117.221C597.72 169.147 611.908 212.869 634.879 214.876C657.85 216.883 680.907 176.416 686.378 124.49C688.074 108.392 685.849 91.2009 681.974 75.1398L663.416 86.3037Z" fill="#BCFFB6"/>
<path d="M358.852 92.8241L357.181 67.6042C346.262 60.9623 334.94 54.8865 323.27 49.4059L320.088 60.4406L319.232 47.528C304.727 40.8815 294.66 37.3164 294.66 37.3164C294.66 37.3164 298.556 88.5694 320.322 131.008L353.617 142.488L326.122 141.364C328.991 146.085 332.183 150.636 335.679 154.991C371.088 198.796 415.502 223.775 434.881 210.783C454.259 197.792 441.264 151.749 405.855 107.945C394.878 94.3646 380.019 82.4187 364.742 72.396L358.852 92.8241Z" fill="#BCFFB6"/>
<path d="M428.015 77.7347L440.899 55.3586C435.322 44.5328 429.078 34.0021 422.199 23.8167L413.212 31.7651L419.808 20.3086C411.164 7.79096 404.57 0 404.57 0C404.57 0 378.814 45.7089 373.359 92.2845L395.345 117.785L372.446 103.88C372.223 109.271 372.372 114.67 372.892 120.044C378.341 174.212 402.184 216.502 426.147 214.503C450.11 212.504 465.118 166.972 459.669 112.805C457.98 96.0122 452.041 78.7916 444.652 63.0202L428.015 77.7347Z" fill="#BCFFB6"/>
<path d="M500.094 304.154C509.477 304.154 517.084 302.175 517.084 299.733C517.084 297.292 509.477 295.312 500.094 295.312C490.71 295.312 483.104 297.292 483.104 299.733C483.104 302.175 490.71 304.154 500.094 304.154Z" fill="#E6E6E6"/>
<path d="M650.822 272.323C657.926 272.323 663.686 270.825 663.686 268.976C663.686 267.128 657.926 265.629 650.822 265.629C643.717 265.629 637.958 267.128 637.958 268.976C637.958 270.825 643.717 272.323 650.822 272.323Z" fill="#E6E6E6"/>
<path d="M372.181 269.165C376.873 269.165 380.676 268.091 380.676 266.765C380.676 265.44 376.873 264.365 372.181 264.365C367.489 264.365 363.686 265.44 363.686 266.765C363.686 268.091 367.489 269.165 372.181 269.165Z" fill="#E6E6E6"/>
<path d="M375.579 325.755C380.271 325.755 384.075 324.68 384.075 323.355C384.075 322.03 380.271 320.955 375.579 320.955C370.888 320.955 367.084 322.03 367.084 323.355C367.084 324.68 370.888 325.755 375.579 325.755Z" fill="#E6E6E6"/>
<path d="M375.579 283.315C380.271 283.315 384.075 282.241 384.075 280.916C384.075 279.59 380.271 278.516 375.579 278.516C370.888 278.516 367.084 279.59 367.084 280.916C367.084 282.241 370.888 283.315 375.579 283.315Z" fill="#E6E6E6"/>
<path d="M702.459 259.041L620.148 256.388L576.741 260.159L502.58 266.6L474.673 269.023L410.042 288.651C409.782 288.73 409.503 288.74 409.238 288.681C408.972 288.621 408.731 288.494 408.541 288.315C408.352 288.135 408.222 287.91 408.167 287.666C408.112 287.422 408.134 287.169 408.231 286.936L408.236 286.932L419.444 259.934L418.265 259.142L387.42 238.501L387.255 238.391L347.26 232.838C346.697 232.759 346.165 232.551 345.715 232.234C345.264 231.916 344.91 231.499 344.686 231.022C344.462 230.545 344.374 230.024 344.432 229.508C344.49 228.992 344.692 228.498 345.017 228.072L405.93 148.471L437.94 106.649L441.41 102.109L574.566 100.434L704.571 255.318C704.863 255.667 705.041 256.084 705.084 256.522C705.126 256.959 705.031 257.398 704.81 257.789C704.588 258.179 704.25 258.503 703.834 258.725C703.418 258.947 702.941 259.056 702.459 259.041Z" fill="#FE1F1A"/>
<path opacity="0.2" d="M472.602 108.572L418.264 259.146L387.422 238.505L405.931 148.475L437.848 106.553L437.938 106.65L472.602 108.572Z" fill="black"/>
<path d="M424.098 166.251C417.932 179.749 415.75 191.024 408.436 188.988C398.424 186.201 408.936 176.341 415.102 162.843C421.268 149.345 425.624 138.99 430.764 140.106C440.346 142.186 430.264 152.752 424.098 166.251Z" fill="#3F3D56"/>
<path d="M438.067 139.234C438.066 138.34 437.871 137.456 437.494 136.631C437.117 135.806 436.566 135.057 435.871 134.427C435.176 133.796 434.352 133.296 433.445 132.955C432.538 132.615 431.567 132.44 430.586 132.442C430.417 132.442 430.251 132.449 430.085 132.459L423.036 131.667C422.227 131.405 421.374 131.272 420.516 131.273C420.279 131.274 420.044 131.285 419.813 131.305L419.541 131.275L419.534 131.335C417.88 131.537 416.348 132.238 415.182 133.326C414.016 134.414 413.284 135.826 413.102 137.337C412.921 138.848 413.3 140.371 414.18 141.663C415.059 142.955 416.389 143.941 417.956 144.465L417.941 144.587L418.634 144.658C419.256 144.806 419.897 144.88 420.54 144.879C420.611 144.879 420.681 144.876 420.752 144.874L427.958 145.609C428.805 145.9 429.704 146.049 430.61 146.047C430.947 146.046 431.285 146.024 431.619 145.982L432.234 146.045L432.237 145.881C433.894 145.541 435.374 144.698 436.434 143.489C437.494 142.281 438.07 140.78 438.067 139.234Z" fill="#FE1F1A"/>
<path opacity="0.2" d="M438.067 139.234C438.066 138.34 437.871 137.456 437.494 136.631C437.117 135.806 436.566 135.057 435.871 134.427C435.176 133.796 434.352 133.296 433.445 132.955C432.538 132.615 431.567 132.44 430.586 132.442C430.417 132.442 430.251 132.449 430.085 132.459L423.036 131.667C422.227 131.405 421.374 131.272 420.516 131.273C420.279 131.274 420.044 131.285 419.813 131.305L419.541 131.275L419.534 131.335C417.88 131.537 416.348 132.238 415.182 133.326C414.016 134.414 413.284 135.826 413.102 137.337C412.921 138.848 413.3 140.371 414.18 141.663C415.059 142.955 416.389 143.941 417.956 144.465L417.941 144.587L418.634 144.658C419.256 144.806 419.897 144.88 420.54 144.879C420.611 144.879 420.681 144.876 420.752 144.874L427.958 145.609C428.805 145.9 429.704 146.049 430.61 146.047C430.947 146.046 431.285 146.024 431.619 145.982L432.234 146.045L432.237 145.881C433.894 145.541 435.374 144.698 436.434 143.489C437.494 142.281 438.07 140.78 438.067 139.234Z" fill="white"/>
<path d="M338.308 232.162L337.445 231.749C359.544 193.39 422.049 111.431 422.678 110.607L423.478 111.114C422.849 111.937 360.379 193.851 338.308 232.162Z" fill="#3F3D56"/>
<path d="M406.001 289.649L405.061 289.416C405.516 287.892 450.782 136.68 466.498 111.172L467.348 111.606C451.69 137.019 406.456 288.126 406.001 289.649Z" fill="#3F3D56"/>
<path d="M708.401 260.333C684.269 224.13 593.136 112.006 592.218 110.878L593.001 110.35C593.919 111.478 685.079 223.635 709.234 259.873L708.401 260.333Z" fill="#3F3D56"/>
<path d="M404.247 293.674C406.13 293.671 407.654 291.881 407.65 289.676C407.646 287.471 406.116 285.686 404.233 285.688C402.349 285.691 400.826 287.481 400.83 289.686C400.833 291.891 402.363 293.677 404.247 293.674Z" fill="#3F3D56"/>
<path d="M335.463 236.549C337.346 236.546 338.87 234.756 338.866 232.551C338.862 230.346 337.332 228.561 335.449 228.563C333.566 228.566 332.042 230.356 332.046 232.561C332.05 234.766 333.58 236.552 335.463 236.549Z" fill="#3F3D56"/>
<path d="M418.891 115.013L602.687 116.807C602.56 103.136 596.505 90.0655 585.843 80.4422C575.18 70.8189 560.774 65.4229 545.762 65.4297L475.618 65.5325C446.279 65.5754 421.436 86.4704 419.061 113.102L418.891 115.013Z" fill="#3F3D56"/>
<path opacity="0.2" d="M580.381 170.342H513.206C512.389 170.341 511.579 170.488 510.824 170.775C510.069 171.062 509.384 171.482 508.809 172.012C508.234 172.542 507.781 173.17 507.475 173.861C507.169 174.552 507.017 175.291 507.027 176.036L507.085 180.51L507.682 228.405L507.692 229.329L507.711 230.854L507.731 232.344L507.842 241.323C507.861 242.784 508.502 244.181 509.631 245.22C510.759 246.259 512.287 246.857 513.891 246.889C514.056 246.889 514.226 246.884 514.396 246.876L530.347 245.991L553.425 244.709L561.571 244.258L563.386 244.157L576.08 243.454H576.085L580.755 243.193C582.326 243.104 583.801 242.474 584.879 241.43C585.958 240.386 586.559 239.007 586.561 237.574V175.97C586.559 174.477 585.907 173.047 584.749 171.992C583.59 170.937 582.02 170.343 580.381 170.342Z" fill="black"/>
<path d="M594.214 162.518C593.971 162.536 593.736 162.602 593.524 162.712C593.313 162.823 593.131 162.975 592.992 163.157L585.59 163.167V161.38C585.588 159.888 584.937 158.457 583.778 157.402C582.62 156.347 581.049 155.754 579.41 155.752H512.236C511.418 155.751 510.608 155.899 509.853 156.185C509.098 156.472 508.413 156.892 507.838 157.422C507.263 157.952 506.81 158.58 506.504 159.271C506.198 159.962 506.046 160.701 506.056 161.446L506.08 163.284L501.306 163.291C501.045 163.037 500.686 162.885 500.304 162.868C498.631 162.87 497.28 166.198 497.288 170.3C497.295 174.402 498.657 177.726 500.33 177.723C500.622 177.694 500.901 177.602 501.145 177.454C501.389 177.306 501.591 177.106 501.732 176.872L593.016 176.739C593.156 176.92 593.338 177.071 593.55 177.181C593.762 177.291 593.998 177.356 594.241 177.373C595.914 177.371 597.264 174.043 597.257 169.941C597.25 165.839 595.887 162.516 594.214 162.518Z" fill="#FE1F1A"/>
<path opacity="0.2" d="M594.214 162.518C593.971 162.536 593.736 162.602 593.524 162.712C593.313 162.823 593.131 162.975 592.992 163.157L585.59 163.167V161.38C585.588 159.888 584.937 158.457 583.778 157.402C582.62 156.347 581.049 155.754 579.41 155.752H512.236C511.418 155.751 510.608 155.899 509.853 156.185C509.098 156.472 508.413 156.892 507.838 157.422C507.264 157.952 506.81 158.58 506.504 159.271C506.198 159.962 506.046 160.701 506.056 161.446L506.08 163.284L501.306 163.291C501.045 163.037 500.686 162.885 500.304 162.868C498.631 162.87 497.28 166.198 497.288 170.3C497.295 174.402 498.657 177.726 500.33 177.723C500.622 177.694 500.901 177.602 501.145 177.454C501.389 177.306 501.591 177.106 501.732 176.872L593.016 176.739C593.156 176.92 593.338 177.071 593.55 177.181C593.762 177.291 593.998 177.356 594.241 177.373C595.914 177.371 597.264 174.043 597.257 169.941C597.25 165.839 595.887 162.516 594.214 162.518Z" fill="white"/>
<path d="M586.561 234.432V237.576C586.559 239.009 585.958 240.388 584.879 241.432C583.8 242.475 582.326 243.106 580.755 243.195L514.396 246.877C513.56 246.924 512.723 246.815 511.935 246.558C511.147 246.301 510.424 245.9 509.811 245.381C509.198 244.862 508.708 244.234 508.369 243.537C508.031 242.84 507.851 242.087 507.842 241.325L507.682 228.407L547.823 227.814L586.561 234.432Z" fill="#3F3D56"/>
<path opacity="0.1" d="M693.976 332.14C726.574 332.14 753 329.042 753 325.221C753 321.4 726.574 318.303 693.976 318.303C661.377 318.303 634.951 321.4 634.951 325.221C634.951 329.042 661.377 332.14 693.976 332.14Z" fill="#6C63FF"/>
<path opacity="0.1" d="M694.272 211.525H685.222V219.288H694.272V211.525Z" fill="#6C63FF"/>
<path opacity="0.1" d="M694.272 230.674H685.222V238.436H694.272V230.674Z" fill="#6C63FF"/>
<path opacity="0.1" d="M694.272 249.816H685.222V257.579H694.272V249.816Z" fill="#6C63FF"/>
<path opacity="0.1" d="M694.272 268.963H685.222V276.726H694.272V268.963Z" fill="#6C63FF"/>
<path opacity="0.1" d="M694.272 288.111H685.222V295.874H694.272V288.111Z" fill="#6C63FF"/>
<path d="M721.9 244.313C721.9 244.313 716.647 221.893 718.658 219.103C718.658 219.103 718.731 216.51 718.61 213.205C718.61 213.08 718.61 212.954 718.61 212.826C718.964 213.028 719.333 213.21 719.714 213.372C721.567 214.188 723.694 214.424 725.728 214.038L724.137 212.517C723.755 212.154 723.358 211.761 723.275 211.281C723.192 210.8 723.421 210.372 723.618 209.943C725.13 206.668 725.209 202.549 722.298 200.049C719.838 197.947 719.24 195.234 716.571 193.315C714.62 191.91 713.548 189.849 712.536 187.856C711.68 186.172 710.818 184.475 710.328 182.69C709.946 181.295 709.793 179.851 709.268 178.489C708.743 177.127 707.76 175.803 706.223 175.194C705.676 174.979 705.068 174.856 704.568 174.569C703.913 174.19 703.518 173.573 703.044 173.033C700.636 170.303 692.569 171.911 688.751 173.019C687.713 173.298 686.752 173.755 685.926 174.362L685.961 174.313C685.989 174.272 686.024 174.231 686.056 174.19C685.638 174.48 685.277 174.826 684.987 175.214C684.43 175.97 684.198 176.851 683.733 177.67C683.173 178.639 680.058 181.344 681.398 182.433C681.492 182.506 681.599 182.565 681.716 182.608C682.219 182.787 682.772 182.835 683.307 182.744L683.25 182.862C682.792 183.822 682.557 184.851 682.559 185.889C682.559 190.373 686.871 194.009 692.194 194.009C693.195 194.01 694.19 193.878 695.144 193.618C695.166 193.722 695.185 193.826 695.207 193.93C695.207 193.971 695.223 194.011 695.229 194.052L695.061 194.254C695.052 194.242 695.043 194.23 695.032 194.219L690.037 200.207C689.273 200.669 684.875 203.398 684.627 205.445C684.366 207.686 684.105 210.309 684.105 210.309L684.07 210.871C683.852 211.028 683.597 211.142 683.322 211.205C683.047 211.269 682.76 211.281 682.48 211.24C680.92 211.021 680.92 216.153 680.92 216.153C680.92 216.153 679.883 216.972 679.17 216.262C678.458 215.552 676.574 217.957 676.574 217.957L664.769 218.394L664.499 218.407L663.862 216.718C663.794 216.54 663.646 216.392 663.451 216.307C663.256 216.221 663.03 216.205 662.822 216.262C662.772 216.276 662.724 216.293 662.678 216.314L662.634 216.336L662.551 216.385L662.51 216.418C662.487 216.435 662.466 216.455 662.446 216.475L662.408 216.513L662.389 216.53C662.315 216.617 662.267 216.717 662.247 216.824C662.227 216.93 662.236 217.038 662.274 217.141L662.822 218.59C660.543 218.983 658.214 220.092 660.114 223.143L650.485 221.617L653.6 223.861L669.682 226.708C669.469 227.035 669.609 227.51 670.274 228.179C673.137 231.064 678.356 231.847 680.456 232.049C681.01 233.114 681.703 234.121 682.521 235.052L682.34 237.926C682.34 237.926 677.023 259.833 676.049 260.944C676.54 260.466 676.99 259.958 677.395 259.423C675.852 263.924 673.694 270.085 673.128 271.007C672.218 272.481 671.375 278.445 672.412 278.827C672.73 278.944 673.64 278.887 674.938 278.802V279.296L674.881 298.018C674.881 298.018 675.142 309.501 674.426 310.595C673.71 311.69 673.519 313.985 673.519 313.985C673.519 313.985 670.656 318.513 668.387 320.334C668.371 320.348 668.354 320.361 668.336 320.372L668.266 319.946C668.266 319.946 665.539 322.9 659.506 322.733C659.506 322.733 655.876 324.759 661.259 324.868C666.643 324.977 673.519 324.704 673.519 324.704C673.519 324.704 678.321 318.426 682.343 319.245V324.002H683.574V319.169C684.145 318.846 684.634 318.427 685.011 317.938C685.388 317.449 685.645 316.899 685.766 316.322C685.872 315.727 685.795 315.119 685.542 314.557C685.29 313.996 684.872 313.5 684.328 313.12C684.084 312.931 683.888 312.7 683.753 312.443C683.618 312.185 683.546 311.907 683.542 311.624L683.498 311.657C683.498 311.562 683.469 311.463 683.456 311.362C683.103 308.906 682.661 303.837 684.223 300.087C686.365 294.945 687.014 287.782 685.455 283.519C684.952 282.156 684.538 280.77 684.217 279.367C684.179 279.19 684.144 279.021 684.112 278.862C685.178 278.986 686.233 279.169 687.271 279.408C690.883 280.263 698.784 280.421 705.529 280.375C705.545 280.533 705.564 280.699 705.587 280.866C705.707 282.023 705.958 283.168 706.337 284.283C707.184 286.467 707.572 296.094 707.572 296.094C707.572 296.094 708.663 304.009 708.068 307.23C707.75 309.02 707.432 310.819 707.251 312.626V312.662C707.251 312.662 705.462 317.029 704.155 319.401C704.123 319.461 704.088 319.521 704.056 319.578C703.707 319.605 703.364 319.67 703.035 319.772C703.035 319.772 701.281 322.774 699.535 323.271C697.788 323.768 698.367 325.403 702.322 324.802C706.277 324.202 712.249 323.71 712.249 323.71L712.507 320.648L713.723 319.343L713.405 322.398L714.7 322.179L714.528 318.464L716.516 316.33C716.516 316.33 718.919 314.496 715.349 310.887V310.967C715.31 310.915 715.275 310.86 715.234 310.808V310.792C714.642 310.006 714.171 308.54 715.034 305.939C716.593 301.239 717.5 296.973 717.5 296.973C717.5 296.973 720.981 285.544 716.796 280.137H716.981C716.552 279.376 716.249 278.568 716.081 277.735C716.059 277.637 716.04 277.536 716.023 277.432C719.119 277.279 722.158 276.799 724.637 275.762C724.627 275.751 723.135 248.631 721.9 244.313ZM682.594 225.398V225.452L681.958 225.48L682.594 225.398ZM680.411 225.657C680.307 225.677 680.209 225.717 680.125 225.774C679.851 226.106 679.68 226.492 679.625 226.896L678.633 226.705C678.633 226.705 677.936 226.577 676.933 226.432L676.459 226.023C677.764 225.93 679.119 225.793 680.411 225.657Z" fill="url(#paint0_linear)"/>
<path d="M684.293 300.137C682.763 303.876 683.195 308.923 683.539 311.374C683.666 312.28 683.784 312.831 683.784 312.831C683.784 312.831 681.496 317.302 681.305 317.471C681.114 317.641 674.572 321.066 674.572 321.066L670 323.356C670 323.356 665.361 321.612 667.585 321.011C668.039 320.855 668.449 320.616 668.785 320.31C671.012 318.495 673.809 313.983 673.809 313.983C673.809 313.983 674 311.693 674.7 310.604C675.4 309.515 675.145 298.07 675.145 298.07L675.199 279.414V276.982L683.902 277.037C683.957 277.863 684.082 278.684 684.277 279.494C684.59 280.891 684.994 282.273 685.49 283.631C687.023 287.887 686.387 295.013 684.293 300.137Z" fill="#FFB0B1"/>
<path opacity="0.1" d="M683.784 312.831C683.784 312.831 681.496 317.302 681.305 317.471C681.114 317.64 674.572 321.066 674.572 321.066L670 323.356C670 323.356 665.361 321.612 667.585 321.011C668.039 320.855 668.449 320.615 668.785 320.31L668.982 321.503L670.506 321.448L683.552 311.379C683.666 312.28 683.784 312.831 683.784 312.831Z" fill="black"/>
<path d="M683.625 311.635L670.506 321.772L668.982 321.827L668.664 319.916C668.664 319.916 665.997 322.858 660.072 322.695C660.072 322.695 656.515 324.712 661.788 324.821C667.06 324.93 673.793 324.657 673.793 324.657C673.793 324.657 678.496 318.379 682.432 319.198V323.939H683.641V319.154C684.203 318.83 684.683 318.411 685.051 317.923C685.42 317.435 685.67 316.889 685.786 316.316C685.89 315.726 685.816 315.123 685.57 314.564C685.325 314.006 684.915 313.511 684.382 313.128C684.144 312.936 683.954 312.705 683.824 312.448C683.694 312.192 683.626 311.915 683.625 311.635Z" fill="#1D2366"/>
<path d="M714.468 305.969C713.621 308.562 714.083 310.022 714.662 310.805V310.822C715.404 311.789 715.921 312.871 716.183 314.007L716.234 314.253L710.264 321.718L707.025 322.81C707.025 322.81 701.816 321.284 702.768 320.847C703.006 320.741 703.379 320.173 703.805 319.39C705.078 317.029 706.834 312.672 706.834 312.672V312.637C707.019 310.838 707.311 309.045 707.636 307.26C708.218 304.047 707.149 296.162 707.149 296.162C707.149 296.162 706.767 286.573 705.94 284.392C705.567 283.284 705.318 282.146 705.199 280.997C705.027 279.632 704.989 278.508 704.989 278.508C704.989 278.508 708.419 274.413 714.706 278.835C715.209 279.188 715.651 279.599 716.02 280.058C720.364 285.359 716.867 297.035 716.867 297.035C716.867 297.035 715.992 301.282 714.468 305.969Z" fill="#FFB0B1"/>
<path opacity="0.1" d="M716.243 314.251L710.274 321.716L707.034 322.808C707.034 322.808 701.826 321.282 702.777 320.846C703.016 320.739 703.388 320.171 703.814 319.388C706.019 319.372 707.162 321.173 707.162 321.173L709.955 320.791C709.955 320.791 713.64 314.579 714.467 314.199C715.295 313.82 714.595 311.363 714.595 311.363V310.738C714.617 310.76 714.636 310.785 714.661 310.807V310.823C715.404 311.79 715.921 312.872 716.182 314.008L716.243 314.251Z" fill="black"/>
<path d="M707.353 321.336C707.353 321.336 705.762 318.83 702.713 319.756C702.713 319.756 700.998 322.758 699.283 323.244C697.568 323.73 698.141 325.367 702.017 324.77C705.892 324.172 711.734 323.678 711.734 323.678L711.989 320.624L715.928 316.319C715.928 316.319 718.276 314.493 714.782 310.898V311.523C714.782 311.523 715.482 313.98 714.655 314.359C713.828 314.739 710.156 320.954 710.156 320.954L707.353 321.336Z" fill="#1D2366"/>
<path opacity="0.1" d="M683.911 277.035C683.966 277.861 684.092 278.682 684.287 279.492C680.704 279.041 677.379 279.265 675.199 279.412V276.98L683.911 277.035Z" fill="black"/>
<path opacity="0.1" d="M716.374 280.736C716.374 280.736 711.283 280.949 705.211 280.993C705.04 279.628 705.001 278.504 705.001 278.504C705.001 278.504 708.432 274.409 714.719 278.831C715.222 279.184 715.664 279.596 716.033 280.054C716.132 280.287 716.245 280.515 716.374 280.736Z" fill="black"/>
<path d="M716.374 280.245C716.374 280.245 694.075 281.171 687.278 279.536C680.482 277.901 673.745 279.317 672.73 278.938C671.715 278.559 672.54 272.616 673.43 271.145C674.321 269.674 679.209 254.796 679.209 254.796L683.912 233.762L688.866 232.592L689.216 232.507L697.848 230.465L704.174 228.967C704.174 228.967 716.752 271.091 715.674 274.197C715.282 275.386 715.219 276.638 715.489 277.852C715.654 278.681 715.951 279.486 716.374 280.245Z" fill="#1D2366"/>
<path d="M667.518 219.379C667.518 219.379 663.063 223.473 666.436 225.755C669.809 228.037 672.027 225.973 672.027 225.973L667.518 219.379Z" fill="#C7DAF5"/>
<path opacity="0.1" d="M667.518 219.379C667.518 219.379 663.063 223.473 666.436 225.755C669.809 228.037 672.027 225.973 672.027 225.973L667.518 219.379Z" fill="black"/>
<path d="M703.509 192.459C703.509 192.459 702.987 192.885 702.201 193.513C701.081 194.411 699.423 195.723 697.953 196.823C695.917 198.344 694.237 199.46 694.838 198.507C695.44 197.555 695.325 195.895 695.026 194.342C695.004 194.239 694.984 194.135 694.962 194.034C694.715 192.893 694.386 191.767 693.979 190.66C693.979 190.66 697.269 187.014 699.089 185.575C699.767 185.029 700.241 184.806 700.27 185.185C700.301 185.695 700.747 186.823 701.301 188.018C701.317 188.056 701.332 188.092 701.352 188.13C701.721 188.949 702.137 189.79 702.503 190.516C703.063 191.629 703.509 192.459 703.509 192.459Z" fill="#FFB0B1"/>
<path opacity="0.1" d="M701.352 188.133C701.042 189.559 700.292 190.888 699.179 191.981C698.067 193.074 696.632 193.89 695.026 194.345C694.773 193.099 694.423 191.869 693.979 190.663C693.979 190.663 700.174 183.798 700.27 185.188C700.292 185.714 700.776 186.883 701.352 188.133Z" fill="black"/>
<path opacity="0.1" d="M694.408 196.178L695.21 195.209C695.21 195.209 695.742 197.988 697.695 196.762C699.649 195.537 699.745 205.985 699.745 205.985L697.648 232.878L682.495 232.1L682.925 219.105L684.64 212.555L688.881 203.032L691.405 199.885L694.408 196.178Z" fill="black"/>
<path d="M699.745 206.153L697.836 230.47L697.635 233.046L689.187 232.612L688.869 232.596L682.505 232.268L682.935 219.271L684.65 212.72L688.891 203.197L691.414 200.05L694.418 196.33L695.22 195.363C695.22 195.363 695.751 198.142 697.705 196.916L697.747 196.892C699.656 195.855 699.745 206.153 699.745 206.153Z" fill="#1D2366"/>
<path d="M684.863 210.441C684.863 210.441 684.102 211.806 682.575 211.585C681.048 211.364 681.051 216.498 681.051 216.498C681.051 216.498 680.036 217.317 679.336 216.607C678.636 215.898 676.79 218.297 676.79 218.297L665.227 218.734C665.227 218.734 670.372 220.751 669.364 226.854C669.364 226.854 686.832 225.926 687.405 224.509C687.978 223.092 684.863 210.441 684.863 210.441Z" fill="white"/>
<path opacity="0.03" d="M684.863 210.441C684.863 210.441 684.102 211.806 682.575 211.585C681.048 211.364 681.051 216.498 681.051 216.498C681.051 216.498 680.036 217.317 679.336 216.607C678.636 215.898 676.79 218.297 676.79 218.297L665.227 218.734C665.227 218.734 670.372 220.751 669.364 226.854C669.364 226.854 686.832 225.926 687.405 224.509C687.978 223.092 684.863 210.441 684.863 210.441Z" fill="black"/>
<path d="M651.259 221.941L654.307 224.174L679.399 228.697L676.287 225.973L651.259 221.941Z" fill="white"/>
<path d="M694.457 197.038C694.04 197.584 692.847 200.379 691.851 202.819C691.02 204.853 690.326 206.641 690.326 206.641C690.326 206.641 688.707 215.686 687.88 217.321C687.052 218.956 687.501 225.332 687.501 225.332L684.418 241.078C684.418 241.078 683.021 249.199 680.863 254.049C678.735 258.823 676.364 261.061 676.291 261.132C677.246 260.024 682.448 238.204 682.448 238.204L684.166 210.686C684.166 210.686 684.418 208.071 684.672 205.835C684.927 203.6 690.081 200.548 690.081 200.548L695.052 194.486C695.551 195.06 695.217 196.059 694.457 197.038Z" fill="white"/>
<path d="M681.497 232.403C681.497 232.403 674.178 232.131 670.634 228.479C667.089 224.826 678.827 227.021 678.827 227.021L681.878 227.621L681.497 232.403Z" fill="#FFB0B1"/>
<path opacity="0.1" d="M715.674 274.199C715.282 275.389 715.219 276.64 715.489 277.854C707.506 278.34 698.965 276.489 698.965 276.489C697.374 277.745 693.184 279.595 693.184 279.595L690.899 255.303C689.439 252.028 688.866 234.868 688.866 234.868C688.866 234.868 688.996 233.97 689.184 232.624C689.184 232.591 689.184 232.556 689.2 232.523C689.77 228.765 690.899 221.709 691.453 220.756C692.217 219.446 689.105 215.961 689.105 215.961L690.521 205.602L690.692 204.352C693.677 203.209 695.965 199.556 695.965 199.556L697.721 196.917C699.63 195.866 699.729 206.165 699.729 206.165L697.82 230.481L704.146 228.983C704.146 228.983 716.752 271.093 715.674 274.199Z" fill="black"/>
<path d="M723.867 275.879C715.164 279.586 699.347 276.152 699.347 276.152C697.756 277.408 693.565 279.259 693.565 279.259L691.278 254.966C689.82 251.691 689.248 234.531 689.248 234.531C689.248 234.531 691.087 221.727 691.85 220.419C692.073 220.037 691.965 219.47 691.701 218.858C690.402 215.948 689.925 212.816 690.307 209.717L690.918 205.265L691.087 204.018C694.075 202.872 696.362 199.22 696.362 199.22L697.953 196.829L700.881 192.423L702.268 190.338L702.503 190.521L704.301 191.918C704.301 191.918 705.065 192.464 706.21 193.283C708.702 195.084 713.007 198.256 715.228 200.197C717.182 201.905 717.799 208.552 717.977 213.555C718.095 216.849 718.025 219.431 718.025 219.431C716.055 222.213 721.207 244.542 721.207 244.542C722.406 248.858 723.867 275.879 723.867 275.879Z" fill="white"/>
<path opacity="0.03" d="M707.162 199.166C707.162 199.166 701.189 208.919 701.883 212.625C702.577 216.332 704.549 220.527 703.598 221.507C703.271 221.878 702.848 222.18 702.363 222.387C701.878 222.595 701.343 222.704 700.801 222.705C699.846 222.76 697.301 224.286 697.301 224.449C697.301 224.613 694.949 224.613 692.846 225.377C690.743 226.142 687.637 226.576 687.637 226.576C687.637 226.576 681.592 226.412 681.029 226.903C680.465 227.394 679.886 230.334 681.092 232.679C682.298 235.023 683.638 236.773 684.65 237.092C685.661 237.412 692.083 235.566 697.291 235.13C702.5 234.693 708.154 231.153 708.154 231.153C708.154 231.153 714.381 229.242 715.473 226.03C716.564 222.817 714.14 205.16 714.14 205.16C714.14 205.16 712.307 196.931 707.162 199.166Z" fill="black"/>
<path opacity="0.03" d="M706.398 198.347C706.398 198.347 700.426 208.102 701.126 211.806C701.826 215.51 703.792 219.708 702.838 220.691C702.512 221.062 702.09 221.364 701.605 221.572C701.121 221.78 700.586 221.888 700.044 221.889C699.089 221.943 696.544 223.469 696.544 223.633C696.544 223.797 694.192 223.797 692.089 224.558C689.986 225.32 686.88 225.756 686.88 225.756C686.88 225.756 680.835 225.593 680.275 226.084C679.715 226.575 679.129 229.518 680.338 231.86C681.548 234.201 682.884 235.954 683.896 236.273C684.908 236.592 691.329 234.747 696.538 234.313C701.746 233.879 707.401 230.334 707.401 230.334C707.401 230.334 713.624 228.423 714.703 225.213C715.782 222.003 713.37 204.341 713.37 204.341C713.37 204.341 711.543 196.114 706.398 198.347Z" fill="black"/>
<path d="M706.974 198.672C706.974 198.672 701.001 208.427 701.701 212.131C702.401 215.835 704.368 220.033 703.417 221.013C703.091 221.385 702.669 221.688 702.183 221.896C701.698 222.105 701.162 222.213 700.62 222.214C699.665 222.268 697.12 223.794 697.12 223.955C697.12 224.116 694.771 224.119 692.665 224.883C690.558 225.648 687.456 226.082 687.456 226.082C687.456 226.082 681.41 225.918 680.847 226.409C680.284 226.9 679.705 229.843 680.911 232.185C682.117 234.527 683.456 236.279 684.468 236.598C685.48 236.918 691.901 235.072 697.11 234.636C702.319 234.199 707.973 230.659 707.973 230.659C707.973 230.659 714.2 228.748 715.291 225.536C716.383 222.323 713.974 204.666 713.974 204.666C713.974 204.666 712.116 196.45 706.974 198.672Z" fill="white"/>
<path opacity="0.1" d="M706.844 224.839C706.844 224.839 702.071 224.02 703.732 225.385C705.393 226.75 705.383 227.945 707.416 227.891C709.45 227.836 706.844 224.839 706.844 224.839Z" fill="black"/>
<path opacity="0.1" d="M714.91 254.203C714.91 254.203 712.752 255.456 716.879 258.344C721.006 261.232 714.91 254.203 714.91 254.203Z" fill="black"/>
<path opacity="0.1" d="M710.792 264.5C710.792 264.664 710.029 270.505 712.886 271.965C715.743 273.425 710.792 264.5 710.792 264.5Z" fill="black"/>
<path d="M665.425 218.721C663.121 218.789 658.144 219.392 660.725 223.522C663.006 227.177 666.841 224.734 668.998 222.88C668.472 221.153 667.193 219.664 665.425 218.721Z" fill="#FFB0B1"/>
<path d="M669.026 222.849L669.121 222.764L669.026 222.849Z" fill="#FFB0B1"/>
<path opacity="0.1" d="M706.21 193.449C703.767 194.882 701.717 196.091 701.316 196.342C700.222 197.038 698.135 201.124 696.789 203.209C695.716 204.888 692.232 205.319 690.918 205.426L691.087 204.178C694.074 203.032 696.362 199.38 696.362 199.38L702.268 190.498L704.301 192.084C704.301 192.084 705.065 192.63 706.21 193.449Z" fill="black"/>
<path d="M706.21 193.285C703.767 194.718 701.717 195.927 701.316 196.181C700.222 196.874 698.135 200.96 696.789 203.045C695.716 204.724 692.232 205.155 690.918 205.261L691.087 204.014C694.074 202.868 696.362 199.216 696.362 199.216L702.268 190.334L704.301 191.914C704.301 191.914 705.065 192.455 706.21 193.285Z" fill="#DCE7FF"/>
<path d="M701.508 186.329C701.509 187.967 700.93 189.567 699.847 190.917C698.568 192.513 696.664 193.662 694.481 194.157C692.299 194.652 689.982 194.459 687.951 193.614C685.919 192.768 684.309 191.326 683.411 189.55C682.513 187.773 682.388 185.779 683.057 183.929C683.727 182.08 685.147 180.497 687.06 179.469C688.973 178.441 691.253 178.036 693.485 178.326C695.717 178.616 697.754 179.583 699.226 181.051C700.698 182.52 701.507 184.392 701.508 186.329Z" fill="#FFB0B1"/>
<path opacity="0.1" d="M717.977 213.555C716.685 212.873 715.632 211.904 714.932 210.749C714.401 209.848 714.047 208.809 713.14 208.17C712.323 207.597 711.231 207.457 710.213 207.201C706.866 206.352 704.059 203.732 703.954 200.74C703.903 199.332 704.416 197.926 704.183 196.531C704.051 195.742 703.685 194.995 703.121 194.361C702.84 194.058 702.533 193.775 702.201 193.513C701.756 193.152 701.288 192.803 700.881 192.421C700.624 192.184 700.4 191.923 700.212 191.643C700.061 191.414 699.938 191.171 699.846 190.92C699.21 189.249 699.789 187.268 699.089 185.578L699.051 185.485C698.787 184.885 698.249 184.284 697.501 184.238C696.754 184.191 696.114 184.724 695.401 184.961C693.909 185.458 692.299 184.612 691.055 183.749C689.811 182.887 688.407 181.901 686.826 182.092C685.779 182.221 684.952 182.832 683.988 183.149C683.77 183.221 683.545 183.277 683.316 183.315C684.132 181.57 685.631 180.123 687.556 179.222C689.481 178.322 691.711 178.025 693.863 178.381C696.016 178.738 697.956 179.727 699.351 181.178C700.746 182.629 701.509 184.451 701.507 186.331C701.508 186.899 701.439 187.466 701.301 188.021C701.316 188.059 701.332 188.095 701.351 188.133C701.721 188.952 702.137 189.792 702.503 190.518L704.301 191.916C704.301 191.916 705.065 192.462 706.21 193.281C708.702 195.082 713.007 198.254 715.228 200.194C717.181 201.908 717.792 208.552 717.977 213.555Z" fill="black"/>
<path d="M683.877 178.164C684.332 177.37 684.557 176.48 685.102 175.727C685.9 174.635 687.294 173.936 688.726 173.513C692.465 172.408 700.365 170.803 702.726 173.513C703.191 174.059 703.576 174.665 704.219 175.041C704.709 175.328 705.3 175.451 705.838 175.666C707.343 176.272 708.304 177.593 708.816 178.942C709.329 180.29 709.481 181.737 709.857 183.126C710.337 184.908 711.181 186.598 712.021 188.277C713.01 190.258 714.06 192.314 715.969 193.714C718.575 195.624 719.151 198.329 721.569 200.426C724.433 202.915 724.341 207.023 722.865 210.284C722.67 210.713 722.451 211.161 722.527 211.616C722.604 212.072 722.998 212.487 723.37 212.85L724.936 214.365C721.232 215.132 717.042 213.472 715.317 210.56C714.786 209.659 714.432 208.622 713.522 207.981C712.708 207.407 711.613 207.271 710.598 207.014C707.251 206.163 704.444 203.54 704.339 200.548C704.289 199.143 704.801 197.737 704.569 196.345C704.439 195.55 704.072 194.798 703.503 194.161C702.628 193.181 701.307 192.524 700.594 191.432C699.388 189.606 700.305 187.234 699.436 185.274C699.169 184.674 698.634 184.073 697.887 184.027C697.139 183.98 696.499 184.513 695.783 184.75C694.294 185.247 692.684 184.404 691.44 183.538C690.196 182.673 688.793 181.69 687.208 181.884C686.161 182.01 685.337 182.621 684.373 182.941C683.66 183.175 682.216 183.385 681.592 182.87C680.275 181.83 683.326 179.136 683.877 178.164Z" fill="#591D4B"/>
<path opacity="0.1" d="M716.202 209.661C715.667 208.76 715.317 207.723 714.407 207.084C713.592 206.511 712.498 206.372 711.48 206.115C708.135 205.266 705.329 202.643 705.221 199.652C705.17 198.246 705.682 196.838 705.453 195.445C705.32 194.656 704.953 193.909 704.387 193.276C703.509 192.296 702.188 191.638 701.479 190.546C700.273 188.723 701.189 186.351 700.317 184.388C700.053 183.791 699.516 183.19 698.771 183.141C698.026 183.092 697.381 183.63 696.668 183.867C695.179 184.364 693.565 183.518 692.325 182.655C691.084 181.793 689.674 180.807 688.093 180.998C687.046 181.127 686.218 181.738 685.257 182.055C684.545 182.289 683.097 182.502 682.473 181.986C681.162 180.895 684.214 178.206 684.761 177.24C685.216 176.443 685.442 175.556 685.989 174.803C686.018 174.762 686.05 174.721 686.082 174.68C685.672 174.971 685.319 175.315 685.035 175.701C684.491 176.454 684.265 177.338 683.81 178.138C683.259 179.104 680.208 181.801 681.522 182.884C682.158 183.403 683.59 183.19 684.303 182.955C685.257 182.636 686.091 182.025 687.138 181.899C688.729 181.705 690.129 182.691 691.37 183.553C692.611 184.416 694.234 185.262 695.716 184.765C696.429 184.528 697.053 183.993 697.816 184.042C698.58 184.091 699.089 184.689 699.366 185.289C700.235 187.249 699.318 189.621 700.524 191.447C701.237 192.52 702.558 193.191 703.433 194.176C704.002 194.813 704.369 195.565 704.499 196.36C704.731 197.752 704.219 199.158 704.269 200.563C704.374 203.566 707.181 206.178 710.528 207.029C711.537 207.286 712.638 207.422 713.452 207.996C714.366 208.637 714.725 209.674 715.247 210.575C716.972 213.487 721.162 215.147 724.866 214.38L724.128 213.665C720.917 213.706 717.668 212.139 716.202 209.661Z" fill="black"/>
<path opacity="0.1" d="M694.265 197.2C693.848 197.746 692.655 200.541 691.659 202.981C690.727 202.67 689.881 200.686 689.881 200.686L694.851 194.621C695.36 195.222 695.026 196.218 694.265 197.2Z" fill="black"/>
<path d="M694.456 197.04C694.039 197.585 692.846 200.38 691.85 202.821C690.918 202.512 690.072 200.525 690.072 200.525L695.042 194.463C695.551 195.061 695.217 196.06 694.456 197.04Z" fill="#DCE7FF"/>
<path d="M665.558 224.921L662.803 217.467C662.77 217.379 662.758 217.287 662.767 217.196C662.776 217.105 662.806 217.016 662.855 216.934C662.904 216.853 662.971 216.781 663.053 216.722C663.135 216.663 663.229 216.618 663.331 216.59C663.536 216.535 663.758 216.552 663.949 216.637C664.14 216.722 664.284 216.868 664.349 217.043L667.105 224.489L666.831 226.048L665.558 224.921Z" fill="#BE8B87"/>
<path opacity="0.1" d="M663.063 216.814C663.269 216.758 663.492 216.775 663.683 216.86C663.875 216.945 664.019 217.091 664.085 217.267L666.84 224.713L666.634 225.881L666.834 226.062L667.108 224.503L664.336 217.057C664.27 216.882 664.127 216.736 663.936 216.651C663.745 216.566 663.523 216.549 663.318 216.604C663.145 216.652 662.996 216.748 662.895 216.877C662.949 216.852 663.005 216.831 663.063 216.814Z" fill="white"/>
<path d="M665.558 224.922L667.105 224.502L666.879 225.779L666.831 226.06L666.379 225.657L665.558 224.922Z" fill="#EFC8C4"/>
<path d="M666.379 225.656C666.406 225.627 666.44 225.603 666.478 225.585C666.5 225.573 666.526 225.566 666.553 225.566C666.579 225.566 666.605 225.573 666.628 225.585C666.649 225.607 666.667 225.632 666.682 225.659C666.703 225.689 666.731 225.714 666.766 225.734C666.8 225.753 666.838 225.766 666.879 225.771L666.831 226.044L666.379 225.656Z" fill="#727A9C"/>
<path d="M662.787 220.115C662.787 220.115 668.314 220.088 667.012 222.105C665.711 224.122 663.678 224.365 663.678 224.365L662.787 220.115Z" fill="#FFB0B1"/>
<path d="M516.789 234.975H509.658L508.602 222.461H517.845L516.789 234.975Z" fill="#FE1F1A"/>
<path d="M517.977 227.514H508.47V229.439H517.977V227.514Z" fill="#3F3D56"/>
<path d="M518.373 221.739H516.788L516.612 221.258H509.57L509.394 221.739H507.81L507.281 223.183H518.901L518.373 221.739Z" fill="#3F3D56"/>
<path d="M542.882 246.243H535.752L534.695 233.729H543.938L542.882 246.243Z" fill="#FE1F1A"/>
<path d="M544.07 238.783H534.563V240.708H544.07V238.783Z" fill="#3F3D56"/>
<path d="M544.466 233.007H542.882L542.706 232.525H535.664L535.488 233.007H533.903L533.375 234.451H544.995L544.466 233.007Z" fill="#3F3D56"/>
<path d="M517.274 245.143H510.143L509.087 232.629H518.33L517.274 245.143Z" fill="#FE1F1A"/>
<path d="M518.462 237.682H508.955V239.607H518.462V237.682Z" fill="#3F3D56"/>
<path d="M518.858 231.907H517.274L517.098 231.426H510.056L509.879 231.907H508.295L507.767 233.351H519.386L518.858 231.907Z" fill="#3F3D56"/>
<path d="M546.622 215.797L546.615 215.839L546.596 215.96L544.662 228.613L532.814 232.575L532.628 232.494L525.995 229.623L522.565 217.63L522.33 216.807L522.402 216.782L537.076 211.758L546.613 215.792L546.622 215.797Z" fill="#FE1F1A"/>
<path d="M532.628 232.495L525.995 229.625L522.33 216.808L522.401 216.783L531.961 220.459L532.628 232.495Z" fill="#FE1F1A"/>
<path opacity="0.2" d="M532.794 232.348L527.749 223.537L528.397 221.039L525.345 217.764L525.085 217.965L528.025 221.12L525.829 229.588L526.161 229.66L527.629 223.999L532.492 232.492L532.794 232.348Z" fill="black"/>
<path d="M546.622 215.952L546.596 215.96L531.962 220.613L522.565 217.63L522.33 216.807L522.402 216.782L537.076 211.758L546.613 215.792L546.615 215.839L546.622 215.952Z" fill="#3F3D56"/>
<path d="M532.217 220.847L529.234 218.75L529.915 216.419L538.439 213.623L544.235 213.934L546.536 215.72L546.707 216.186L532.217 220.847Z" fill="#FE1F1A"/>
<path d="M522.5 216.809L529.234 216.576L532.881 215.447L538.569 213.624L539.632 212.226L536.978 211.793L522.5 216.809Z" fill="#FE1F1A"/>
<path d="M535.916 214.307L532.405 215.43L532.518 215.723L536.029 214.6L535.916 214.307Z" fill="#CCCCCC"/>
<rect width="2.11233" height="6.98044" rx="1.05617" transform="matrix(0.999267 -0.0382647 0.0460569 0.998939 537.16 222.012)" fill="white"/>
<rect width="1.92563" height="7.6572" rx="0.962815" transform="matrix(-0.0460499 -0.998939 0.999268 -0.0382566 534.593 226.562)" fill="white"/>
<path d="M585.551 223.756L585.544 223.798L585.525 223.919L583.59 236.572L571.743 240.534L571.557 240.453L564.924 237.582L561.494 225.589L561.259 224.766L561.33 224.741L576.004 219.717L585.542 223.751L585.551 223.756Z" fill="#FE1F1A"/>
<path d="M571.557 240.453L564.923 237.582L561.259 224.765L561.33 224.74L570.89 228.416L571.557 240.453Z" fill="#FE1F1A"/>
<path opacity="0.2" d="M571.723 240.305L566.677 231.494L567.325 228.996L564.273 225.721L564.013 225.922L566.954 229.077L564.757 237.545L565.089 237.617L566.557 231.956L571.42 240.449L571.723 240.305Z" fill="black"/>
<path d="M585.551 223.911L585.525 223.919L570.89 228.572L561.494 225.589L561.259 224.766L561.33 224.741L576.004 219.717L585.542 223.751L585.544 223.798L585.551 223.911Z" fill="#3F3D56"/>
<path d="M571.146 228.804L568.162 226.707L568.844 224.376L577.368 221.58L583.164 221.891L585.465 223.677L585.636 224.143L571.146 228.804Z" fill="#FE1F1A"/>
<path d="M561.429 224.766L568.162 224.533L571.81 223.404L577.497 221.581L578.561 220.183L575.907 219.75L561.429 224.766Z" fill="#FE1F1A"/>
<path d="M574.844 222.262L571.333 223.385L571.446 223.678L574.957 222.555L574.844 222.262Z" fill="#CCCCCC"/>
<rect width="2.11233" height="6.98044" rx="1.05617" transform="matrix(0.999267 -0.0382647 0.0460569 0.998939 576.088 229.967)" fill="white"/>
<rect width="1.92563" height="7.6572" rx="0.962815" transform="matrix(-0.0460497 -0.998939 0.999268 -0.0382565 573.522 234.521)" fill="white"/>
<path d="M570.788 226.588L570.78 226.639L570.758 226.786L568.467 242.134L554.441 246.939L554.222 246.841L546.369 243.359L542.309 228.812L542.03 227.813L542.115 227.783L559.487 221.689L570.778 226.583L570.788 226.588Z" fill="#FE1F1A"/>
<path d="M554.222 246.839L546.369 243.357L542.03 227.811L542.115 227.781L553.432 232.24L554.222 246.839Z" fill="#FE1F1A"/>
<path opacity="0.2" d="M554.418 246.661L548.445 235.973L549.212 232.944L545.599 228.971L545.292 229.215L548.773 233.042L546.172 243.313L546.565 243.4L548.303 236.534L554.06 246.836L554.418 246.661Z" fill="black"/>
<path d="M570.788 226.777L570.758 226.786L553.432 232.43L542.309 228.812L542.03 227.813L542.115 227.783L559.487 221.689L570.778 226.583L570.78 226.639L570.788 226.777Z" fill="#3F3D56"/>
<path d="M553.735 232.709L550.203 230.165L551.01 227.339L561.1 223.947L567.962 224.324L570.687 226.491L570.888 227.056L553.735 232.709Z" fill="#FE1F1A"/>
<path d="M542.232 227.812L550.203 227.53L554.521 226.161L561.254 223.949L562.513 222.253L559.372 221.729L542.232 227.812Z" fill="#FE1F1A"/>
<path d="M558.113 224.777L553.957 226.139L554.091 226.494L558.247 225.132L558.113 224.777Z" fill="#CCCCCC"/>
<rect width="1.12206" height="3.79876" rx="0.561031" transform="matrix(0.999231 -0.0392035 0.0449546 0.998989 560.555 233.92)" fill="white"/>
<rect width="1.04793" height="4.06747" rx="0.523965" transform="matrix(-0.0449464 -0.998989 0.999231 -0.0391942 559.192 236.4)" fill="white"/>
<path d="M532.48 140.062H535.446C535.898 140.062 536.278 139.917 536.588 139.625C536.902 139.333 537.06 138.919 537.06 138.381C537.06 137.984 536.896 137.629 536.567 137.314C536.239 136.995 535.866 136.836 535.446 136.836H531.222V145.695H530.73V136.344H535.446C536.002 136.344 536.492 136.551 536.916 136.966C537.34 137.376 537.552 137.848 537.552 138.381C537.552 139.037 537.347 139.563 536.937 139.96C536.526 140.356 536.03 140.555 535.446 140.555H532.48V140.062ZM532.48 141.047H535.446C536.157 141.047 536.768 140.799 537.278 140.302C537.789 139.8 538.044 139.16 538.044 138.381C538.044 137.711 537.782 137.123 537.258 136.617C536.738 136.107 536.135 135.852 535.446 135.852H530.237V145.695H529.745V135.359H535.446C535.989 135.359 536.497 135.498 536.971 135.776C537.449 136.054 537.83 136.428 538.112 136.897C538.395 137.362 538.536 137.857 538.536 138.381C538.536 139.279 538.231 140.031 537.62 140.637C537.014 141.238 536.289 141.539 535.446 141.539H532.48V141.047ZM532.48 142.031H535.446C536.084 142.031 536.677 141.874 537.224 141.56C537.771 141.245 538.208 140.808 538.536 140.247C538.864 139.682 539.028 139.06 539.028 138.381C539.028 137.766 538.864 137.189 538.536 136.651C538.213 136.109 537.775 135.676 537.224 135.353C536.672 135.029 536.08 134.867 535.446 134.867H529.253V145.695H528.761V134.375H535.446C536.162 134.375 536.834 134.56 537.463 134.929C538.092 135.293 538.591 135.785 538.96 136.405C539.334 137.021 539.521 137.679 539.521 138.381C539.521 139.192 539.345 139.905 538.994 140.521C538.648 141.136 538.176 141.617 537.579 141.963L538.851 145.695H538.331L537.114 142.195C536.932 142.268 536.793 142.318 536.697 142.346L537.839 145.695H537.319L536.205 142.462C536.164 142.471 536.018 142.487 535.768 142.51L536.827 145.695H536.308L535.262 142.523H534.817L535.816 145.695H535.296L534.291 142.523H532.48V142.031ZM532.206 145.695H531.714V137.328H535.446C535.752 137.328 536.014 137.433 536.233 137.643C536.456 137.848 536.567 138.094 536.567 138.381C536.567 139.174 536.194 139.57 535.446 139.57H532.48V139.078H535.446C535.642 139.078 535.795 139.028 535.904 138.928C536.018 138.823 536.075 138.641 536.075 138.381C536.075 138.221 536.014 138.089 535.891 137.984C535.772 137.875 535.624 137.82 535.446 137.82H532.206V145.695ZM551.401 134.375H551.894V145.695H551.401V134.375ZM540.573 134.375H541.066V145.695H540.573V134.375ZM550.417 134.375H550.909V145.695H550.417V134.375ZM549.433 134.375H549.925V145.695H549.433V134.375ZM548.448 134.375H548.941V145.695H548.448V141.259H544.019V145.695H543.526V134.375H544.019V138.798H548.448V134.375ZM542.542 134.375H543.034V145.695H542.542V134.375ZM541.558 134.375H542.05V145.695H541.558V134.375ZM548.448 140.767V140.274H544.019V140.767H548.448ZM548.448 139.782V139.29H544.019V139.782H548.448ZM554.601 139.29V138.798H556.631V136.829H557.123V143.228H556.631V141.259H554.594V140.767H556.631V140.274H554.601V139.782H556.631V139.29H554.601ZM559.584 136.829H560.076V138.798H561.977V139.29H560.076V139.782H561.977V140.274H560.076V140.767H561.977V141.259H560.076V143.228H559.584V136.829ZM558.6 136.829H559.092V143.228H558.6V136.829ZM557.615 136.829H558.108V143.228H557.615V136.829Z" fill="white"/>
<path opacity="0.1" d="M503.586 338.639C520.575 338.639 534.347 336.625 534.347 334.14C534.347 331.655 520.575 329.641 503.586 329.641C486.597 329.641 472.825 331.655 472.825 334.14C472.825 336.625 486.597 338.639 503.586 338.639Z" fill="#6C63FF"/>
<path d="M533.331 222.882C533.331 222.882 532.087 222.724 532.087 221.073C532.087 219.423 531.196 216.341 531.196 216.341C531.196 216.327 530.426 210.974 529.362 210.123C528.298 209.272 526.931 204.275 526.931 204.275C526.931 204.275 526.698 201.564 526.221 200.98C525.745 200.397 525.101 198.968 524.15 196.929C523.2 194.891 519.238 193.479 519.238 193.479C519.238 193.479 512.075 189.696 510.045 188.463C509.861 188.361 509.688 188.243 509.531 188.109C509.177 187.686 507.637 187.678 507.637 187.678C507.476 186.752 507.321 185.688 507.27 184.725C507.27 184.622 507.27 184.518 507.255 184.415C509.518 183.196 511.223 181.275 512.056 179.004C512.094 178.895 512.126 178.78 512.16 178.67C512.296 178.63 512.421 178.564 512.527 178.477C512.633 178.389 512.718 178.283 512.776 178.164C512.959 177.794 512.962 177.359 513.19 177.014C513.455 176.606 513.96 176.388 514.358 176.08C515.361 175.304 515.62 173.996 515.573 172.805C515.541 171.842 515.371 170.871 515.437 169.913L515.456 169.672C515.475 169.528 515.497 169.384 515.526 169.246C515.68 168.533 516.018 167.861 516.208 167.153C516.397 166.446 516.416 165.65 515.974 165.04C515.327 164.146 513.979 163.968 512.795 163.876C511.453 163.772 510.254 163.907 509.395 162.893C508.993 162.362 508.541 161.865 508.044 161.406C507.867 161.257 506.15 160.302 506.15 160.239C504.474 159.532 502.574 159.399 500.799 159.865C499.909 160.101 499.069 160.486 498.166 160.679C496.218 161.099 493.977 160.644 492.323 161.659C491.401 162.234 490.848 163.148 490.331 164.04C489.91 164.774 489.482 165.507 489.049 166.239C488.351 167.444 487.641 168.668 487.347 170.002C487.286 170.293 487.248 170.587 487.234 170.882V170.896C487.234 171.003 487.234 171.109 487.234 171.216V171.351C487.234 171.451 487.234 171.549 487.253 171.638C487.271 171.727 487.268 171.756 487.278 171.816C487.287 171.877 487.303 172.012 487.322 172.104C487.341 172.196 487.379 172.357 487.417 172.483C487.432 172.538 487.455 172.59 487.474 172.642C487.505 172.739 487.543 172.834 487.584 172.929C487.606 172.978 487.628 173.03 487.653 173.079C487.701 173.179 487.758 173.277 487.814 173.366C487.84 173.406 487.859 173.444 487.884 173.481C487.972 173.615 488.069 173.743 488.174 173.866C488.85 174.634 489.844 175.123 490.58 175.841C490.58 175.87 490.58 175.899 490.58 175.925C490.58 176.005 490.58 176.083 490.58 176.163C490.619 177.766 491.087 179.336 491.945 180.737C492.802 182.137 494.022 183.326 495.498 184.199C495.498 184.308 495.514 184.42 495.52 184.53C495.582 185.383 495.57 186.239 495.486 187.091C495.357 186.953 495.196 186.843 495.015 186.77C494.833 186.696 494.636 186.661 494.438 186.666C494.302 186.66 494.166 186.67 494.034 186.697L494.005 186.677V186.703C493.311 186.858 492.455 187.517 491.637 189.388C491.637 189.388 489.15 191.941 487.256 191.835C485.362 191.729 480.566 194.491 480.566 194.491C480.566 194.491 475.888 197.257 474.884 200.075C474.323 201.672 473.65 203.236 472.87 204.755L467.086 215.608L466.019 224.219C466.019 224.219 466.61 228.048 466.493 228.632C466.376 229.215 468.92 234.479 468.92 234.479C468.92 234.479 477.327 247.931 480.762 248.621L481.008 248.463C481.155 248.533 481.311 248.586 481.472 248.621L482.179 248.167C482.222 248.673 482.204 249.182 482.126 249.685C481.652 251.013 482.303 259.681 483.13 261.38C483.957 263.079 483.663 285.358 483.663 285.358L483.546 287.324C483.546 287.324 483.546 287.387 483.575 287.497L483.546 287.962L483.632 288.003C483.72 288.626 483.691 289.259 483.546 289.874C483.25 290.737 483.13 293.175 483.13 293.175C483.13 293.175 480.765 306.94 481.886 309.706C483.007 312.471 483.96 315.502 483.96 315.502C483.96 315.502 485.144 318.952 484.017 319.541C482.89 320.13 479.685 321.119 480.345 322.557C480.945 323.885 483.221 327.444 483.559 327.965L483.531 328.238L483.066 332.818C483.142 333.422 483.322 334.012 483.6 334.566C484.108 335.563 485.096 336.598 486.975 336.486C487.29 336.466 487.657 336.431 488.01 336.388C491.448 335.968 495.681 334.571 495.681 334.571C495.462 334.444 495.26 334.292 495.082 334.12C494.913 333.971 494.779 333.792 494.688 333.594C494.597 333.397 494.552 333.184 494.554 332.97C494.605 332.136 492.891 328.163 492.465 327.185C492.398 327.045 492.364 326.964 492.364 326.964C492.364 326.964 496.272 323.244 495.621 319.946C495.621 319.946 491.297 317.646 492.72 316.384C494.144 315.122 496.688 311.497 496.688 311.497C496.688 311.497 496.805 297.941 496.688 295.917C496.567 294.513 496.64 293.099 496.906 291.711C496.954 291.501 497.01 291.297 497.07 291.096C499.039 291.364 501.027 291.501 503.018 291.507C503.744 291.507 504.483 291.507 505.228 291.467C505.228 291.659 505.237 291.866 505.256 292.088C505.42 295.446 505.727 301.334 505.976 303.522C506.33 306.658 508.284 315.111 508.284 315.111C508.284 315.111 504.555 317.29 508.934 322.66C508.934 322.66 508.934 324.607 508.644 324.888C508.334 325.809 508.084 326.746 507.895 327.694C507.712 328.706 507.637 329.73 507.933 330.262C508.644 331.532 512.905 331.429 512.905 331.429L513.01 331.412C513.814 331.336 514.627 331.406 515.402 331.619C516.176 331.832 516.896 332.183 517.521 332.651C519.14 333.835 525.287 333.315 528.614 332.938C529.918 332.789 530.789 332.651 530.789 332.651C530.831 332.516 530.846 332.376 530.833 332.237C530.799 331.492 530.158 329.859 525.814 328.402C525.814 328.402 521.729 325.9 521.786 323.721H521.701H521.227C521.571 323.704 521.792 323.721 521.792 323.721C521.792 323.721 520.192 318.402 520.845 317.971C521.498 317.54 519.541 311.646 519.541 311.646C519.541 311.646 518.421 301.756 518.361 301.064C518.363 300.469 518.462 299.878 518.654 299.31L518.361 293.888C518.361 293.888 518.304 292.085 518.361 291.498C518.351 290.989 518.306 290.481 518.225 289.978C518.196 289.776 518.168 289.567 518.136 289.36C519.667 289.006 520.662 288.678 520.662 288.678L520.485 269.804C521.786 267.504 522.026 262.458 522.019 258.879C522.019 256.579 521.906 254.877 521.906 254.877L523.683 252.235C523.683 252.235 524.093 249.073 523.443 248.38C523.156 248.066 523.285 247.741 523.522 247.474C523.645 247.385 523.775 247.305 523.91 247.233C523.91 247.233 523.891 247.207 523.869 247.169C523.993 247.075 524.125 246.989 524.264 246.914C524.264 246.914 523.633 246.022 524.198 245.646C524.728 245.973 525.202 246.221 525.561 246.422C525.536 246.632 525.511 246.753 525.511 246.753L525.662 246.465C526.01 246.643 526.221 246.753 526.221 246.753C526.221 246.753 529.006 241.701 528.946 240.957C528.886 240.212 530.84 237.075 530.84 237.075C530.84 237.075 531.076 235.428 532.144 234.738C533.211 234.048 532.971 229.048 532.971 229.048C532.971 229.048 533.267 226.444 533.978 225.38C534.688 224.316 533.331 222.882 533.331 222.882ZM480.055 220.665L480.108 221.87C479.793 221.407 479.566 221.073 479.566 221.073L480.055 220.665Z" fill="url(#paint1_linear)"/>
<path d="M526.373 244.572L525.691 247.217C525.691 247.217 520.229 244.678 519.245 241.452C518.26 238.227 520.892 237.002 520.892 237.002L525.981 238.966L526.373 244.572Z" fill="white"/>
<path opacity="0.1" d="M526.373 244.572L525.691 247.217C525.691 247.217 520.229 244.678 519.245 241.452C518.26 238.227 520.892 237.002 520.892 237.002L525.981 238.966L526.373 244.572Z" fill="black"/>
<path d="M495.722 334.591C495.722 334.591 490.671 336.281 487.199 336.494C485.355 336.606 484.386 335.577 483.887 334.585C483.615 334.034 483.439 333.447 483.366 332.846L483.818 328.289L484.058 325.862L491.435 324.117L492.48 327.027L492.578 327.248C492.998 328.22 494.681 332.173 494.63 332.998C494.628 333.209 494.673 333.419 494.762 333.614C494.851 333.809 494.982 333.986 495.148 334.134C495.317 334.308 495.51 334.461 495.722 334.591Z" fill="white"/>
<path d="M530.224 332.271C530.237 332.409 530.222 332.548 530.18 332.682C530.18 332.682 519.377 334.323 517.167 332.682C516.544 332.202 515.818 331.847 515.035 331.638C514.252 331.429 513.43 331.371 512.621 331.469C512.621 331.469 508.442 331.572 507.744 330.319C507.453 329.792 507.529 328.772 507.709 327.766C507.893 326.823 508.137 325.891 508.442 324.974L508.609 324.853L509.603 324.126L521.246 323.812H521.334C521.277 325.98 525.287 328.467 525.287 328.467C529.545 329.905 530.174 331.529 530.224 332.271Z" fill="white"/>
<path opacity="0.1" d="M530.224 332.271C530.235 332.409 530.219 332.548 530.177 332.682C530.177 332.682 519.377 334.323 517.167 332.682C516.545 332.203 515.819 331.847 515.037 331.638C514.254 331.429 513.433 331.372 512.624 331.469C512.624 331.469 508.442 331.572 507.747 330.319C507.457 329.79 507.529 328.772 507.709 327.766C509.319 327.912 511.861 328.277 512.858 329.148C514.367 330.474 516.924 331.796 518.493 331.9C519.721 331.972 527.067 332.184 530.224 332.271Z" fill="black"/>
<path opacity="0.1" d="M495.722 334.589C495.722 334.589 490.671 336.28 487.199 336.492C485.355 336.605 484.386 335.575 483.89 334.581C485.175 334.974 486.959 335.388 487.896 335.009C489.008 334.56 492.948 334.27 495.157 334.146C495.326 334.314 495.515 334.463 495.722 334.589Z" fill="black"/>
<path d="M503.217 198.359C499.05 196.884 493.69 192.011 495.028 189.734C495.325 189.16 495.502 188.54 495.549 187.906C495.635 187.046 495.648 186.18 495.587 185.318C495.493 183.906 495.306 182.501 495.028 181.109C495.028 181.109 508.038 181.377 507.28 183.122C507.059 183.634 507.024 184.522 507.084 185.517C507.144 186.511 507.302 187.636 507.466 188.587C507.694 189.892 507.921 190.887 507.921 190.887C507.921 190.887 507.125 191.902 506.658 191.957C506.191 192.011 509.196 200.461 503.217 198.359Z" fill="#CF6F80"/>
<path opacity="0.1" d="M492.569 327.248L492.471 327.346C488.582 323.062 483.878 328.401 483.878 328.401L483.808 328.289L484.048 325.862L491.426 324.117L492.471 327.027L492.569 327.248Z" fill="black"/>
<path opacity="0.1" d="M521.338 324.116C521.338 324.116 518.496 324.061 516.981 325.28C515.466 326.499 508.142 325.545 508.457 325.28C508.551 325.149 508.607 324.999 508.622 324.843L509.616 324.116L521.259 323.803C521.303 323.995 521.338 324.116 521.338 324.116Z" fill="black"/>
<path d="M497.408 290.475C497.197 290.951 497.036 291.445 496.928 291.95C496.665 293.331 496.592 294.738 496.711 296.136C496.827 298.148 496.711 311.635 496.711 311.635C496.711 311.635 494.214 315.231 492.821 316.499C491.429 317.767 495.663 320.044 495.663 320.044C496.294 323.321 492.468 327.024 492.468 327.024C488.579 322.741 483.875 328.082 483.875 328.082C483.875 328.082 481.318 324.057 480.68 322.62C480.042 321.182 483.177 320.188 484.279 319.604C485.381 319.02 484.225 315.579 484.225 315.579C484.225 315.579 483.294 312.563 482.189 309.812C481.084 307.061 483.408 293.364 483.408 293.364C483.408 293.364 483.527 290.932 483.815 290.084C483.96 289.472 483.989 288.842 483.9 288.221C483.881 288.011 483.859 287.836 483.843 287.718C483.827 287.6 483.815 287.545 483.815 287.545L483.859 287.476L485.437 284.797C485.437 284.797 498.166 288.787 497.408 290.475Z" fill="#6C63FF"/>
<path d="M521.337 323.799C521.337 323.799 518.496 323.745 516.981 324.949C515.466 326.154 508.142 325.214 508.457 324.949C508.773 324.685 508.748 322.727 508.748 322.727C504.451 317.385 508.116 315.218 508.116 315.218C508.116 315.218 506.197 306.808 505.85 303.689C505.607 301.51 505.307 295.654 505.146 292.31C505.076 290.872 505.035 289.883 505.035 289.883L508.546 289.239L508.997 289.156L517.464 287.609C517.464 287.609 517.697 289.047 517.855 290.223C517.934 290.725 517.978 291.231 517.988 291.738C517.931 292.313 517.988 294.113 517.988 294.113L518.275 299.509C518.087 300.075 517.991 300.663 517.988 301.254C518.045 301.941 519.146 311.779 519.146 311.779C519.146 311.779 521.063 317.65 520.409 318.073C519.756 318.495 521.337 323.799 521.337 323.799Z" fill="#6C63FF"/>
<path opacity="0.1" d="M507.28 183.122C507.059 183.634 507.024 184.522 507.084 185.517C505.341 186.472 503.338 186.961 501.304 186.926C499.271 186.892 497.289 186.335 495.587 185.321C495.493 183.908 495.306 182.502 495.028 181.109C495.028 181.109 508.037 181.371 507.28 183.122Z" fill="black"/>
<path d="M512.309 176.77C512.311 177.806 512.132 178.836 511.778 179.82C510.988 182.026 509.366 183.907 507.2 185.129C505.033 186.352 502.463 186.838 499.941 186.501C497.42 186.164 495.11 185.026 493.421 183.289C491.732 181.551 490.771 179.326 490.709 177.006C490.709 176.925 490.709 176.85 490.709 176.77C490.685 175.464 490.946 174.167 491.478 172.954C492.01 171.741 492.801 170.636 493.807 169.705C494.812 168.773 496.011 168.034 497.334 167.529C498.657 167.024 500.076 166.764 501.511 166.764C502.945 166.764 504.365 167.024 505.687 167.529C507.01 168.034 508.209 168.773 509.214 169.705C510.22 170.636 511.012 171.741 511.543 172.954C512.075 174.167 512.336 175.464 512.312 176.77H512.309Z" fill="#CF6F80"/>
<path opacity="0.1" d="M503.217 198.36C499.05 196.885 493.69 192.012 495.028 189.735C495.325 189.16 495.502 188.54 495.549 187.906L501.253 192.176L504.783 194.812L507.466 188.59C507.694 189.896 507.921 190.89 507.921 190.89C507.921 190.89 507.125 191.905 506.658 191.96C506.191 192.015 509.196 200.461 503.217 198.36Z" fill="black"/>
<path d="M517.969 217.226L513.205 290.107L506.993 290.477L490.905 248.218L493.544 198.047L494.1 187.447L501.253 192.798L504.786 195.434L507.548 189.031L512.684 193.108L517.969 217.226Z" fill="#6C63FF"/>
<path opacity="0.1" d="M497.408 290.475C497.197 290.952 497.036 291.446 496.928 291.95C492.408 291.315 488.017 290.065 483.903 288.244L483.818 288.204L483.846 287.741L483.862 287.5L485.441 284.82C485.441 284.82 498.166 288.788 497.408 290.475Z" fill="black"/>
<path opacity="0.1" d="M508.618 291.962C507.463 292.141 506.297 292.262 505.127 292.324C505.057 290.887 505.016 289.898 505.016 289.898L508.527 289.254L508.618 291.962Z" fill="black"/>
<path opacity="0.1" d="M517.837 290.238C515.592 290.77 512.126 291.368 509.022 290.994L508.978 289.172L517.445 287.625C517.445 287.625 517.679 289.048 517.837 290.238Z" fill="black"/>
<path opacity="0.1" d="M508.965 291.327C496.022 293.34 484.168 287.57 484.168 287.57L484.282 285.615C484.282 285.615 484.575 263.451 483.761 261.752C482.946 260.053 482.312 251.437 482.773 250.115C483.234 248.792 481.09 228.961 481.09 228.961L480.743 220.911L468.033 216.222L473.716 205.435C474.483 203.922 475.143 202.367 475.692 200.777C476.68 197.977 481.267 195.226 481.267 195.226C481.267 195.226 485.971 192.477 487.83 192.581C489.689 192.684 492.127 190.148 492.127 190.148C493.926 185.971 495.555 187.863 495.555 187.863C495.555 188.061 495.555 187.863 495.467 188.481C494.835 193.067 505.676 207.556 505.831 207.812L506.863 230.714L507.908 259.697L508.965 291.327Z" fill="black"/>
<path d="M508.618 291.329C495.675 293.341 483.818 287.571 483.818 287.571L483.935 285.616C483.935 285.616 484.228 263.453 483.41 261.754C482.593 260.055 481.961 251.439 482.426 250.116C482.89 248.794 480.743 228.962 480.743 228.962L480.392 220.912L467.677 216.206L473.359 205.419C474.125 203.906 474.785 202.35 475.335 200.762C476.32 197.961 480.91 195.21 480.91 195.21C480.91 195.21 485.614 192.462 487.47 192.565C489.326 192.669 491.767 190.133 491.767 190.133C493.569 185.955 495.555 187.847 495.555 187.847C495.555 188.046 495.366 188.135 495.467 188.465C496.856 192.913 505.329 207.541 505.483 207.797L506.528 230.699L507.573 259.681L508.618 291.329Z" fill="white"/>
<path opacity="0.1" d="M505.13 208.449C503.738 207.92 496.363 200.253 496.363 200.253V198.508C496.095 197.933 494.501 198.283 493.206 198.686L493.762 188.086L494.393 188.563C495.776 193.008 504.969 208.193 505.13 208.449Z" fill="black"/>
<path d="M505.48 207.811C504.085 207.282 496.711 199.614 496.711 199.614V197.869C496.442 197.294 494.848 197.645 493.554 198.047L494.112 187.447L494.744 187.925C496.13 192.369 505.326 207.558 505.48 207.811Z" fill="white"/>
<path opacity="0.1" d="M484.168 246.052C484.342 246.052 493.168 245.207 493.168 245.207C493.168 245.207 498.513 254.778 498.163 257.107C497.812 259.435 497.178 261.497 495.028 261.131C492.878 260.766 483.458 261.419 483.458 261.419L484.168 246.052Z" fill="black"/>
<path d="M483.818 245.418C483.992 245.418 492.818 244.572 492.818 244.572C492.818 244.572 498.16 254.146 497.812 256.472C497.465 258.798 496.824 260.862 494.678 260.497C492.531 260.132 483.108 260.784 483.108 260.784L483.818 245.418Z" fill="white"/>
<path d="M490.469 240.922C490.469 240.922 498.57 244.886 498.744 246.097C498.917 247.307 494.621 245.568 493.693 245.358C493.082 245.224 492.46 245.135 491.833 245.093L485.643 245.246L490.469 240.922Z" fill="#CF6F80"/>
<path opacity="0.1" d="M502.87 208.943C503.34 208.943 503.722 208.596 503.722 208.167C503.722 207.738 503.34 207.391 502.87 207.391C502.399 207.391 502.017 207.738 502.017 208.167C502.017 208.596 502.399 208.943 502.87 208.943Z" fill="black"/>
<path d="M502.87 208.627C503.34 208.627 503.722 208.279 503.722 207.85C503.722 207.422 503.34 207.074 502.87 207.074C502.399 207.074 502.017 207.422 502.017 207.85C502.017 208.279 502.399 208.627 502.87 208.627Z" fill="#3F3D56"/>
<path opacity="0.1" d="M504.439 242.543C504.909 242.543 505.291 242.195 505.291 241.766C505.291 241.338 504.909 240.99 504.439 240.99C503.968 240.99 503.586 241.338 503.586 241.766C503.586 242.195 503.968 242.543 504.439 242.543Z" fill="black"/>
<path d="M504.439 242.224C504.909 242.224 505.291 241.877 505.291 241.448C505.291 241.019 504.909 240.672 504.439 240.672C503.968 240.672 503.586 241.019 503.586 241.448C503.586 241.877 503.968 242.224 504.439 242.224Z" fill="#3F3D56"/>
<path opacity="0.1" d="M503.719 225.742C504.19 225.742 504.571 225.394 504.571 224.966C504.571 224.537 504.19 224.189 503.719 224.189C503.248 224.189 502.866 224.537 502.866 224.966C502.866 225.394 503.248 225.742 503.719 225.742Z" fill="black"/>
<path d="M503.719 225.427C504.19 225.427 504.571 225.08 504.571 224.651C504.571 224.223 504.19 223.875 503.719 223.875C503.248 223.875 502.866 224.223 502.866 224.651C502.866 225.08 503.248 225.427 503.719 225.427Z" fill="#3F3D56"/>
<path d="M523.368 244.931C523.368 244.931 523.948 245.725 523.368 246.095C522.787 246.466 523.424 247.363 523.424 247.363C523.424 247.363 521.975 248.137 522.613 248.832C523.251 249.528 522.847 252.67 522.847 252.67L521.104 255.298C521.104 255.298 521.208 256.992 521.215 259.28C521.215 262.851 520.984 267.87 519.709 270.159L519.886 288.935C519.886 288.935 513.783 290.965 508.675 290.347L507.918 260.217C507.918 260.217 509.023 243.131 509.43 239.854C509.668 238.152 509.765 236.437 509.72 234.722C509.72 234.722 509.547 229.593 508.963 227.213C508.963 227.213 508.331 216.9 508.268 214.045C508.24 212.68 508.319 208.695 508.407 204.906C508.505 200.763 508.615 196.856 508.615 196.856L507.463 188.553C507.463 188.553 508.615 188.447 508.963 188.869C509.118 189.002 509.287 189.12 509.468 189.223C511.457 190.448 518.484 194.214 518.484 194.214C518.484 194.214 522.373 195.622 523.304 197.641C524.236 199.659 524.883 201.091 525.334 201.666C525.786 202.241 526.032 204.943 526.032 204.943C526.032 204.943 527.37 209.917 528.415 210.759C529.46 211.602 530.224 216.96 530.224 216.96L520.99 223.573C520.99 223.573 520.179 234.573 520.005 234.998C519.832 235.424 523.368 244.931 523.368 244.931Z" fill="white"/>
<path d="M523.718 244.933C523.718 244.933 524.296 245.726 523.718 246.097C523.14 246.468 523.772 247.365 523.772 247.365C523.772 247.365 522.332 248.147 522.963 248.843C523.595 249.538 523.197 252.681 523.197 252.681L521.454 255.309C521.454 255.309 521.559 257.002 521.568 259.29C521.568 262.861 521.338 267.881 520.062 270.169L520.236 288.946C520.236 288.946 514.124 290.975 509.023 290.357L508.268 260.228C508.268 260.228 509.373 243.142 509.78 239.864C510.019 238.163 510.115 236.447 510.067 234.732C510.067 234.732 509.894 229.603 509.313 227.223C509.313 227.223 508.682 216.91 508.615 214.056C508.587 212.69 508.669 208.705 508.754 204.916C508.852 200.773 508.963 196.866 508.963 196.866L507.441 188.451C507.441 188.451 508.963 188.451 509.313 188.88C509.467 189.013 509.636 189.132 509.818 189.233C511.807 190.458 518.837 194.224 518.837 194.224C518.837 194.224 522.723 195.633 523.655 197.651C524.586 199.669 525.233 201.101 525.688 201.676C526.142 202.251 526.382 204.953 526.382 204.953C526.382 204.953 527.721 209.927 528.766 210.77C529.811 211.612 530.565 216.959 530.565 216.959L521.331 223.572C521.331 223.572 520.52 234.571 520.343 234.997C520.166 235.422 523.718 244.933 523.718 244.933Z" fill="white"/>
<path opacity="0.1" d="M512.659 199.308L513.493 201.522L509.105 205.547C509.202 201.407 509.313 197.497 509.313 197.497L507.791 189.082C507.791 189.082 509.313 189.082 509.663 189.51C509.817 189.644 509.986 189.762 510.168 189.861L513.9 199.665L512.659 199.308Z" fill="black"/>
<path d="M512.309 198.672L513.145 200.885L508.757 204.91C508.855 200.767 508.966 196.86 508.966 196.86L507.441 188.445C507.441 188.445 508.966 188.445 509.313 188.874C509.468 189.007 509.637 189.125 509.818 189.227L513.553 199.028L512.309 198.672Z" fill="white"/>
<path opacity="0.1" d="M512.309 176.77C512.311 177.806 512.132 178.836 511.778 179.82C511.719 179.829 511.658 179.826 511.599 179.813C511.541 179.8 511.486 179.776 511.437 179.743C511.355 177.155 509.957 174.726 508.236 172.659C507.753 172.035 507.168 171.482 506.5 171.02C505.825 170.558 504.986 170.342 504.145 170.413C503.198 170.531 502.361 171.118 501.405 171.193C500.142 171.287 499.012 170.491 497.759 170.451C497.249 170.455 496.747 170.559 496.284 170.754C495.822 170.949 495.411 171.232 495.078 171.584C494.42 172.293 493.931 173.119 493.642 174.01C493.146 175.361 492.875 176.772 492.84 178.196C492.824 179.001 492.739 180.01 491.918 180.303C491.98 179.711 491.906 179.114 491.701 178.549C491.497 177.985 491.165 177.465 490.728 177.023L490.709 177.006C490.709 176.925 490.709 176.85 490.709 176.77C490.685 175.464 490.946 174.167 491.478 172.954C492.01 171.741 492.801 170.636 493.807 169.705C494.812 168.773 496.011 168.034 497.334 167.529C498.657 167.024 500.076 166.764 501.511 166.764C502.945 166.764 504.365 167.024 505.687 167.529C507.01 168.034 508.209 168.773 509.214 169.705C510.22 170.636 511.012 171.741 511.543 172.954C512.075 174.167 512.336 175.464 512.312 176.77H512.309Z" fill="black"/>
<path d="M505.982 161.148C504.342 160.445 502.476 160.313 500.736 160.774C499.861 161.01 499.037 161.393 498.15 161.585C496.256 162.002 494.046 161.551 492.42 162.56C491.517 163.135 490.975 164.043 490.469 164.926L489.207 167.117C488.518 168.315 487.824 169.534 487.537 170.854C487.249 172.174 487.423 173.651 488.342 174.712C489.011 175.486 489.999 175.971 490.725 176.699C491.16 177.141 491.49 177.661 491.694 178.225C491.899 178.789 491.973 179.385 491.912 179.976C492.736 179.689 492.815 178.677 492.834 177.872C492.869 176.448 493.139 175.037 493.636 173.686C493.924 172.795 494.413 171.968 495.072 171.259C495.405 170.908 495.816 170.626 496.278 170.43C496.74 170.235 497.243 170.131 497.752 170.127C499.015 170.167 500.148 170.96 501.399 170.866C502.346 170.794 503.185 170.204 504.139 170.089C504.979 170.017 505.819 170.233 506.494 170.696C507.161 171.157 507.746 171.71 508.227 172.335C509.951 174.402 511.349 176.825 511.431 179.419C511.788 179.657 512.302 179.347 512.479 178.979C512.656 178.611 512.662 178.179 512.886 177.829C513.145 177.423 513.641 177.208 514.029 176.903C515.014 176.13 515.26 174.827 515.223 173.646C515.185 172.464 514.932 171.265 515.178 170.104C515.327 169.391 515.661 168.724 515.844 168.019C516.028 167.315 516.05 166.524 515.617 165.918C514.986 165.026 513.657 164.851 512.498 164.768C511.182 164.664 510.004 164.796 509.165 163.787C508.77 163.261 508.327 162.766 507.839 162.31C507.671 162.16 505.982 161.211 505.982 161.148Z" fill="#512E4E"/>
<path opacity="0.1" d="M471.67 221.775L468.371 216.221L467.326 224.791C467.326 224.791 467.907 228.597 467.79 229.181C467.673 229.765 470.171 234.997 470.171 234.997C470.171 234.997 478.419 248.377 481.788 249.067L493.168 241.661L490.15 238.171C490.15 238.171 489.106 237.8 488.844 238.171C488.844 238.171 483.24 229.391 482.659 228.756C482.078 228.12 482.192 226.852 482.192 226.852C482.192 226.852 481.321 226.007 481.611 225.214C481.902 224.42 479.928 221.669 479.928 221.669L481.728 220.136L471.67 221.775Z" fill="black"/>
<path d="M468.545 215.588L467.673 216.22L466.628 224.791C466.628 224.791 467.209 228.597 467.092 229.181C466.976 229.764 469.476 234.997 469.476 234.997C469.476 234.997 477.722 248.377 481.09 249.067L492.474 241.661L489.453 238.171C489.453 238.171 488.408 237.8 488.146 238.171C488.146 238.171 482.542 229.391 481.961 228.755C481.381 228.12 481.497 226.852 481.497 226.852C481.497 226.852 480.626 226.007 480.917 225.213C481.207 224.42 479.231 221.668 479.231 221.668L481.03 220.136L468.545 215.588Z" fill="white"/>
<path opacity="0.1" d="M522.613 249.163C523.244 249.862 522.846 252.998 522.846 252.998L521.104 255.626C521.104 255.626 521.208 257.322 521.214 259.608L518.285 260.442C518.02 260.517 517.739 260.534 517.466 260.49C517.193 260.446 516.935 260.344 516.714 260.191C516.493 260.038 516.316 259.84 516.196 259.612C516.077 259.384 516.019 259.133 516.027 258.881L516.533 244.043L523.367 246.423C522.786 246.791 523.424 247.694 523.424 247.694C523.424 247.694 521.975 248.465 522.613 249.163Z" fill="black"/>
<path d="M522.963 248.844C523.595 249.543 523.197 252.682 523.197 252.682L521.454 255.31C521.454 255.31 521.558 257.003 521.568 259.292L518.585 260.14C518.325 260.213 518.051 260.229 517.783 260.186C517.516 260.143 517.263 260.043 517.047 259.893C516.831 259.744 516.657 259.549 516.54 259.326C516.423 259.103 516.367 258.857 516.375 258.61L516.883 243.727L523.721 246.107C523.137 246.475 523.775 247.375 523.775 247.375C523.775 247.375 522.332 248.148 522.963 248.844Z" fill="white"/>
<path d="M525.227 241.77C525.227 241.77 524.763 244.47 523.601 244.628C522.439 244.786 521.918 248.995 520.76 248.845C519.601 248.696 520.368 244.933 520.409 244.202C520.45 243.472 519.147 240.448 520.122 239.76C521.098 239.073 524.185 239.76 524.185 239.76L525.227 241.77Z" fill="#CF6F80"/>
<path opacity="0.1" d="M527.699 220.982L529.89 216.957C529.89 216.957 530.761 220.025 530.761 221.663C530.761 223.302 531.979 223.463 531.979 223.463C531.979 223.463 533.315 224.901 532.611 225.947C531.907 226.994 531.623 229.598 531.623 229.598C531.623 229.598 531.853 234.569 530.808 235.256C529.763 235.943 529.545 237.585 529.545 237.585C529.545 237.585 527.626 240.704 527.686 241.446C527.746 242.188 525.015 247.21 525.015 247.21C525.015 247.21 526.351 240.969 518.569 238.272C518.569 238.272 518.509 236.153 519.09 235.572C519.671 234.992 520.577 234.727 520.008 231.792C519.44 228.857 519.844 225.349 519.844 224.645C519.844 223.94 521.587 219.547 521.587 219.547L527.699 220.982Z" fill="black"/>
<path d="M528.646 216.383L530.559 216.958C530.559 216.958 531.433 220.025 531.433 221.664C531.433 223.303 532.652 223.464 532.652 223.464C532.652 223.464 533.987 224.901 533.283 225.948C532.579 226.994 532.298 229.599 532.298 229.599C532.298 229.599 532.529 234.57 531.484 235.257C530.439 235.944 530.205 237.586 530.205 237.586C530.205 237.586 528.289 240.705 528.349 241.447C528.409 242.189 525.675 247.211 525.675 247.211C525.675 247.211 527.013 240.97 519.229 238.273C519.229 238.273 519.172 236.154 519.753 235.573C520.333 234.992 521.24 234.728 520.671 231.793C520.103 228.857 520.507 225.35 520.507 224.645C520.507 223.941 522.25 219.548 522.25 219.548L528.646 216.383Z" fill="white"/>
<path opacity="0.1" d="M486.391 320.707C486.391 320.707 489.44 318.961 491.442 320.229C493.443 321.497 486.391 320.707 486.391 320.707Z" fill="black"/>
<path opacity="0.1" d="M510.086 315.312C510.086 315.312 512.786 314.996 515.052 317.219C517.319 319.441 510.086 315.312 510.086 315.312Z" fill="black"/>
<g opacity="0.1">
<path opacity="0.1" d="M514.035 176.274C513.647 176.578 513.148 176.797 512.889 177.202C512.668 177.55 512.662 177.979 512.485 178.352C512.309 178.726 511.794 179.031 511.437 178.795C511.355 176.208 509.954 173.778 508.233 171.708C507.752 171.084 507.167 170.531 506.5 170.07C505.824 169.607 504.983 169.391 504.142 169.463C503.195 169.581 502.361 170.167 501.405 170.239C500.142 170.337 499.009 169.541 497.755 169.5C497.246 169.505 496.744 169.609 496.282 169.804C495.82 170 495.41 170.284 495.078 170.636C494.419 171.344 493.93 172.169 493.642 173.059C493.146 174.41 492.876 175.821 492.84 177.245C492.821 178.048 492.739 179.048 491.925 179.347C491.944 179.559 491.944 179.773 491.925 179.985C492.745 179.698 492.827 178.686 492.846 177.881C492.882 176.457 493.152 175.046 493.648 173.695C493.936 172.804 494.426 171.977 495.085 171.268C495.417 170.917 495.827 170.635 496.289 170.439C496.751 170.244 497.253 170.14 497.762 170.136C499.024 170.176 500.161 170.969 501.411 170.875C502.358 170.803 503.198 170.213 504.148 170.098C504.99 170.026 505.831 170.242 506.506 170.705C507.174 171.166 507.758 171.719 508.239 172.344C509.96 174.411 511.362 176.834 511.444 179.428C511.8 179.666 512.315 179.356 512.492 178.988C512.668 178.62 512.675 178.188 512.896 177.838C513.155 177.432 513.653 177.217 514.042 176.912C515.027 176.139 515.273 174.836 515.235 173.655C515.235 173.617 515.235 173.58 515.235 173.545C515.175 174.569 514.875 175.612 514.035 176.274Z" fill="black"/>
<path opacity="0.1" d="M490.731 176.069C490.005 175.341 489.014 174.856 488.348 174.085C487.787 173.403 487.467 172.582 487.429 171.73C487.33 172.794 487.656 173.855 488.348 174.718C489.014 175.491 490.005 175.977 490.731 176.704C491.429 177.416 491.847 178.317 491.922 179.269C491.97 178.69 491.889 178.108 491.685 177.558C491.48 177.008 491.156 176.502 490.731 176.069Z" fill="black"/>
<path opacity="0.1" d="M515.851 167.392C515.665 168.096 515.333 168.766 515.182 169.476C515.092 169.95 515.059 170.432 515.084 170.913C515.094 170.639 515.127 170.366 515.182 170.097C515.333 169.384 515.665 168.717 515.851 168.013C515.959 167.624 515.995 167.222 515.955 166.822C515.935 167.014 515.901 167.204 515.851 167.392Z" fill="black"/>
</g>
<path d="M298.762 189.552C298.762 189.552 299.798 190.664 298.023 192.816C296.247 194.967 297.681 199.636 301.054 199.755C304.427 199.874 306.062 201.197 305.249 202.939C304.436 204.682 303.459 208.823 307.132 208.193C310.805 207.564 311.966 208.933 311.316 209.986C310.666 211.038 312.954 207.893 312.954 207.893C312.954 207.893 315.001 210.748 317.513 208.749C320.026 206.75 321.024 188.629 315.903 188.322C310.781 188.015 298.762 189.552 298.762 189.552Z" fill="#2F2E41"/>
<path d="M324.727 275.73L325.894 283.381H331.146L329.396 274.637L324.727 275.73Z" fill="#9F616A"/>
<path d="M331.73 278.734C331.73 278.734 338.733 284.746 336.982 285.292C335.232 285.839 328.812 292.397 327.645 292.944C326.601 293.432 315.39 296.769 317.141 292.944C318.891 289.118 322.976 286.932 322.976 286.932L324.144 280.374L331.73 278.734Z" fill="#F2F2F2"/>
<path opacity="0.1" d="M331.73 278.734C331.73 278.734 338.733 284.746 336.982 285.292C335.232 285.839 328.812 292.397 327.645 292.944C326.601 293.432 315.39 296.769 317.141 292.944C318.891 289.118 322.976 286.932 322.976 286.932L324.144 280.374L331.73 278.734Z" fill="black"/>
<path d="M331.73 269.99L332.897 277.641H338.15L336.399 268.896L331.73 269.99Z" fill="#9F616A"/>
<path d="M309.784 249.68L317.433 225.996C317.433 225.996 304.594 215.066 313.347 211.787C322.101 208.508 324.436 224.903 324.436 224.903L321.518 253.322H309.846L309.784 249.68Z" fill="#FFB8B8"/>
<path d="M327.645 232.279C327.645 232.279 312.562 250.396 314.851 253.087C317.141 255.779 321.226 272.174 321.226 272.174C321.226 272.174 320.642 278.732 322.977 278.732C325.311 278.732 331.147 277.639 331.147 276C331.147 274.36 325.894 253.593 325.894 253.593L341.068 235.012L327.645 232.279Z" fill="#6C63FF"/>
<path d="M328.812 233.374L343.986 225.723C343.986 225.723 354.49 230.641 351.572 235.013C348.654 239.385 335.232 250.862 335.232 250.862C335.232 250.862 339.317 269.443 338.733 269.99C338.15 270.536 331.73 272.722 329.98 272.176C328.229 271.629 318.891 250.315 321.226 249.222C323.56 248.129 331.147 236.653 331.147 236.653L328.812 233.374Z" fill="#6C63FF"/>
<path d="M287.378 433.944C287.378 433.944 297.882 439.956 299.05 439.956C300.217 439.956 315.973 443.781 308.97 446.514C301.967 449.246 275.123 445.421 275.706 443.781C276.29 442.142 275.706 432.305 276.873 432.305C278.04 432.305 287.378 433.944 287.378 433.944Z" fill="#2F2E41"/>
<path d="M299.049 441.595C299.049 441.595 309.554 447.606 310.721 447.606C311.888 447.606 327.645 451.432 320.642 454.164C313.639 456.897 286.794 453.071 287.378 451.432C287.961 449.792 287.378 439.955 288.545 439.955C289.712 439.955 299.049 441.595 299.049 441.595Z" fill="#2F2E41"/>
<path d="M287.961 325.736C287.961 325.736 289.712 333.933 292.63 339.945C295.548 345.957 292.047 374.375 290.296 378.747C288.545 383.119 271.621 435.037 276.873 435.584C282.126 436.13 292.63 435.584 292.63 435.584L309.554 385.852L306.636 319.178L287.961 325.736Z" fill="#575A88"/>
<path opacity="0.1" d="M287.961 325.736C287.961 325.736 289.712 333.933 292.63 339.945C295.548 345.957 292.047 374.375 290.296 378.747C288.545 383.119 271.621 435.037 276.873 435.584C282.126 436.13 292.63 435.584 292.63 435.584L309.554 385.852L306.636 319.178L287.961 325.736Z" fill="black"/>
<path d="M291.463 326.279C291.463 326.279 293.797 341.035 299.049 344.314C304.302 347.593 302.551 350.872 302.551 350.872L300.216 379.837C300.216 379.837 277.457 432.301 284.46 438.86C291.463 445.418 297.882 442.685 300.8 442.139C303.718 441.592 308.97 430.115 306.052 426.836C303.134 423.557 311.888 403.883 314.222 400.604C316.557 397.325 314.222 392.953 317.14 391.86C320.058 390.767 326.478 383.662 326.478 378.744C326.478 373.825 334.648 321.361 329.396 318.082C324.143 314.803 290.477 324.849 290.477 324.849L291.463 326.279Z" fill="#575A88"/>
<path d="M280.375 249.769C287.466 249.769 293.214 244.386 293.214 237.746C293.214 231.106 287.466 225.723 280.375 225.723C273.284 225.723 267.536 231.106 267.536 237.746C267.536 244.386 273.284 249.769 280.375 249.769Z" fill="#FFB8B8"/>
<path d="M309.554 203.864C315.356 203.864 320.059 199.459 320.059 194.027C320.059 188.594 315.356 184.189 309.554 184.189C303.753 184.189 299.05 188.594 299.05 194.027C299.05 199.459 303.753 203.864 309.554 203.864Z" fill="#9F616A"/>
<path d="M289.129 237.748C289.129 237.748 296.132 249.771 299.633 249.771C303.135 249.771 285.627 262.341 285.627 262.341C285.627 262.341 279.791 246.492 278.624 245.946C277.457 245.399 289.129 237.748 289.129 237.748Z" fill="#FFB8B8"/>
<path d="M291.463 248.677C291.463 248.677 276.29 253.596 276.873 255.236C277.457 256.875 272.788 260.701 272.788 262.34C272.788 263.98 271.621 278.735 278.624 290.758C285.627 302.782 296.715 311.526 291.463 316.991C286.21 322.456 278.04 331.746 286.794 331.746C295.548 331.746 309.554 319.723 322.393 324.095C335.232 328.467 332.314 312.072 332.314 312.072C332.314 312.072 334.064 299.503 330.563 295.677C327.061 291.851 314.806 264.526 314.806 261.247C314.806 257.968 303.134 245.398 300.217 245.398C297.299 245.398 291.463 248.677 291.463 248.677Z" fill="#8985A8"/>
<path d="M312.472 200.039C312.472 200.039 317.224 208.5 317.474 210.008C317.724 211.516 325.894 200.039 325.894 200.039L316.557 194.027L312.472 200.039Z" fill="#9F616A"/>
<path d="M314.223 206.597L324.144 196.76L335.815 201.678C335.815 201.678 346.701 224.085 347.386 225.725C348.071 227.364 329.979 235.015 328.229 235.015C326.478 235.015 314.223 218.074 314.223 218.074C314.223 218.074 311.305 209.876 314.223 206.597Z" fill="#F2F2F2"/>
<path d="M309.554 219.715V229.552H316.557L314.254 219.715H309.554Z" fill="#9F616A"/>
<path d="M313.55 227.09C312.665 227.079 311.797 227.321 311.063 227.783C310.328 228.245 309.761 228.906 309.438 229.678C308.982 230.834 309.137 232.048 311.305 232.555C315.973 233.648 316.557 232.555 316.557 232.555C316.557 232.555 324.662 231.462 322.944 229.276C321.226 227.09 316.557 227.09 316.557 227.09H313.55Z" fill="#9F616A"/>
<path d="M338.733 274.365C338.733 274.365 345.736 280.377 343.986 280.923C342.235 281.47 335.815 288.028 334.648 288.574C333.604 289.063 322.393 292.4 324.144 288.574C325.894 284.749 329.98 282.563 329.98 282.563L331.147 276.005L338.733 274.365Z" fill="#F2F2F2"/>
<path d="M275.8 228.493C276.604 228.052 277.552 227.503 277.575 226.632C277.554 226.312 277.434 226.004 277.229 225.747C277.024 225.49 276.743 225.294 276.422 225.184C275.774 224.975 275.088 224.889 274.405 224.93C274.143 224.917 273.88 224.942 273.625 225.002C272.96 225.194 272.577 225.826 272.054 226.255C271.294 226.878 270.246 227.061 269.269 227.299C267.63 227.697 266.059 228.306 264.601 229.11C264.312 229.247 264.06 229.441 263.862 229.68C263.632 230.119 263.53 230.606 263.565 231.094C263.433 232.948 262.246 234.562 261.36 236.225C260.474 237.888 259.891 239.959 260.932 241.542C261.344 242.034 261.73 242.546 262.086 243.076C262.823 244.515 261.903 246.286 262.436 247.801C262.674 248.398 263.056 248.935 263.553 249.37C264.578 250.337 265.84 251.053 267.23 251.455C268.556 251.838 270.202 252.092 270.721 253.297C270.944 253.814 270.898 254.423 271.213 254.897C271.602 255.483 272.405 255.673 273.13 255.798C273.944 255.972 274.782 256.029 275.614 255.966C276.03 255.932 276.435 255.82 276.803 255.635C277.172 255.45 277.496 255.198 277.757 254.892C277.992 254.461 278.284 254.058 278.624 253.694C279.469 253.032 280.753 253.555 281.838 253.38C282.278 253.302 282.685 253.108 283.011 252.821C283.337 252.535 283.569 252.167 283.68 251.761C283.71 251.328 283.837 250.906 284.054 250.523C284.728 249.716 286.501 250.286 286.946 249.349C287.235 248.741 286.63 248.098 286.045 247.719C285.092 247.101 284.025 246.626 283.17 245.893C282.315 245.16 281.682 244.062 281.95 243.006C282.351 241.421 284.561 240.549 284.634 238.922C284.676 237.989 283.96 237.171 283.16 236.616C282.359 236.061 281.431 235.662 280.715 235.014C280.192 234.539 279.797 233.944 279.228 233.518C278.2 232.748 276.792 232.655 275.482 232.529C274.78 232.461 271.977 232.157 272.087 231.155C272.178 230.322 275.087 228.884 275.8 228.493Z" fill="#2F2E41"/>
<path d="M314.223 206.051C314.223 206.051 307.803 208.237 307.803 210.969C307.803 213.702 304.885 222.446 307.803 222.446C310.721 222.446 316.557 220.348 316.557 220.348L314.223 206.051Z" fill="#F2F2F2"/>
<path d="M312.472 245.397C312.472 245.397 329.396 239.932 329.979 239.932C330.563 239.932 338.733 235.56 338.15 233.92L335.815 220.257C335.815 220.257 326.478 202.223 332.897 202.223C339.317 202.223 342.818 216.432 342.818 216.432C342.818 216.432 356.824 241.025 349.238 246.49C341.651 251.955 310.138 261.792 308.387 260.152C306.636 258.513 312.472 245.397 312.472 245.397Z" fill="#FFB8B8"/>
<path d="M328.812 209.872L332.752 213.427L327.645 218.07C327.645 218.07 320.642 215.337 321.226 216.977C321.809 218.616 325.311 223.535 327.645 223.535C329.979 223.535 342.129 216.43 342.182 214.244C342.235 212.058 334.648 204.407 332.897 203.86C331.147 203.314 328.812 209.872 328.812 209.872Z" fill="#9F616A"/>
<path d="M321.405 206.067C321.405 206.067 329.979 213.156 331.147 213.156C332.314 213.156 334.436 202.505 334.436 202.505C334.436 202.505 327.518 198.284 324.956 199.435C322.393 200.586 321.405 206.067 321.405 206.067Z" fill="#F2F2F2"/>
<path d="M291.463 251.956C291.463 251.956 291.463 244.305 308.971 244.305H316.557L313.056 262.339L301.384 265.618L291.463 251.956Z" fill="#8985A8"/>
<path d="M329.706 190.041C327.99 190.033 326.276 189.934 324.572 189.744C323.234 186.716 321.53 184.175 319.686 183.228C318.378 182.131 316.36 181.335 314.777 180.705C310.888 179.158 304.415 180.122 304.037 181.882C296.385 185.306 298.319 191.318 298.319 191.318C299.508 193.672 302.175 192.629 304.438 191.563C305.015 193.269 306.38 194.717 308.334 194.786C312.071 194.917 313.883 196.383 312.982 198.313C312.081 200.244 310.999 204.831 315.068 204.134C319.137 203.436 320.423 204.953 319.703 206.119C318.982 207.285 321.517 203.8 321.517 203.8C321.517 203.8 323.785 206.964 326.568 204.749C326.849 204.496 327.05 204.174 327.148 203.819C328.442 204.341 329.467 204.539 330.049 204.295C333.383 202.898 331.313 199.618 331.313 199.618C331.313 199.618 335.763 198.979 334.329 199.085C332.895 199.191 331.988 197.45 334.414 194.313C336.841 191.175 331.954 190.112 329.706 190.041Z" fill="#2F2E41"/>
<path d="M307.129 187.578L305.468 187.061L303.809 191.727L305.47 192.245L307.129 187.578Z" fill="#6C63FF"/>
<path d="M109.422 229.367C109.422 229.367 108.726 231.542 112.673 233.499C116.62 235.455 117.781 242.848 113.137 245.023C108.494 247.197 107.1 250.024 109.422 251.981C111.744 253.938 115.924 259.156 110.351 260.461C104.779 261.766 104.082 264.375 105.707 265.462C107.333 266.549 101.992 263.505 101.992 263.505C101.992 263.505 101.063 268.724 96.1874 267.419C91.3114 266.114 77.6122 241.326 84.5779 237.847C91.5436 234.368 109.422 229.367 109.422 229.367Z" fill="#2F2E41"/>
<path d="M91.4313 413.709L92.941 426.903L86.3994 430.673L80.3613 429.731L83.3801 413.709H91.4313Z" fill="#9F616A"/>
<path d="M96.4634 255.377C104.245 255.377 110.553 249.469 110.553 242.183C110.553 234.896 104.245 228.988 96.4634 228.988C88.6821 228.988 82.374 234.896 82.374 242.183C82.374 249.469 88.6821 255.377 96.4634 255.377Z" fill="#9F616A"/>
<path d="M101.244 248.544C101.244 248.544 102.502 268.571 104.011 268.571C105.521 268.571 86.3994 267.628 86.3994 267.628C86.3994 267.628 94.4505 254.434 90.425 250.193C86.3994 245.952 101.244 248.544 101.244 248.544Z" fill="#9F616A"/>
<path d="M80.3613 354.336L86.9028 377.897L81.8705 417.951L93.4443 417.008L97.9728 354.336H80.3613Z" fill="#2F2E41"/>
<path opacity="0.2" d="M80.3613 354.336L86.9028 377.897L81.8705 417.951L93.4443 417.008L97.9728 354.336H80.3613Z" fill="black"/>
<path d="M90.4251 424.546C90.4251 424.546 90.9282 421.718 95.9602 424.546C100.992 427.373 122.126 436.326 111.056 438.211C99.9857 440.096 77.342 435.855 77.342 434.441C77.342 433.028 76.8389 424.074 78.8516 425.017C80.8644 425.959 87.4059 432.085 90.4251 424.546Z" fill="#2F2E41"/>
<path d="M83.8837 421.249C83.8837 421.249 75.8326 433.03 75.3294 436.328C74.8262 439.627 67.2783 428.789 67.2783 428.789L74.323 416.537L83.8837 421.249Z" fill="#9F616A"/>
<path d="M110.553 356.218L101.495 384.491C101.495 384.491 85.3931 424.545 84.3867 424.074C83.3803 423.603 71.3037 420.775 70.8005 419.362C70.2973 417.948 85.8963 379.779 85.8963 379.779L87.9091 355.275L110.553 356.218Z" fill="#2F2E41"/>
<path d="M65.7687 426.899C67.1426 426.811 68.5117 427.127 69.6846 427.802C70.8575 428.478 71.7755 429.481 72.3102 430.669C74.323 434.91 76.8389 435.381 77.3421 435.853C77.8453 436.324 75.8325 446.22 77.3421 447.162C78.8517 448.104 80.3613 458 75.3293 458C70.2974 458 62.2463 452.817 62.7495 451.874C63.2527 450.932 63.2527 444.335 61.7431 441.507C60.2336 438.68 57.7176 433.968 61.7431 431.14C65.7687 428.313 65.7687 426.899 65.7687 426.899Z" fill="#2F2E41"/>
<path d="M113.572 312.393L114.578 320.875C114.578 320.875 122.126 327.943 124.642 336.425C127.158 344.907 147.789 359.044 141.751 360.929C135.712 362.814 128.668 363.756 111.056 360.929C93.4442 358.102 65.7686 364.227 65.7686 348.677C65.7686 348.677 62.2462 344.436 59.7302 350.562C57.9581 354.746 55.9423 358.836 53.6919 362.814C53.6919 362.814 47.6536 352.918 49.6664 348.677C51.6792 344.436 49.6664 344.907 52.1824 340.195C54.6983 335.483 67.2781 318.048 72.3101 317.105C77.342 316.163 86.9027 303.911 86.3995 302.497C85.8963 301.084 113.572 312.393 113.572 312.393Z" fill="#6C63FF"/>
<path d="M86.3996 259.615C86.3996 259.615 107.031 263.856 108.037 266.684C108.603 268.274 111.239 271.206 113.437 273.468C117.148 277.228 119.615 281.916 120.539 286.963C121.064 289.969 118.858 292.672 117.849 296.135C114.83 306.502 112.566 303.91 115.585 311.45C118.604 318.989 100.489 321.817 93.4443 318.518C86.3996 315.22 78.6001 295.664 78.6001 293.308C78.6001 290.952 71.807 264.327 77.3422 262.443C82.8773 260.558 86.3996 259.615 86.3996 259.615Z" fill="#575A88"/>
<path d="M108.037 272.812C108.037 272.812 120.617 279.881 117.598 283.651C114.578 287.42 107.03 293.546 105.018 293.546C103.005 293.546 101.495 282.237 101.495 278.938C101.495 275.64 108.037 272.812 108.037 272.812Z" fill="#575A88"/>
<path d="M95.4495 225.051C95.4495 225.051 94.6778 227.46 99.0506 229.627C103.423 231.795 104.709 239.985 99.565 242.394C94.4206 244.803 92.8773 247.934 95.4495 250.102C98.0217 252.27 102.652 258.051 96.4784 259.497C90.305 260.942 89.5334 263.832 91.334 265.037C93.1345 266.241 87.2184 262.869 87.2184 262.869C87.2184 262.869 86.1895 268.65 80.7879 267.205C75.3862 265.759 69.9967 239.488 76.018 232.721C81.6167 226.429 95.4495 225.051 95.4495 225.051Z" fill="#2F2E41"/>
<path d="M97.0928 222.571C97.0917 219.042 85.8174 221.578 80.9836 226.505C77.6363 229.917 72.5521 235.05 76.8125 238.669C81.0729 242.287 69.5098 247.031 66.4087 248.469C63.3075 249.907 57.1846 254.305 62.7132 257.256C68.2417 260.206 68.1526 263.184 66.072 263.89C63.9913 264.595 70.6593 262.841 70.6593 262.841C70.6593 262.841 69.9856 268.668 75.6033 268.64C81.2211 268.612 97.3379 239.7 93.4877 231.664C89.9077 224.192 97.0928 222.571 97.0928 222.571Z" fill="#2F2E41"/>
<path d="M94.6507 221.796C109.727 220.946 111.24 231.574 111.24 231.574C111.136 237.724 100.707 234.728 97.81 235.644C94.3152 233.29 87.5789 228.836 82.7612 225.657C86.2589 223.35 90.3792 222.012 94.6507 221.796Z" fill="#2F2E41"/>
<path d="M102.842 285.297C102.842 285.297 106.884 301.629 106.823 302.172C106.763 302.716 110.555 310.78 112.357 310.408L127.111 309.656C127.111 309.656 147.236 302.836 146.568 308.815C145.9 314.794 130.445 316.576 130.445 316.576C130.445 316.576 102.868 327.061 97.8536 319.426C92.8393 311.791 85.6724 281.416 87.5959 279.956C89.5194 278.496 102.842 285.297 102.842 285.297Z" fill="#9F616A"/>
<path d="M238.64 380.129C209.533 380.129 179.387 377.359 148.519 371.831C65.5062 356.964 20.6488 328.129 18.1933 326.89L10.7937 315.366L10.7955 315.367V315.367C11.4883 315.715 70.4369 345.078 151.434 359.525C225.764 372.782 334.524 375.827 430.548 315.045L428.438 328.924C384.257 356.891 343.541 370.885 288.397 377.304C271.89 379.205 255.272 380.149 238.64 380.129Z" fill="#F55F44"/>
<path d="M22.1918 306.186H12.4829V434.773H22.1918V306.186Z" fill="#E0E0E0"/>
<path d="M9.31636 430.553H25.3583C27.8292 430.553 30.1988 431.472 31.946 433.108C33.6931 434.744 34.6747 436.963 34.6747 439.277V446.789H0V439.277C1.30122e-06 436.963 0.981544 434.744 2.7287 433.108C4.47586 431.472 6.84551 430.553 9.31636 430.553Z" fill="#E0E0E0"/>
<path opacity="0.1" d="M17.3373 321.124C22.6994 321.124 27.0462 317.053 27.0462 312.032C27.0462 307.01 22.6994 302.939 17.3373 302.939C11.9752 302.939 7.62842 307.01 7.62842 312.032C7.62842 317.053 11.9752 321.124 17.3373 321.124Z" fill="black"/>
<path d="M17.3373 320.475C22.6994 320.475 27.0462 316.404 27.0462 311.383C27.0462 306.362 22.6994 302.291 17.3373 302.291C11.9752 302.291 7.62842 306.362 7.62842 311.383C7.62842 316.404 11.9752 320.475 17.3373 320.475Z" fill="#E0E0E0"/>
<path opacity="0.1" d="M12.4829 431.197C12.4829 431.197 18.7243 433.143 22.1918 431.198L12.4829 431.197Z" fill="black"/>
<path d="M430.721 306.186H421.012V434.773H430.721V306.186Z" fill="#E0E0E0"/>
<path d="M417.846 430.553H433.888C436.358 430.553 438.728 431.472 440.475 433.108C442.222 434.744 443.204 436.963 443.204 439.277V446.789H408.529V439.277C408.529 436.963 409.511 434.744 411.258 433.108C413.005 431.472 415.375 430.553 417.846 430.553Z" fill="#E0E0E0"/>
<path opacity="0.1" d="M425.866 321.124C431.228 321.124 435.575 317.053 435.575 312.032C435.575 307.01 431.228 302.939 425.866 302.939C420.504 302.939 416.157 307.01 416.157 312.032C416.157 317.053 420.504 321.124 425.866 321.124Z" fill="black"/>
<path d="M425.866 320.475C431.228 320.475 435.575 316.404 435.575 311.383C435.575 306.362 431.228 302.291 425.866 302.291C420.504 302.291 416.157 306.362 416.157 311.383C416.157 316.404 420.504 320.475 425.866 320.475Z" fill="#E0E0E0"/>
<path opacity="0.1" d="M421.012 431.197C421.012 431.197 427.254 433.143 430.721 431.198L421.012 431.197Z" fill="black"/>
<defs>
<linearGradient id="paint0_linear" x1="71429" y1="126840" x2="71429" y2="40627.1" gradientUnits="userSpaceOnUse">
<stop stop-color="#808080" stop-opacity="0.25"/>
<stop offset="0.54" stop-color="#808080" stop-opacity="0.12"/>
<stop offset="1" stop-color="#808080" stop-opacity="0.1"/>
</linearGradient>
<linearGradient id="paint1_linear" x1="500.098" y1="336.5" x2="500.098" y2="159.592" gradientUnits="userSpaceOnUse">
<stop stop-color="#808080" stop-opacity="0.25"/>
<stop offset="0.54" stop-color="#808080" stop-opacity="0.12"/>
<stop offset="1" stop-color="#808080" stop-opacity="0.1"/>
</linearGradient>
</defs>
</svg>
