<svg width="123" height="149" viewBox="0 0 123 149" fill="none" xmlns="http://www.w3.org/2000/svg">
<path d="M61.4616 0L104.973 43.6541C113.578 52.2816 119.439 63.2758 121.815 75.2458C124.192 87.2159 122.976 99.6242 118.322 110.901C113.669 122.178 105.786 131.817 95.6717 138.599C85.5573 145.38 73.6653 149 61.5 149C49.3347 149 37.4427 145.38 27.3283 138.599C17.2138 131.817 9.33118 122.178 4.67758 110.901C0.0239759 99.6242 -1.19157 87.2159 1.18468 75.2458C3.56094 63.2758 9.42225 52.2816 18.0272 43.6541L61.4616 0Z" fill="#FE1F1A"/>
<path d="M94.0834 56.75C91.2904 58.7202 88.1979 60.227 84.9251 61.2125C83.1685 59.1928 80.834 57.7612 78.2373 57.1115C75.6406 56.4617 72.907 56.6252 70.4062 57.5797C67.9054 58.5342 65.758 60.2337 64.2546 62.4484C62.7512 64.663 61.9642 67.286 62.0001 69.9625V72.8792C56.8744 73.0121 51.7955 71.8753 47.2155 69.5701C42.6356 67.2648 38.6968 63.8627 35.7501 59.6667C35.7501 59.6667 24.0834 85.9167 50.3334 97.5834C44.3266 101.661 37.171 103.705 29.9167 103.417C56.1668 118 88.2501 103.417 88.2501 69.875C88.2474 69.0626 88.1693 68.2522 88.0168 67.4542C90.9935 64.5186 93.0942 60.8121 94.0834 56.75V56.75Z" stroke="white" stroke-width="5" stroke-linecap="round" stroke-linejoin="round"/>
</svg>
