<svg width="123" height="149" viewBox="0 0 123 149" fill="none" xmlns="http://www.w3.org/2000/svg">
<path d="M61.4616 0L104.973 43.6541C113.578 52.2816 119.439 63.2758 121.815 75.2458C124.192 87.2159 122.976 99.6242 118.322 110.901C113.669 122.178 105.786 131.817 95.6717 138.599C85.5573 145.38 73.6653 149 61.5 149C49.3347 149 37.4427 145.38 27.3283 138.599C17.2138 131.817 9.33118 122.178 4.67758 110.901C0.0239759 99.6242 -1.19157 87.2159 1.18468 75.2458C3.56094 63.2758 9.42225 52.2816 18.0272 43.6541L61.4616 0Z" fill="#FE1F1A"/>
<path d="M97.43 65.8267C97.025 64.2918 96.2003 62.8854 95.0391 61.7497C93.8779 60.614 92.4214 59.7891 90.8167 59.3583C84.9533 58 61.5 58 61.5 58C61.5 58 38.0467 58 32.1833 59.4877C30.5786 59.9184 29.1221 60.7433 27.9609 61.8791C26.7997 63.0148 25.975 64.4211 25.57 65.956C24.497 71.6014 23.9721 77.3283 24.0019 83.0647C23.9637 88.8443 24.4886 94.6148 25.57 100.303C26.0165 101.79 26.8597 103.143 28.0181 104.231C29.1766 105.318 30.6112 106.104 32.1833 106.512C38.0467 108 61.5 108 61.5 108C61.5 108 84.9533 108 90.8167 106.512C92.4214 106.082 93.8779 105.257 95.0391 104.121C96.2003 102.985 97.025 101.579 97.43 100.044C98.4948 94.4411 99.0196 88.7579 98.9981 83.0647C99.0363 77.2851 98.5114 71.5145 97.43 65.8267V65.8267Z" stroke="white" stroke-width="5" stroke-linecap="round" stroke-linejoin="round"/>
<path d="M53.8291 93.6416L73.4304 83.0659L53.8291 72.4902V93.6416Z" stroke="white" stroke-width="5" stroke-linecap="round" stroke-linejoin="round"/>
</svg>
